%
M48
M72
T01C0.00984
T02C0.01378
T03C0.01969
T04C0.04000
T05C0.04331
T06C0.16000
T07C0.26000
%
T01
X131393Y59300
X295305Y106480
X357209Y108361
X363669Y161053
X261337Y98788
X244228Y98227
X241890Y90466
X211051Y55858
X197297Y56241
X177430Y127748
X183734Y75360
X191184Y55858
X241042Y53755
X282371Y136217
X255879Y126242
X248510Y111184
X241769Y100519
X305973Y120762
X298761Y120899
X282371Y119813
X276783Y120666
X358202Y118288
X306998Y59952
X250975Y53564
X311232Y122416
X298160Y124370
X282371Y123226
X222872Y138339
X205511Y115320
X207230Y73066
X230917Y53755
X201551Y115459
X199398Y72875
X282371Y116401
X220984Y53564
X185487Y52640
X266069Y62344
X323605Y91422
X172655Y135969
X173419Y75934
X177812Y56049
X189721Y134057
X211816Y147677
X218691Y178525
X220190Y192449
X221505Y203832
X353870Y174186
X169216Y140797
X169216Y75742
X357342Y157920
X357359Y104976
X217614Y148916
X224695Y148844
X224117Y176456
X282078Y195303
X285467Y214397
X358732Y176839
X164632Y140940
X164823Y75742
X169789Y56241
X215454Y176736
X282371Y198233
X283218Y216935
X363706Y226042
X160238Y140940
X160238Y75742
X215625Y160296
X286584Y195052
X333959Y228540
X358924Y225877
X155653Y140940
X155653Y75551
X161193Y55476
X211132Y157134
X337121Y189425
X350769Y191922
X353598Y225544
X132921Y132528
X134067Y149162
X195487Y153805
X348938Y225544
X151260Y140749
X151069Y75360
X154698Y55476
X186999Y151308
X343612Y209232
X297864Y114450
X298229Y148212
X282371Y159303
X270346Y173414
X382433Y205253
X327964Y237430
X234625Y234627
X228898Y228045
X210498Y211956
X233040Y179780
X385425Y150247
X383547Y124306
X274709Y141321
X281200Y54602
X306837Y55762
X248824Y171884
X248824Y165924
X261043Y164515
X261523Y158917
X258387Y135966
X256349Y130950
X276103Y112439
X282844Y110996
X297805Y205246
X276246Y198018
X293192Y209580
X222894Y199637
X292830Y204061
X276246Y201506
X298732Y209388
X215444Y197725
X276246Y204890
X288684Y204772
X141396Y138325
X139399Y72911
X144891Y65587
X121078Y143426
X187364Y137308
X272212Y144734
X276873Y171282
X319313Y176109
X336289Y175443
X326269Y111194
X275541Y147480
X225547Y112100
X223850Y114399
X230726Y112261
X123339Y155641
X186074Y170042
X191684Y175278
X191497Y180701
X211492Y111496
X207503Y107053
X180603Y117576
X143760Y79833
X136877Y86199
X73374Y82821
X195026Y74489
X211126Y136715
X217682Y143661
X224952Y143725
X191653Y199358
X74942Y185178
X168854Y169102
X155445Y173379
X83651Y185030
X66047Y185066
X172232Y166935
X130794Y176395
X169304Y176507
X132730Y238833
X220480Y145871
X201171Y230336
X201509Y194075
X128316Y223579
X126965Y172115
X164913Y172678
X134284Y179323
X173133Y179097
X308348Y209511
X270205Y168751
X303136Y209511
X250304Y158917
X348741Y102753
T02
X111601Y53145
X279679Y108504
X244505Y220351
X56496Y173372
X37056Y172583
X210505Y200729
T03
X213115Y166250
X236240Y166250
X282490Y245000
X219990Y243750
X167490Y255000
X372490Y97500
X312490Y76875
X261240Y76875
X236865Y68125
X228115Y59375
X211865Y59375
X171240Y203750
X196240Y136875
X204365Y130000
X194365Y130000
X369990Y94375
X306240Y65000
X284365Y65000
X276240Y56875
X259365Y56875
X203115Y55625
X391865Y65625
X185615Y129375
X329990Y185625
X268115Y165625
X257490Y171250
X188740Y118125
X319990Y160625
X328740Y241250
X147490Y140000
X216865Y130000
X194365Y82500
X228740Y78125
X248740Y76875
X275615Y93750
X248740Y71250
X270615Y98750
X246240Y82500
X266865Y53750
X273740Y53750
X276865Y101250
X226240Y83750
X219990Y84375
X226240Y73750
X237490Y115625
X249365Y88750
X247490Y54375
X257490Y51875
X369990Y100625
X296240Y103125
X341240Y103750
X328740Y198125
X242490Y215000
X210615Y205000
X236865Y196875
X303740Y79375
X144990Y241875
X136240Y220625
X228740Y168750
X255615Y138125
X236240Y145625
T04
X232645Y100572
X222645Y100572
X212645Y100572
X202645Y100572
X192645Y100572
X232645Y90572
X222645Y90572
X212645Y90572
X202645Y90572
X192645Y90572
T05
X256240Y250000
X266240Y250000
X276240Y250000
X246240Y250000
X286240Y250000
X316240Y250000
X326240Y250000
X336240Y250000
X306240Y250000
X346240Y250000
T06
X110453Y96398
X331197Y77500
T07
X369854Y139949
X32819Y138886
M30
