G75*
%MOIN*%
%OFA0B0*%
%FSLAX25Y25*%
%IPPOS*%
%LPD*%
%AMOC8*
5,1,8,0,0,1.08239X$1,22.5*
%
%ADD10C,0.00400*%
%ADD11C,0.00000*%
D10*
X0223367Y0215967D02*
X0223367Y0216735D01*
X0224134Y0217502D01*
X0226436Y0217502D01*
X0226436Y0215967D01*
X0225669Y0215200D01*
X0224134Y0215200D01*
X0223367Y0215967D01*
X0226436Y0217502D02*
X0224902Y0219037D01*
X0223367Y0219804D01*
X0227971Y0219037D02*
X0228738Y0219804D01*
X0230273Y0219804D01*
X0231040Y0219037D01*
X0231040Y0215967D01*
X0230273Y0215200D01*
X0228738Y0215200D01*
X0227971Y0215967D01*
X0333367Y0154804D02*
X0333367Y0154037D01*
X0336436Y0150967D01*
X0336436Y0150200D01*
X0337971Y0150967D02*
X0338738Y0150200D01*
X0340273Y0150200D01*
X0341040Y0150967D01*
X0341040Y0154037D01*
X0340273Y0154804D01*
X0338738Y0154804D01*
X0337971Y0154037D01*
X0336436Y0154804D02*
X0333367Y0154804D01*
D11*
X0093740Y0050000D02*
X0043740Y0050000D01*
X0043740Y0100000D01*
X0002165Y0100000D01*
X0002165Y0263157D01*
X0399803Y0263157D01*
X0399803Y0050000D01*
X0348740Y0050000D01*
X0348740Y0008750D01*
X0093740Y0008750D01*
X0093740Y0050000D01*
X0102453Y0096398D02*
X0102455Y0096594D01*
X0102463Y0096791D01*
X0102475Y0096987D01*
X0102492Y0097182D01*
X0102513Y0097377D01*
X0102540Y0097572D01*
X0102571Y0097766D01*
X0102607Y0097959D01*
X0102647Y0098151D01*
X0102693Y0098342D01*
X0102743Y0098532D01*
X0102797Y0098720D01*
X0102857Y0098907D01*
X0102921Y0099093D01*
X0102989Y0099277D01*
X0103062Y0099459D01*
X0103139Y0099640D01*
X0103221Y0099818D01*
X0103307Y0099995D01*
X0103398Y0100169D01*
X0103492Y0100341D01*
X0103591Y0100511D01*
X0103694Y0100678D01*
X0103801Y0100843D01*
X0103912Y0101004D01*
X0104027Y0101164D01*
X0104146Y0101320D01*
X0104269Y0101473D01*
X0104395Y0101623D01*
X0104525Y0101770D01*
X0104659Y0101914D01*
X0104796Y0102055D01*
X0104937Y0102192D01*
X0105081Y0102326D01*
X0105228Y0102456D01*
X0105378Y0102582D01*
X0105531Y0102705D01*
X0105687Y0102824D01*
X0105847Y0102939D01*
X0106008Y0103050D01*
X0106173Y0103157D01*
X0106340Y0103260D01*
X0106510Y0103359D01*
X0106682Y0103453D01*
X0106856Y0103544D01*
X0107033Y0103630D01*
X0107211Y0103712D01*
X0107392Y0103789D01*
X0107574Y0103862D01*
X0107758Y0103930D01*
X0107944Y0103994D01*
X0108131Y0104054D01*
X0108319Y0104108D01*
X0108509Y0104158D01*
X0108700Y0104204D01*
X0108892Y0104244D01*
X0109085Y0104280D01*
X0109279Y0104311D01*
X0109474Y0104338D01*
X0109669Y0104359D01*
X0109864Y0104376D01*
X0110060Y0104388D01*
X0110257Y0104396D01*
X0110453Y0104398D01*
X0110649Y0104396D01*
X0110846Y0104388D01*
X0111042Y0104376D01*
X0111237Y0104359D01*
X0111432Y0104338D01*
X0111627Y0104311D01*
X0111821Y0104280D01*
X0112014Y0104244D01*
X0112206Y0104204D01*
X0112397Y0104158D01*
X0112587Y0104108D01*
X0112775Y0104054D01*
X0112962Y0103994D01*
X0113148Y0103930D01*
X0113332Y0103862D01*
X0113514Y0103789D01*
X0113695Y0103712D01*
X0113873Y0103630D01*
X0114050Y0103544D01*
X0114224Y0103453D01*
X0114396Y0103359D01*
X0114566Y0103260D01*
X0114733Y0103157D01*
X0114898Y0103050D01*
X0115059Y0102939D01*
X0115219Y0102824D01*
X0115375Y0102705D01*
X0115528Y0102582D01*
X0115678Y0102456D01*
X0115825Y0102326D01*
X0115969Y0102192D01*
X0116110Y0102055D01*
X0116247Y0101914D01*
X0116381Y0101770D01*
X0116511Y0101623D01*
X0116637Y0101473D01*
X0116760Y0101320D01*
X0116879Y0101164D01*
X0116994Y0101004D01*
X0117105Y0100843D01*
X0117212Y0100678D01*
X0117315Y0100511D01*
X0117414Y0100341D01*
X0117508Y0100169D01*
X0117599Y0099995D01*
X0117685Y0099818D01*
X0117767Y0099640D01*
X0117844Y0099459D01*
X0117917Y0099277D01*
X0117985Y0099093D01*
X0118049Y0098907D01*
X0118109Y0098720D01*
X0118163Y0098532D01*
X0118213Y0098342D01*
X0118259Y0098151D01*
X0118299Y0097959D01*
X0118335Y0097766D01*
X0118366Y0097572D01*
X0118393Y0097377D01*
X0118414Y0097182D01*
X0118431Y0096987D01*
X0118443Y0096791D01*
X0118451Y0096594D01*
X0118453Y0096398D01*
X0118451Y0096202D01*
X0118443Y0096005D01*
X0118431Y0095809D01*
X0118414Y0095614D01*
X0118393Y0095419D01*
X0118366Y0095224D01*
X0118335Y0095030D01*
X0118299Y0094837D01*
X0118259Y0094645D01*
X0118213Y0094454D01*
X0118163Y0094264D01*
X0118109Y0094076D01*
X0118049Y0093889D01*
X0117985Y0093703D01*
X0117917Y0093519D01*
X0117844Y0093337D01*
X0117767Y0093156D01*
X0117685Y0092978D01*
X0117599Y0092801D01*
X0117508Y0092627D01*
X0117414Y0092455D01*
X0117315Y0092285D01*
X0117212Y0092118D01*
X0117105Y0091953D01*
X0116994Y0091792D01*
X0116879Y0091632D01*
X0116760Y0091476D01*
X0116637Y0091323D01*
X0116511Y0091173D01*
X0116381Y0091026D01*
X0116247Y0090882D01*
X0116110Y0090741D01*
X0115969Y0090604D01*
X0115825Y0090470D01*
X0115678Y0090340D01*
X0115528Y0090214D01*
X0115375Y0090091D01*
X0115219Y0089972D01*
X0115059Y0089857D01*
X0114898Y0089746D01*
X0114733Y0089639D01*
X0114566Y0089536D01*
X0114396Y0089437D01*
X0114224Y0089343D01*
X0114050Y0089252D01*
X0113873Y0089166D01*
X0113695Y0089084D01*
X0113514Y0089007D01*
X0113332Y0088934D01*
X0113148Y0088866D01*
X0112962Y0088802D01*
X0112775Y0088742D01*
X0112587Y0088688D01*
X0112397Y0088638D01*
X0112206Y0088592D01*
X0112014Y0088552D01*
X0111821Y0088516D01*
X0111627Y0088485D01*
X0111432Y0088458D01*
X0111237Y0088437D01*
X0111042Y0088420D01*
X0110846Y0088408D01*
X0110649Y0088400D01*
X0110453Y0088398D01*
X0110257Y0088400D01*
X0110060Y0088408D01*
X0109864Y0088420D01*
X0109669Y0088437D01*
X0109474Y0088458D01*
X0109279Y0088485D01*
X0109085Y0088516D01*
X0108892Y0088552D01*
X0108700Y0088592D01*
X0108509Y0088638D01*
X0108319Y0088688D01*
X0108131Y0088742D01*
X0107944Y0088802D01*
X0107758Y0088866D01*
X0107574Y0088934D01*
X0107392Y0089007D01*
X0107211Y0089084D01*
X0107033Y0089166D01*
X0106856Y0089252D01*
X0106682Y0089343D01*
X0106510Y0089437D01*
X0106340Y0089536D01*
X0106173Y0089639D01*
X0106008Y0089746D01*
X0105847Y0089857D01*
X0105687Y0089972D01*
X0105531Y0090091D01*
X0105378Y0090214D01*
X0105228Y0090340D01*
X0105081Y0090470D01*
X0104937Y0090604D01*
X0104796Y0090741D01*
X0104659Y0090882D01*
X0104525Y0091026D01*
X0104395Y0091173D01*
X0104269Y0091323D01*
X0104146Y0091476D01*
X0104027Y0091632D01*
X0103912Y0091792D01*
X0103801Y0091953D01*
X0103694Y0092118D01*
X0103591Y0092285D01*
X0103492Y0092455D01*
X0103398Y0092627D01*
X0103307Y0092801D01*
X0103221Y0092978D01*
X0103139Y0093156D01*
X0103062Y0093337D01*
X0102989Y0093519D01*
X0102921Y0093703D01*
X0102857Y0093889D01*
X0102797Y0094076D01*
X0102743Y0094264D01*
X0102693Y0094454D01*
X0102647Y0094645D01*
X0102607Y0094837D01*
X0102571Y0095030D01*
X0102540Y0095224D01*
X0102513Y0095419D01*
X0102492Y0095614D01*
X0102475Y0095809D01*
X0102463Y0096005D01*
X0102455Y0096202D01*
X0102453Y0096398D01*
X0019819Y0138886D02*
X0019823Y0139205D01*
X0019835Y0139524D01*
X0019854Y0139842D01*
X0019882Y0140160D01*
X0019917Y0140477D01*
X0019960Y0140793D01*
X0020010Y0141109D01*
X0020069Y0141422D01*
X0020135Y0141734D01*
X0020209Y0142045D01*
X0020290Y0142353D01*
X0020379Y0142660D01*
X0020475Y0142964D01*
X0020579Y0143266D01*
X0020690Y0143565D01*
X0020809Y0143861D01*
X0020934Y0144154D01*
X0021067Y0144444D01*
X0021207Y0144731D01*
X0021354Y0145014D01*
X0021508Y0145294D01*
X0021669Y0145569D01*
X0021836Y0145841D01*
X0022010Y0146108D01*
X0022190Y0146372D01*
X0022377Y0146630D01*
X0022570Y0146884D01*
X0022770Y0147133D01*
X0022975Y0147377D01*
X0023187Y0147616D01*
X0023404Y0147850D01*
X0023627Y0148078D01*
X0023855Y0148301D01*
X0024089Y0148518D01*
X0024328Y0148730D01*
X0024572Y0148935D01*
X0024821Y0149135D01*
X0025075Y0149328D01*
X0025333Y0149515D01*
X0025597Y0149695D01*
X0025864Y0149869D01*
X0026136Y0150036D01*
X0026411Y0150197D01*
X0026691Y0150351D01*
X0026974Y0150498D01*
X0027261Y0150638D01*
X0027551Y0150771D01*
X0027844Y0150896D01*
X0028140Y0151015D01*
X0028439Y0151126D01*
X0028741Y0151230D01*
X0029045Y0151326D01*
X0029352Y0151415D01*
X0029660Y0151496D01*
X0029971Y0151570D01*
X0030283Y0151636D01*
X0030596Y0151695D01*
X0030912Y0151745D01*
X0031228Y0151788D01*
X0031545Y0151823D01*
X0031863Y0151851D01*
X0032181Y0151870D01*
X0032500Y0151882D01*
X0032819Y0151886D01*
X0033138Y0151882D01*
X0033457Y0151870D01*
X0033775Y0151851D01*
X0034093Y0151823D01*
X0034410Y0151788D01*
X0034726Y0151745D01*
X0035042Y0151695D01*
X0035355Y0151636D01*
X0035667Y0151570D01*
X0035978Y0151496D01*
X0036286Y0151415D01*
X0036593Y0151326D01*
X0036897Y0151230D01*
X0037199Y0151126D01*
X0037498Y0151015D01*
X0037794Y0150896D01*
X0038087Y0150771D01*
X0038377Y0150638D01*
X0038664Y0150498D01*
X0038947Y0150351D01*
X0039227Y0150197D01*
X0039502Y0150036D01*
X0039774Y0149869D01*
X0040041Y0149695D01*
X0040305Y0149515D01*
X0040563Y0149328D01*
X0040817Y0149135D01*
X0041066Y0148935D01*
X0041310Y0148730D01*
X0041549Y0148518D01*
X0041783Y0148301D01*
X0042011Y0148078D01*
X0042234Y0147850D01*
X0042451Y0147616D01*
X0042663Y0147377D01*
X0042868Y0147133D01*
X0043068Y0146884D01*
X0043261Y0146630D01*
X0043448Y0146372D01*
X0043628Y0146108D01*
X0043802Y0145841D01*
X0043969Y0145569D01*
X0044130Y0145294D01*
X0044284Y0145014D01*
X0044431Y0144731D01*
X0044571Y0144444D01*
X0044704Y0144154D01*
X0044829Y0143861D01*
X0044948Y0143565D01*
X0045059Y0143266D01*
X0045163Y0142964D01*
X0045259Y0142660D01*
X0045348Y0142353D01*
X0045429Y0142045D01*
X0045503Y0141734D01*
X0045569Y0141422D01*
X0045628Y0141109D01*
X0045678Y0140793D01*
X0045721Y0140477D01*
X0045756Y0140160D01*
X0045784Y0139842D01*
X0045803Y0139524D01*
X0045815Y0139205D01*
X0045819Y0138886D01*
X0045815Y0138567D01*
X0045803Y0138248D01*
X0045784Y0137930D01*
X0045756Y0137612D01*
X0045721Y0137295D01*
X0045678Y0136979D01*
X0045628Y0136663D01*
X0045569Y0136350D01*
X0045503Y0136038D01*
X0045429Y0135727D01*
X0045348Y0135419D01*
X0045259Y0135112D01*
X0045163Y0134808D01*
X0045059Y0134506D01*
X0044948Y0134207D01*
X0044829Y0133911D01*
X0044704Y0133618D01*
X0044571Y0133328D01*
X0044431Y0133041D01*
X0044284Y0132758D01*
X0044130Y0132478D01*
X0043969Y0132203D01*
X0043802Y0131931D01*
X0043628Y0131664D01*
X0043448Y0131400D01*
X0043261Y0131142D01*
X0043068Y0130888D01*
X0042868Y0130639D01*
X0042663Y0130395D01*
X0042451Y0130156D01*
X0042234Y0129922D01*
X0042011Y0129694D01*
X0041783Y0129471D01*
X0041549Y0129254D01*
X0041310Y0129042D01*
X0041066Y0128837D01*
X0040817Y0128637D01*
X0040563Y0128444D01*
X0040305Y0128257D01*
X0040041Y0128077D01*
X0039774Y0127903D01*
X0039502Y0127736D01*
X0039227Y0127575D01*
X0038947Y0127421D01*
X0038664Y0127274D01*
X0038377Y0127134D01*
X0038087Y0127001D01*
X0037794Y0126876D01*
X0037498Y0126757D01*
X0037199Y0126646D01*
X0036897Y0126542D01*
X0036593Y0126446D01*
X0036286Y0126357D01*
X0035978Y0126276D01*
X0035667Y0126202D01*
X0035355Y0126136D01*
X0035042Y0126077D01*
X0034726Y0126027D01*
X0034410Y0125984D01*
X0034093Y0125949D01*
X0033775Y0125921D01*
X0033457Y0125902D01*
X0033138Y0125890D01*
X0032819Y0125886D01*
X0032500Y0125890D01*
X0032181Y0125902D01*
X0031863Y0125921D01*
X0031545Y0125949D01*
X0031228Y0125984D01*
X0030912Y0126027D01*
X0030596Y0126077D01*
X0030283Y0126136D01*
X0029971Y0126202D01*
X0029660Y0126276D01*
X0029352Y0126357D01*
X0029045Y0126446D01*
X0028741Y0126542D01*
X0028439Y0126646D01*
X0028140Y0126757D01*
X0027844Y0126876D01*
X0027551Y0127001D01*
X0027261Y0127134D01*
X0026974Y0127274D01*
X0026691Y0127421D01*
X0026411Y0127575D01*
X0026136Y0127736D01*
X0025864Y0127903D01*
X0025597Y0128077D01*
X0025333Y0128257D01*
X0025075Y0128444D01*
X0024821Y0128637D01*
X0024572Y0128837D01*
X0024328Y0129042D01*
X0024089Y0129254D01*
X0023855Y0129471D01*
X0023627Y0129694D01*
X0023404Y0129922D01*
X0023187Y0130156D01*
X0022975Y0130395D01*
X0022770Y0130639D01*
X0022570Y0130888D01*
X0022377Y0131142D01*
X0022190Y0131400D01*
X0022010Y0131664D01*
X0021836Y0131931D01*
X0021669Y0132203D01*
X0021508Y0132478D01*
X0021354Y0132758D01*
X0021207Y0133041D01*
X0021067Y0133328D01*
X0020934Y0133618D01*
X0020809Y0133911D01*
X0020690Y0134207D01*
X0020579Y0134506D01*
X0020475Y0134808D01*
X0020379Y0135112D01*
X0020290Y0135419D01*
X0020209Y0135727D01*
X0020135Y0136038D01*
X0020069Y0136350D01*
X0020010Y0136663D01*
X0019960Y0136979D01*
X0019917Y0137295D01*
X0019882Y0137612D01*
X0019854Y0137930D01*
X0019835Y0138248D01*
X0019823Y0138567D01*
X0019819Y0138886D01*
X0323197Y0077500D02*
X0323199Y0077696D01*
X0323207Y0077893D01*
X0323219Y0078089D01*
X0323236Y0078284D01*
X0323257Y0078479D01*
X0323284Y0078674D01*
X0323315Y0078868D01*
X0323351Y0079061D01*
X0323391Y0079253D01*
X0323437Y0079444D01*
X0323487Y0079634D01*
X0323541Y0079822D01*
X0323601Y0080009D01*
X0323665Y0080195D01*
X0323733Y0080379D01*
X0323806Y0080561D01*
X0323883Y0080742D01*
X0323965Y0080920D01*
X0324051Y0081097D01*
X0324142Y0081271D01*
X0324236Y0081443D01*
X0324335Y0081613D01*
X0324438Y0081780D01*
X0324545Y0081945D01*
X0324656Y0082106D01*
X0324771Y0082266D01*
X0324890Y0082422D01*
X0325013Y0082575D01*
X0325139Y0082725D01*
X0325269Y0082872D01*
X0325403Y0083016D01*
X0325540Y0083157D01*
X0325681Y0083294D01*
X0325825Y0083428D01*
X0325972Y0083558D01*
X0326122Y0083684D01*
X0326275Y0083807D01*
X0326431Y0083926D01*
X0326591Y0084041D01*
X0326752Y0084152D01*
X0326917Y0084259D01*
X0327084Y0084362D01*
X0327254Y0084461D01*
X0327426Y0084555D01*
X0327600Y0084646D01*
X0327777Y0084732D01*
X0327955Y0084814D01*
X0328136Y0084891D01*
X0328318Y0084964D01*
X0328502Y0085032D01*
X0328688Y0085096D01*
X0328875Y0085156D01*
X0329063Y0085210D01*
X0329253Y0085260D01*
X0329444Y0085306D01*
X0329636Y0085346D01*
X0329829Y0085382D01*
X0330023Y0085413D01*
X0330218Y0085440D01*
X0330413Y0085461D01*
X0330608Y0085478D01*
X0330804Y0085490D01*
X0331001Y0085498D01*
X0331197Y0085500D01*
X0331393Y0085498D01*
X0331590Y0085490D01*
X0331786Y0085478D01*
X0331981Y0085461D01*
X0332176Y0085440D01*
X0332371Y0085413D01*
X0332565Y0085382D01*
X0332758Y0085346D01*
X0332950Y0085306D01*
X0333141Y0085260D01*
X0333331Y0085210D01*
X0333519Y0085156D01*
X0333706Y0085096D01*
X0333892Y0085032D01*
X0334076Y0084964D01*
X0334258Y0084891D01*
X0334439Y0084814D01*
X0334617Y0084732D01*
X0334794Y0084646D01*
X0334968Y0084555D01*
X0335140Y0084461D01*
X0335310Y0084362D01*
X0335477Y0084259D01*
X0335642Y0084152D01*
X0335803Y0084041D01*
X0335963Y0083926D01*
X0336119Y0083807D01*
X0336272Y0083684D01*
X0336422Y0083558D01*
X0336569Y0083428D01*
X0336713Y0083294D01*
X0336854Y0083157D01*
X0336991Y0083016D01*
X0337125Y0082872D01*
X0337255Y0082725D01*
X0337381Y0082575D01*
X0337504Y0082422D01*
X0337623Y0082266D01*
X0337738Y0082106D01*
X0337849Y0081945D01*
X0337956Y0081780D01*
X0338059Y0081613D01*
X0338158Y0081443D01*
X0338252Y0081271D01*
X0338343Y0081097D01*
X0338429Y0080920D01*
X0338511Y0080742D01*
X0338588Y0080561D01*
X0338661Y0080379D01*
X0338729Y0080195D01*
X0338793Y0080009D01*
X0338853Y0079822D01*
X0338907Y0079634D01*
X0338957Y0079444D01*
X0339003Y0079253D01*
X0339043Y0079061D01*
X0339079Y0078868D01*
X0339110Y0078674D01*
X0339137Y0078479D01*
X0339158Y0078284D01*
X0339175Y0078089D01*
X0339187Y0077893D01*
X0339195Y0077696D01*
X0339197Y0077500D01*
X0339195Y0077304D01*
X0339187Y0077107D01*
X0339175Y0076911D01*
X0339158Y0076716D01*
X0339137Y0076521D01*
X0339110Y0076326D01*
X0339079Y0076132D01*
X0339043Y0075939D01*
X0339003Y0075747D01*
X0338957Y0075556D01*
X0338907Y0075366D01*
X0338853Y0075178D01*
X0338793Y0074991D01*
X0338729Y0074805D01*
X0338661Y0074621D01*
X0338588Y0074439D01*
X0338511Y0074258D01*
X0338429Y0074080D01*
X0338343Y0073903D01*
X0338252Y0073729D01*
X0338158Y0073557D01*
X0338059Y0073387D01*
X0337956Y0073220D01*
X0337849Y0073055D01*
X0337738Y0072894D01*
X0337623Y0072734D01*
X0337504Y0072578D01*
X0337381Y0072425D01*
X0337255Y0072275D01*
X0337125Y0072128D01*
X0336991Y0071984D01*
X0336854Y0071843D01*
X0336713Y0071706D01*
X0336569Y0071572D01*
X0336422Y0071442D01*
X0336272Y0071316D01*
X0336119Y0071193D01*
X0335963Y0071074D01*
X0335803Y0070959D01*
X0335642Y0070848D01*
X0335477Y0070741D01*
X0335310Y0070638D01*
X0335140Y0070539D01*
X0334968Y0070445D01*
X0334794Y0070354D01*
X0334617Y0070268D01*
X0334439Y0070186D01*
X0334258Y0070109D01*
X0334076Y0070036D01*
X0333892Y0069968D01*
X0333706Y0069904D01*
X0333519Y0069844D01*
X0333331Y0069790D01*
X0333141Y0069740D01*
X0332950Y0069694D01*
X0332758Y0069654D01*
X0332565Y0069618D01*
X0332371Y0069587D01*
X0332176Y0069560D01*
X0331981Y0069539D01*
X0331786Y0069522D01*
X0331590Y0069510D01*
X0331393Y0069502D01*
X0331197Y0069500D01*
X0331001Y0069502D01*
X0330804Y0069510D01*
X0330608Y0069522D01*
X0330413Y0069539D01*
X0330218Y0069560D01*
X0330023Y0069587D01*
X0329829Y0069618D01*
X0329636Y0069654D01*
X0329444Y0069694D01*
X0329253Y0069740D01*
X0329063Y0069790D01*
X0328875Y0069844D01*
X0328688Y0069904D01*
X0328502Y0069968D01*
X0328318Y0070036D01*
X0328136Y0070109D01*
X0327955Y0070186D01*
X0327777Y0070268D01*
X0327600Y0070354D01*
X0327426Y0070445D01*
X0327254Y0070539D01*
X0327084Y0070638D01*
X0326917Y0070741D01*
X0326752Y0070848D01*
X0326591Y0070959D01*
X0326431Y0071074D01*
X0326275Y0071193D01*
X0326122Y0071316D01*
X0325972Y0071442D01*
X0325825Y0071572D01*
X0325681Y0071706D01*
X0325540Y0071843D01*
X0325403Y0071984D01*
X0325269Y0072128D01*
X0325139Y0072275D01*
X0325013Y0072425D01*
X0324890Y0072578D01*
X0324771Y0072734D01*
X0324656Y0072894D01*
X0324545Y0073055D01*
X0324438Y0073220D01*
X0324335Y0073387D01*
X0324236Y0073557D01*
X0324142Y0073729D01*
X0324051Y0073903D01*
X0323965Y0074080D01*
X0323883Y0074258D01*
X0323806Y0074439D01*
X0323733Y0074621D01*
X0323665Y0074805D01*
X0323601Y0074991D01*
X0323541Y0075178D01*
X0323487Y0075366D01*
X0323437Y0075556D01*
X0323391Y0075747D01*
X0323351Y0075939D01*
X0323315Y0076132D01*
X0323284Y0076326D01*
X0323257Y0076521D01*
X0323236Y0076716D01*
X0323219Y0076911D01*
X0323207Y0077107D01*
X0323199Y0077304D01*
X0323197Y0077500D01*
X0356854Y0139949D02*
X0356858Y0140268D01*
X0356870Y0140587D01*
X0356889Y0140905D01*
X0356917Y0141223D01*
X0356952Y0141540D01*
X0356995Y0141856D01*
X0357045Y0142172D01*
X0357104Y0142485D01*
X0357170Y0142797D01*
X0357244Y0143108D01*
X0357325Y0143416D01*
X0357414Y0143723D01*
X0357510Y0144027D01*
X0357614Y0144329D01*
X0357725Y0144628D01*
X0357844Y0144924D01*
X0357969Y0145217D01*
X0358102Y0145507D01*
X0358242Y0145794D01*
X0358389Y0146077D01*
X0358543Y0146357D01*
X0358704Y0146632D01*
X0358871Y0146904D01*
X0359045Y0147171D01*
X0359225Y0147435D01*
X0359412Y0147693D01*
X0359605Y0147947D01*
X0359805Y0148196D01*
X0360010Y0148440D01*
X0360222Y0148679D01*
X0360439Y0148913D01*
X0360662Y0149141D01*
X0360890Y0149364D01*
X0361124Y0149581D01*
X0361363Y0149793D01*
X0361607Y0149998D01*
X0361856Y0150198D01*
X0362110Y0150391D01*
X0362368Y0150578D01*
X0362632Y0150758D01*
X0362899Y0150932D01*
X0363171Y0151099D01*
X0363446Y0151260D01*
X0363726Y0151414D01*
X0364009Y0151561D01*
X0364296Y0151701D01*
X0364586Y0151834D01*
X0364879Y0151959D01*
X0365175Y0152078D01*
X0365474Y0152189D01*
X0365776Y0152293D01*
X0366080Y0152389D01*
X0366387Y0152478D01*
X0366695Y0152559D01*
X0367006Y0152633D01*
X0367318Y0152699D01*
X0367631Y0152758D01*
X0367947Y0152808D01*
X0368263Y0152851D01*
X0368580Y0152886D01*
X0368898Y0152914D01*
X0369216Y0152933D01*
X0369535Y0152945D01*
X0369854Y0152949D01*
X0370173Y0152945D01*
X0370492Y0152933D01*
X0370810Y0152914D01*
X0371128Y0152886D01*
X0371445Y0152851D01*
X0371761Y0152808D01*
X0372077Y0152758D01*
X0372390Y0152699D01*
X0372702Y0152633D01*
X0373013Y0152559D01*
X0373321Y0152478D01*
X0373628Y0152389D01*
X0373932Y0152293D01*
X0374234Y0152189D01*
X0374533Y0152078D01*
X0374829Y0151959D01*
X0375122Y0151834D01*
X0375412Y0151701D01*
X0375699Y0151561D01*
X0375982Y0151414D01*
X0376262Y0151260D01*
X0376537Y0151099D01*
X0376809Y0150932D01*
X0377076Y0150758D01*
X0377340Y0150578D01*
X0377598Y0150391D01*
X0377852Y0150198D01*
X0378101Y0149998D01*
X0378345Y0149793D01*
X0378584Y0149581D01*
X0378818Y0149364D01*
X0379046Y0149141D01*
X0379269Y0148913D01*
X0379486Y0148679D01*
X0379698Y0148440D01*
X0379903Y0148196D01*
X0380103Y0147947D01*
X0380296Y0147693D01*
X0380483Y0147435D01*
X0380663Y0147171D01*
X0380837Y0146904D01*
X0381004Y0146632D01*
X0381165Y0146357D01*
X0381319Y0146077D01*
X0381466Y0145794D01*
X0381606Y0145507D01*
X0381739Y0145217D01*
X0381864Y0144924D01*
X0381983Y0144628D01*
X0382094Y0144329D01*
X0382198Y0144027D01*
X0382294Y0143723D01*
X0382383Y0143416D01*
X0382464Y0143108D01*
X0382538Y0142797D01*
X0382604Y0142485D01*
X0382663Y0142172D01*
X0382713Y0141856D01*
X0382756Y0141540D01*
X0382791Y0141223D01*
X0382819Y0140905D01*
X0382838Y0140587D01*
X0382850Y0140268D01*
X0382854Y0139949D01*
X0382850Y0139630D01*
X0382838Y0139311D01*
X0382819Y0138993D01*
X0382791Y0138675D01*
X0382756Y0138358D01*
X0382713Y0138042D01*
X0382663Y0137726D01*
X0382604Y0137413D01*
X0382538Y0137101D01*
X0382464Y0136790D01*
X0382383Y0136482D01*
X0382294Y0136175D01*
X0382198Y0135871D01*
X0382094Y0135569D01*
X0381983Y0135270D01*
X0381864Y0134974D01*
X0381739Y0134681D01*
X0381606Y0134391D01*
X0381466Y0134104D01*
X0381319Y0133821D01*
X0381165Y0133541D01*
X0381004Y0133266D01*
X0380837Y0132994D01*
X0380663Y0132727D01*
X0380483Y0132463D01*
X0380296Y0132205D01*
X0380103Y0131951D01*
X0379903Y0131702D01*
X0379698Y0131458D01*
X0379486Y0131219D01*
X0379269Y0130985D01*
X0379046Y0130757D01*
X0378818Y0130534D01*
X0378584Y0130317D01*
X0378345Y0130105D01*
X0378101Y0129900D01*
X0377852Y0129700D01*
X0377598Y0129507D01*
X0377340Y0129320D01*
X0377076Y0129140D01*
X0376809Y0128966D01*
X0376537Y0128799D01*
X0376262Y0128638D01*
X0375982Y0128484D01*
X0375699Y0128337D01*
X0375412Y0128197D01*
X0375122Y0128064D01*
X0374829Y0127939D01*
X0374533Y0127820D01*
X0374234Y0127709D01*
X0373932Y0127605D01*
X0373628Y0127509D01*
X0373321Y0127420D01*
X0373013Y0127339D01*
X0372702Y0127265D01*
X0372390Y0127199D01*
X0372077Y0127140D01*
X0371761Y0127090D01*
X0371445Y0127047D01*
X0371128Y0127012D01*
X0370810Y0126984D01*
X0370492Y0126965D01*
X0370173Y0126953D01*
X0369854Y0126949D01*
X0369535Y0126953D01*
X0369216Y0126965D01*
X0368898Y0126984D01*
X0368580Y0127012D01*
X0368263Y0127047D01*
X0367947Y0127090D01*
X0367631Y0127140D01*
X0367318Y0127199D01*
X0367006Y0127265D01*
X0366695Y0127339D01*
X0366387Y0127420D01*
X0366080Y0127509D01*
X0365776Y0127605D01*
X0365474Y0127709D01*
X0365175Y0127820D01*
X0364879Y0127939D01*
X0364586Y0128064D01*
X0364296Y0128197D01*
X0364009Y0128337D01*
X0363726Y0128484D01*
X0363446Y0128638D01*
X0363171Y0128799D01*
X0362899Y0128966D01*
X0362632Y0129140D01*
X0362368Y0129320D01*
X0362110Y0129507D01*
X0361856Y0129700D01*
X0361607Y0129900D01*
X0361363Y0130105D01*
X0361124Y0130317D01*
X0360890Y0130534D01*
X0360662Y0130757D01*
X0360439Y0130985D01*
X0360222Y0131219D01*
X0360010Y0131458D01*
X0359805Y0131702D01*
X0359605Y0131951D01*
X0359412Y0132205D01*
X0359225Y0132463D01*
X0359045Y0132727D01*
X0358871Y0132994D01*
X0358704Y0133266D01*
X0358543Y0133541D01*
X0358389Y0133821D01*
X0358242Y0134104D01*
X0358102Y0134391D01*
X0357969Y0134681D01*
X0357844Y0134974D01*
X0357725Y0135270D01*
X0357614Y0135569D01*
X0357510Y0135871D01*
X0357414Y0136175D01*
X0357325Y0136482D01*
X0357244Y0136790D01*
X0357170Y0137101D01*
X0357104Y0137413D01*
X0357045Y0137726D01*
X0356995Y0138042D01*
X0356952Y0138358D01*
X0356917Y0138675D01*
X0356889Y0138993D01*
X0356870Y0139311D01*
X0356858Y0139630D01*
X0356854Y0139949D01*
M02*
