G75*
%MOIN*%
%OFA0B0*%
%FSLAX25Y25*%
%IPPOS*%
%LPD*%
%AMOC8*
5,1,8,0,0,1.08239X$1,22.5*
%
%ADD10R,0.06299X0.07087*%
%ADD11R,0.05000X0.40000*%
%ADD12C,0.00000*%
%ADD13C,0.07000*%
%ADD14OC8,0.07000*%
%ADD15C,0.06496*%
%ADD16C,0.06600*%
%ADD17C,0.02578*%
%ADD18C,0.01200*%
%ADD19C,0.02184*%
%ADD20C,0.00600*%
%ADD21C,0.03169*%
%ADD22C,0.00800*%
D10*
X0220728Y0210000D03*
X0231752Y0210000D03*
X0330728Y0145000D03*
X0341752Y0145000D03*
D11*
X0341240Y0030000D03*
X0331240Y0030000D03*
X0321240Y0030000D03*
X0311240Y0030000D03*
X0301240Y0030000D03*
X0291240Y0030000D03*
X0281240Y0030000D03*
X0271240Y0030000D03*
X0261240Y0030000D03*
X0251240Y0030000D03*
X0241240Y0030000D03*
X0231240Y0030000D03*
X0221240Y0030000D03*
X0211240Y0030000D03*
X0201240Y0030000D03*
X0191240Y0030000D03*
X0181240Y0030000D03*
X0171240Y0030000D03*
X0161240Y0030000D03*
X0151240Y0030000D03*
X0141240Y0030000D03*
X0131240Y0030000D03*
X0121240Y0030000D03*
X0111240Y0030000D03*
X0101240Y0030000D03*
D12*
X0093740Y0050000D02*
X0043740Y0050000D01*
X0043740Y0100000D01*
X0002165Y0100000D01*
X0002165Y0263157D01*
X0399803Y0263157D01*
X0399803Y0050000D01*
X0348740Y0050000D01*
X0348740Y0008750D01*
X0093740Y0008750D01*
X0093740Y0050000D01*
X0102453Y0096398D02*
X0102455Y0096594D01*
X0102463Y0096791D01*
X0102475Y0096987D01*
X0102492Y0097182D01*
X0102513Y0097377D01*
X0102540Y0097572D01*
X0102571Y0097766D01*
X0102607Y0097959D01*
X0102647Y0098151D01*
X0102693Y0098342D01*
X0102743Y0098532D01*
X0102797Y0098720D01*
X0102857Y0098907D01*
X0102921Y0099093D01*
X0102989Y0099277D01*
X0103062Y0099459D01*
X0103139Y0099640D01*
X0103221Y0099818D01*
X0103307Y0099995D01*
X0103398Y0100169D01*
X0103492Y0100341D01*
X0103591Y0100511D01*
X0103694Y0100678D01*
X0103801Y0100843D01*
X0103912Y0101004D01*
X0104027Y0101164D01*
X0104146Y0101320D01*
X0104269Y0101473D01*
X0104395Y0101623D01*
X0104525Y0101770D01*
X0104659Y0101914D01*
X0104796Y0102055D01*
X0104937Y0102192D01*
X0105081Y0102326D01*
X0105228Y0102456D01*
X0105378Y0102582D01*
X0105531Y0102705D01*
X0105687Y0102824D01*
X0105847Y0102939D01*
X0106008Y0103050D01*
X0106173Y0103157D01*
X0106340Y0103260D01*
X0106510Y0103359D01*
X0106682Y0103453D01*
X0106856Y0103544D01*
X0107033Y0103630D01*
X0107211Y0103712D01*
X0107392Y0103789D01*
X0107574Y0103862D01*
X0107758Y0103930D01*
X0107944Y0103994D01*
X0108131Y0104054D01*
X0108319Y0104108D01*
X0108509Y0104158D01*
X0108700Y0104204D01*
X0108892Y0104244D01*
X0109085Y0104280D01*
X0109279Y0104311D01*
X0109474Y0104338D01*
X0109669Y0104359D01*
X0109864Y0104376D01*
X0110060Y0104388D01*
X0110257Y0104396D01*
X0110453Y0104398D01*
X0110649Y0104396D01*
X0110846Y0104388D01*
X0111042Y0104376D01*
X0111237Y0104359D01*
X0111432Y0104338D01*
X0111627Y0104311D01*
X0111821Y0104280D01*
X0112014Y0104244D01*
X0112206Y0104204D01*
X0112397Y0104158D01*
X0112587Y0104108D01*
X0112775Y0104054D01*
X0112962Y0103994D01*
X0113148Y0103930D01*
X0113332Y0103862D01*
X0113514Y0103789D01*
X0113695Y0103712D01*
X0113873Y0103630D01*
X0114050Y0103544D01*
X0114224Y0103453D01*
X0114396Y0103359D01*
X0114566Y0103260D01*
X0114733Y0103157D01*
X0114898Y0103050D01*
X0115059Y0102939D01*
X0115219Y0102824D01*
X0115375Y0102705D01*
X0115528Y0102582D01*
X0115678Y0102456D01*
X0115825Y0102326D01*
X0115969Y0102192D01*
X0116110Y0102055D01*
X0116247Y0101914D01*
X0116381Y0101770D01*
X0116511Y0101623D01*
X0116637Y0101473D01*
X0116760Y0101320D01*
X0116879Y0101164D01*
X0116994Y0101004D01*
X0117105Y0100843D01*
X0117212Y0100678D01*
X0117315Y0100511D01*
X0117414Y0100341D01*
X0117508Y0100169D01*
X0117599Y0099995D01*
X0117685Y0099818D01*
X0117767Y0099640D01*
X0117844Y0099459D01*
X0117917Y0099277D01*
X0117985Y0099093D01*
X0118049Y0098907D01*
X0118109Y0098720D01*
X0118163Y0098532D01*
X0118213Y0098342D01*
X0118259Y0098151D01*
X0118299Y0097959D01*
X0118335Y0097766D01*
X0118366Y0097572D01*
X0118393Y0097377D01*
X0118414Y0097182D01*
X0118431Y0096987D01*
X0118443Y0096791D01*
X0118451Y0096594D01*
X0118453Y0096398D01*
X0118451Y0096202D01*
X0118443Y0096005D01*
X0118431Y0095809D01*
X0118414Y0095614D01*
X0118393Y0095419D01*
X0118366Y0095224D01*
X0118335Y0095030D01*
X0118299Y0094837D01*
X0118259Y0094645D01*
X0118213Y0094454D01*
X0118163Y0094264D01*
X0118109Y0094076D01*
X0118049Y0093889D01*
X0117985Y0093703D01*
X0117917Y0093519D01*
X0117844Y0093337D01*
X0117767Y0093156D01*
X0117685Y0092978D01*
X0117599Y0092801D01*
X0117508Y0092627D01*
X0117414Y0092455D01*
X0117315Y0092285D01*
X0117212Y0092118D01*
X0117105Y0091953D01*
X0116994Y0091792D01*
X0116879Y0091632D01*
X0116760Y0091476D01*
X0116637Y0091323D01*
X0116511Y0091173D01*
X0116381Y0091026D01*
X0116247Y0090882D01*
X0116110Y0090741D01*
X0115969Y0090604D01*
X0115825Y0090470D01*
X0115678Y0090340D01*
X0115528Y0090214D01*
X0115375Y0090091D01*
X0115219Y0089972D01*
X0115059Y0089857D01*
X0114898Y0089746D01*
X0114733Y0089639D01*
X0114566Y0089536D01*
X0114396Y0089437D01*
X0114224Y0089343D01*
X0114050Y0089252D01*
X0113873Y0089166D01*
X0113695Y0089084D01*
X0113514Y0089007D01*
X0113332Y0088934D01*
X0113148Y0088866D01*
X0112962Y0088802D01*
X0112775Y0088742D01*
X0112587Y0088688D01*
X0112397Y0088638D01*
X0112206Y0088592D01*
X0112014Y0088552D01*
X0111821Y0088516D01*
X0111627Y0088485D01*
X0111432Y0088458D01*
X0111237Y0088437D01*
X0111042Y0088420D01*
X0110846Y0088408D01*
X0110649Y0088400D01*
X0110453Y0088398D01*
X0110257Y0088400D01*
X0110060Y0088408D01*
X0109864Y0088420D01*
X0109669Y0088437D01*
X0109474Y0088458D01*
X0109279Y0088485D01*
X0109085Y0088516D01*
X0108892Y0088552D01*
X0108700Y0088592D01*
X0108509Y0088638D01*
X0108319Y0088688D01*
X0108131Y0088742D01*
X0107944Y0088802D01*
X0107758Y0088866D01*
X0107574Y0088934D01*
X0107392Y0089007D01*
X0107211Y0089084D01*
X0107033Y0089166D01*
X0106856Y0089252D01*
X0106682Y0089343D01*
X0106510Y0089437D01*
X0106340Y0089536D01*
X0106173Y0089639D01*
X0106008Y0089746D01*
X0105847Y0089857D01*
X0105687Y0089972D01*
X0105531Y0090091D01*
X0105378Y0090214D01*
X0105228Y0090340D01*
X0105081Y0090470D01*
X0104937Y0090604D01*
X0104796Y0090741D01*
X0104659Y0090882D01*
X0104525Y0091026D01*
X0104395Y0091173D01*
X0104269Y0091323D01*
X0104146Y0091476D01*
X0104027Y0091632D01*
X0103912Y0091792D01*
X0103801Y0091953D01*
X0103694Y0092118D01*
X0103591Y0092285D01*
X0103492Y0092455D01*
X0103398Y0092627D01*
X0103307Y0092801D01*
X0103221Y0092978D01*
X0103139Y0093156D01*
X0103062Y0093337D01*
X0102989Y0093519D01*
X0102921Y0093703D01*
X0102857Y0093889D01*
X0102797Y0094076D01*
X0102743Y0094264D01*
X0102693Y0094454D01*
X0102647Y0094645D01*
X0102607Y0094837D01*
X0102571Y0095030D01*
X0102540Y0095224D01*
X0102513Y0095419D01*
X0102492Y0095614D01*
X0102475Y0095809D01*
X0102463Y0096005D01*
X0102455Y0096202D01*
X0102453Y0096398D01*
X0019819Y0138886D02*
X0019823Y0139205D01*
X0019835Y0139524D01*
X0019854Y0139842D01*
X0019882Y0140160D01*
X0019917Y0140477D01*
X0019960Y0140793D01*
X0020010Y0141109D01*
X0020069Y0141422D01*
X0020135Y0141734D01*
X0020209Y0142045D01*
X0020290Y0142353D01*
X0020379Y0142660D01*
X0020475Y0142964D01*
X0020579Y0143266D01*
X0020690Y0143565D01*
X0020809Y0143861D01*
X0020934Y0144154D01*
X0021067Y0144444D01*
X0021207Y0144731D01*
X0021354Y0145014D01*
X0021508Y0145294D01*
X0021669Y0145569D01*
X0021836Y0145841D01*
X0022010Y0146108D01*
X0022190Y0146372D01*
X0022377Y0146630D01*
X0022570Y0146884D01*
X0022770Y0147133D01*
X0022975Y0147377D01*
X0023187Y0147616D01*
X0023404Y0147850D01*
X0023627Y0148078D01*
X0023855Y0148301D01*
X0024089Y0148518D01*
X0024328Y0148730D01*
X0024572Y0148935D01*
X0024821Y0149135D01*
X0025075Y0149328D01*
X0025333Y0149515D01*
X0025597Y0149695D01*
X0025864Y0149869D01*
X0026136Y0150036D01*
X0026411Y0150197D01*
X0026691Y0150351D01*
X0026974Y0150498D01*
X0027261Y0150638D01*
X0027551Y0150771D01*
X0027844Y0150896D01*
X0028140Y0151015D01*
X0028439Y0151126D01*
X0028741Y0151230D01*
X0029045Y0151326D01*
X0029352Y0151415D01*
X0029660Y0151496D01*
X0029971Y0151570D01*
X0030283Y0151636D01*
X0030596Y0151695D01*
X0030912Y0151745D01*
X0031228Y0151788D01*
X0031545Y0151823D01*
X0031863Y0151851D01*
X0032181Y0151870D01*
X0032500Y0151882D01*
X0032819Y0151886D01*
X0033138Y0151882D01*
X0033457Y0151870D01*
X0033775Y0151851D01*
X0034093Y0151823D01*
X0034410Y0151788D01*
X0034726Y0151745D01*
X0035042Y0151695D01*
X0035355Y0151636D01*
X0035667Y0151570D01*
X0035978Y0151496D01*
X0036286Y0151415D01*
X0036593Y0151326D01*
X0036897Y0151230D01*
X0037199Y0151126D01*
X0037498Y0151015D01*
X0037794Y0150896D01*
X0038087Y0150771D01*
X0038377Y0150638D01*
X0038664Y0150498D01*
X0038947Y0150351D01*
X0039227Y0150197D01*
X0039502Y0150036D01*
X0039774Y0149869D01*
X0040041Y0149695D01*
X0040305Y0149515D01*
X0040563Y0149328D01*
X0040817Y0149135D01*
X0041066Y0148935D01*
X0041310Y0148730D01*
X0041549Y0148518D01*
X0041783Y0148301D01*
X0042011Y0148078D01*
X0042234Y0147850D01*
X0042451Y0147616D01*
X0042663Y0147377D01*
X0042868Y0147133D01*
X0043068Y0146884D01*
X0043261Y0146630D01*
X0043448Y0146372D01*
X0043628Y0146108D01*
X0043802Y0145841D01*
X0043969Y0145569D01*
X0044130Y0145294D01*
X0044284Y0145014D01*
X0044431Y0144731D01*
X0044571Y0144444D01*
X0044704Y0144154D01*
X0044829Y0143861D01*
X0044948Y0143565D01*
X0045059Y0143266D01*
X0045163Y0142964D01*
X0045259Y0142660D01*
X0045348Y0142353D01*
X0045429Y0142045D01*
X0045503Y0141734D01*
X0045569Y0141422D01*
X0045628Y0141109D01*
X0045678Y0140793D01*
X0045721Y0140477D01*
X0045756Y0140160D01*
X0045784Y0139842D01*
X0045803Y0139524D01*
X0045815Y0139205D01*
X0045819Y0138886D01*
X0045815Y0138567D01*
X0045803Y0138248D01*
X0045784Y0137930D01*
X0045756Y0137612D01*
X0045721Y0137295D01*
X0045678Y0136979D01*
X0045628Y0136663D01*
X0045569Y0136350D01*
X0045503Y0136038D01*
X0045429Y0135727D01*
X0045348Y0135419D01*
X0045259Y0135112D01*
X0045163Y0134808D01*
X0045059Y0134506D01*
X0044948Y0134207D01*
X0044829Y0133911D01*
X0044704Y0133618D01*
X0044571Y0133328D01*
X0044431Y0133041D01*
X0044284Y0132758D01*
X0044130Y0132478D01*
X0043969Y0132203D01*
X0043802Y0131931D01*
X0043628Y0131664D01*
X0043448Y0131400D01*
X0043261Y0131142D01*
X0043068Y0130888D01*
X0042868Y0130639D01*
X0042663Y0130395D01*
X0042451Y0130156D01*
X0042234Y0129922D01*
X0042011Y0129694D01*
X0041783Y0129471D01*
X0041549Y0129254D01*
X0041310Y0129042D01*
X0041066Y0128837D01*
X0040817Y0128637D01*
X0040563Y0128444D01*
X0040305Y0128257D01*
X0040041Y0128077D01*
X0039774Y0127903D01*
X0039502Y0127736D01*
X0039227Y0127575D01*
X0038947Y0127421D01*
X0038664Y0127274D01*
X0038377Y0127134D01*
X0038087Y0127001D01*
X0037794Y0126876D01*
X0037498Y0126757D01*
X0037199Y0126646D01*
X0036897Y0126542D01*
X0036593Y0126446D01*
X0036286Y0126357D01*
X0035978Y0126276D01*
X0035667Y0126202D01*
X0035355Y0126136D01*
X0035042Y0126077D01*
X0034726Y0126027D01*
X0034410Y0125984D01*
X0034093Y0125949D01*
X0033775Y0125921D01*
X0033457Y0125902D01*
X0033138Y0125890D01*
X0032819Y0125886D01*
X0032500Y0125890D01*
X0032181Y0125902D01*
X0031863Y0125921D01*
X0031545Y0125949D01*
X0031228Y0125984D01*
X0030912Y0126027D01*
X0030596Y0126077D01*
X0030283Y0126136D01*
X0029971Y0126202D01*
X0029660Y0126276D01*
X0029352Y0126357D01*
X0029045Y0126446D01*
X0028741Y0126542D01*
X0028439Y0126646D01*
X0028140Y0126757D01*
X0027844Y0126876D01*
X0027551Y0127001D01*
X0027261Y0127134D01*
X0026974Y0127274D01*
X0026691Y0127421D01*
X0026411Y0127575D01*
X0026136Y0127736D01*
X0025864Y0127903D01*
X0025597Y0128077D01*
X0025333Y0128257D01*
X0025075Y0128444D01*
X0024821Y0128637D01*
X0024572Y0128837D01*
X0024328Y0129042D01*
X0024089Y0129254D01*
X0023855Y0129471D01*
X0023627Y0129694D01*
X0023404Y0129922D01*
X0023187Y0130156D01*
X0022975Y0130395D01*
X0022770Y0130639D01*
X0022570Y0130888D01*
X0022377Y0131142D01*
X0022190Y0131400D01*
X0022010Y0131664D01*
X0021836Y0131931D01*
X0021669Y0132203D01*
X0021508Y0132478D01*
X0021354Y0132758D01*
X0021207Y0133041D01*
X0021067Y0133328D01*
X0020934Y0133618D01*
X0020809Y0133911D01*
X0020690Y0134207D01*
X0020579Y0134506D01*
X0020475Y0134808D01*
X0020379Y0135112D01*
X0020290Y0135419D01*
X0020209Y0135727D01*
X0020135Y0136038D01*
X0020069Y0136350D01*
X0020010Y0136663D01*
X0019960Y0136979D01*
X0019917Y0137295D01*
X0019882Y0137612D01*
X0019854Y0137930D01*
X0019835Y0138248D01*
X0019823Y0138567D01*
X0019819Y0138886D01*
X0323197Y0077500D02*
X0323199Y0077696D01*
X0323207Y0077893D01*
X0323219Y0078089D01*
X0323236Y0078284D01*
X0323257Y0078479D01*
X0323284Y0078674D01*
X0323315Y0078868D01*
X0323351Y0079061D01*
X0323391Y0079253D01*
X0323437Y0079444D01*
X0323487Y0079634D01*
X0323541Y0079822D01*
X0323601Y0080009D01*
X0323665Y0080195D01*
X0323733Y0080379D01*
X0323806Y0080561D01*
X0323883Y0080742D01*
X0323965Y0080920D01*
X0324051Y0081097D01*
X0324142Y0081271D01*
X0324236Y0081443D01*
X0324335Y0081613D01*
X0324438Y0081780D01*
X0324545Y0081945D01*
X0324656Y0082106D01*
X0324771Y0082266D01*
X0324890Y0082422D01*
X0325013Y0082575D01*
X0325139Y0082725D01*
X0325269Y0082872D01*
X0325403Y0083016D01*
X0325540Y0083157D01*
X0325681Y0083294D01*
X0325825Y0083428D01*
X0325972Y0083558D01*
X0326122Y0083684D01*
X0326275Y0083807D01*
X0326431Y0083926D01*
X0326591Y0084041D01*
X0326752Y0084152D01*
X0326917Y0084259D01*
X0327084Y0084362D01*
X0327254Y0084461D01*
X0327426Y0084555D01*
X0327600Y0084646D01*
X0327777Y0084732D01*
X0327955Y0084814D01*
X0328136Y0084891D01*
X0328318Y0084964D01*
X0328502Y0085032D01*
X0328688Y0085096D01*
X0328875Y0085156D01*
X0329063Y0085210D01*
X0329253Y0085260D01*
X0329444Y0085306D01*
X0329636Y0085346D01*
X0329829Y0085382D01*
X0330023Y0085413D01*
X0330218Y0085440D01*
X0330413Y0085461D01*
X0330608Y0085478D01*
X0330804Y0085490D01*
X0331001Y0085498D01*
X0331197Y0085500D01*
X0331393Y0085498D01*
X0331590Y0085490D01*
X0331786Y0085478D01*
X0331981Y0085461D01*
X0332176Y0085440D01*
X0332371Y0085413D01*
X0332565Y0085382D01*
X0332758Y0085346D01*
X0332950Y0085306D01*
X0333141Y0085260D01*
X0333331Y0085210D01*
X0333519Y0085156D01*
X0333706Y0085096D01*
X0333892Y0085032D01*
X0334076Y0084964D01*
X0334258Y0084891D01*
X0334439Y0084814D01*
X0334617Y0084732D01*
X0334794Y0084646D01*
X0334968Y0084555D01*
X0335140Y0084461D01*
X0335310Y0084362D01*
X0335477Y0084259D01*
X0335642Y0084152D01*
X0335803Y0084041D01*
X0335963Y0083926D01*
X0336119Y0083807D01*
X0336272Y0083684D01*
X0336422Y0083558D01*
X0336569Y0083428D01*
X0336713Y0083294D01*
X0336854Y0083157D01*
X0336991Y0083016D01*
X0337125Y0082872D01*
X0337255Y0082725D01*
X0337381Y0082575D01*
X0337504Y0082422D01*
X0337623Y0082266D01*
X0337738Y0082106D01*
X0337849Y0081945D01*
X0337956Y0081780D01*
X0338059Y0081613D01*
X0338158Y0081443D01*
X0338252Y0081271D01*
X0338343Y0081097D01*
X0338429Y0080920D01*
X0338511Y0080742D01*
X0338588Y0080561D01*
X0338661Y0080379D01*
X0338729Y0080195D01*
X0338793Y0080009D01*
X0338853Y0079822D01*
X0338907Y0079634D01*
X0338957Y0079444D01*
X0339003Y0079253D01*
X0339043Y0079061D01*
X0339079Y0078868D01*
X0339110Y0078674D01*
X0339137Y0078479D01*
X0339158Y0078284D01*
X0339175Y0078089D01*
X0339187Y0077893D01*
X0339195Y0077696D01*
X0339197Y0077500D01*
X0339195Y0077304D01*
X0339187Y0077107D01*
X0339175Y0076911D01*
X0339158Y0076716D01*
X0339137Y0076521D01*
X0339110Y0076326D01*
X0339079Y0076132D01*
X0339043Y0075939D01*
X0339003Y0075747D01*
X0338957Y0075556D01*
X0338907Y0075366D01*
X0338853Y0075178D01*
X0338793Y0074991D01*
X0338729Y0074805D01*
X0338661Y0074621D01*
X0338588Y0074439D01*
X0338511Y0074258D01*
X0338429Y0074080D01*
X0338343Y0073903D01*
X0338252Y0073729D01*
X0338158Y0073557D01*
X0338059Y0073387D01*
X0337956Y0073220D01*
X0337849Y0073055D01*
X0337738Y0072894D01*
X0337623Y0072734D01*
X0337504Y0072578D01*
X0337381Y0072425D01*
X0337255Y0072275D01*
X0337125Y0072128D01*
X0336991Y0071984D01*
X0336854Y0071843D01*
X0336713Y0071706D01*
X0336569Y0071572D01*
X0336422Y0071442D01*
X0336272Y0071316D01*
X0336119Y0071193D01*
X0335963Y0071074D01*
X0335803Y0070959D01*
X0335642Y0070848D01*
X0335477Y0070741D01*
X0335310Y0070638D01*
X0335140Y0070539D01*
X0334968Y0070445D01*
X0334794Y0070354D01*
X0334617Y0070268D01*
X0334439Y0070186D01*
X0334258Y0070109D01*
X0334076Y0070036D01*
X0333892Y0069968D01*
X0333706Y0069904D01*
X0333519Y0069844D01*
X0333331Y0069790D01*
X0333141Y0069740D01*
X0332950Y0069694D01*
X0332758Y0069654D01*
X0332565Y0069618D01*
X0332371Y0069587D01*
X0332176Y0069560D01*
X0331981Y0069539D01*
X0331786Y0069522D01*
X0331590Y0069510D01*
X0331393Y0069502D01*
X0331197Y0069500D01*
X0331001Y0069502D01*
X0330804Y0069510D01*
X0330608Y0069522D01*
X0330413Y0069539D01*
X0330218Y0069560D01*
X0330023Y0069587D01*
X0329829Y0069618D01*
X0329636Y0069654D01*
X0329444Y0069694D01*
X0329253Y0069740D01*
X0329063Y0069790D01*
X0328875Y0069844D01*
X0328688Y0069904D01*
X0328502Y0069968D01*
X0328318Y0070036D01*
X0328136Y0070109D01*
X0327955Y0070186D01*
X0327777Y0070268D01*
X0327600Y0070354D01*
X0327426Y0070445D01*
X0327254Y0070539D01*
X0327084Y0070638D01*
X0326917Y0070741D01*
X0326752Y0070848D01*
X0326591Y0070959D01*
X0326431Y0071074D01*
X0326275Y0071193D01*
X0326122Y0071316D01*
X0325972Y0071442D01*
X0325825Y0071572D01*
X0325681Y0071706D01*
X0325540Y0071843D01*
X0325403Y0071984D01*
X0325269Y0072128D01*
X0325139Y0072275D01*
X0325013Y0072425D01*
X0324890Y0072578D01*
X0324771Y0072734D01*
X0324656Y0072894D01*
X0324545Y0073055D01*
X0324438Y0073220D01*
X0324335Y0073387D01*
X0324236Y0073557D01*
X0324142Y0073729D01*
X0324051Y0073903D01*
X0323965Y0074080D01*
X0323883Y0074258D01*
X0323806Y0074439D01*
X0323733Y0074621D01*
X0323665Y0074805D01*
X0323601Y0074991D01*
X0323541Y0075178D01*
X0323487Y0075366D01*
X0323437Y0075556D01*
X0323391Y0075747D01*
X0323351Y0075939D01*
X0323315Y0076132D01*
X0323284Y0076326D01*
X0323257Y0076521D01*
X0323236Y0076716D01*
X0323219Y0076911D01*
X0323207Y0077107D01*
X0323199Y0077304D01*
X0323197Y0077500D01*
X0356854Y0139949D02*
X0356858Y0140268D01*
X0356870Y0140587D01*
X0356889Y0140905D01*
X0356917Y0141223D01*
X0356952Y0141540D01*
X0356995Y0141856D01*
X0357045Y0142172D01*
X0357104Y0142485D01*
X0357170Y0142797D01*
X0357244Y0143108D01*
X0357325Y0143416D01*
X0357414Y0143723D01*
X0357510Y0144027D01*
X0357614Y0144329D01*
X0357725Y0144628D01*
X0357844Y0144924D01*
X0357969Y0145217D01*
X0358102Y0145507D01*
X0358242Y0145794D01*
X0358389Y0146077D01*
X0358543Y0146357D01*
X0358704Y0146632D01*
X0358871Y0146904D01*
X0359045Y0147171D01*
X0359225Y0147435D01*
X0359412Y0147693D01*
X0359605Y0147947D01*
X0359805Y0148196D01*
X0360010Y0148440D01*
X0360222Y0148679D01*
X0360439Y0148913D01*
X0360662Y0149141D01*
X0360890Y0149364D01*
X0361124Y0149581D01*
X0361363Y0149793D01*
X0361607Y0149998D01*
X0361856Y0150198D01*
X0362110Y0150391D01*
X0362368Y0150578D01*
X0362632Y0150758D01*
X0362899Y0150932D01*
X0363171Y0151099D01*
X0363446Y0151260D01*
X0363726Y0151414D01*
X0364009Y0151561D01*
X0364296Y0151701D01*
X0364586Y0151834D01*
X0364879Y0151959D01*
X0365175Y0152078D01*
X0365474Y0152189D01*
X0365776Y0152293D01*
X0366080Y0152389D01*
X0366387Y0152478D01*
X0366695Y0152559D01*
X0367006Y0152633D01*
X0367318Y0152699D01*
X0367631Y0152758D01*
X0367947Y0152808D01*
X0368263Y0152851D01*
X0368580Y0152886D01*
X0368898Y0152914D01*
X0369216Y0152933D01*
X0369535Y0152945D01*
X0369854Y0152949D01*
X0370173Y0152945D01*
X0370492Y0152933D01*
X0370810Y0152914D01*
X0371128Y0152886D01*
X0371445Y0152851D01*
X0371761Y0152808D01*
X0372077Y0152758D01*
X0372390Y0152699D01*
X0372702Y0152633D01*
X0373013Y0152559D01*
X0373321Y0152478D01*
X0373628Y0152389D01*
X0373932Y0152293D01*
X0374234Y0152189D01*
X0374533Y0152078D01*
X0374829Y0151959D01*
X0375122Y0151834D01*
X0375412Y0151701D01*
X0375699Y0151561D01*
X0375982Y0151414D01*
X0376262Y0151260D01*
X0376537Y0151099D01*
X0376809Y0150932D01*
X0377076Y0150758D01*
X0377340Y0150578D01*
X0377598Y0150391D01*
X0377852Y0150198D01*
X0378101Y0149998D01*
X0378345Y0149793D01*
X0378584Y0149581D01*
X0378818Y0149364D01*
X0379046Y0149141D01*
X0379269Y0148913D01*
X0379486Y0148679D01*
X0379698Y0148440D01*
X0379903Y0148196D01*
X0380103Y0147947D01*
X0380296Y0147693D01*
X0380483Y0147435D01*
X0380663Y0147171D01*
X0380837Y0146904D01*
X0381004Y0146632D01*
X0381165Y0146357D01*
X0381319Y0146077D01*
X0381466Y0145794D01*
X0381606Y0145507D01*
X0381739Y0145217D01*
X0381864Y0144924D01*
X0381983Y0144628D01*
X0382094Y0144329D01*
X0382198Y0144027D01*
X0382294Y0143723D01*
X0382383Y0143416D01*
X0382464Y0143108D01*
X0382538Y0142797D01*
X0382604Y0142485D01*
X0382663Y0142172D01*
X0382713Y0141856D01*
X0382756Y0141540D01*
X0382791Y0141223D01*
X0382819Y0140905D01*
X0382838Y0140587D01*
X0382850Y0140268D01*
X0382854Y0139949D01*
X0382850Y0139630D01*
X0382838Y0139311D01*
X0382819Y0138993D01*
X0382791Y0138675D01*
X0382756Y0138358D01*
X0382713Y0138042D01*
X0382663Y0137726D01*
X0382604Y0137413D01*
X0382538Y0137101D01*
X0382464Y0136790D01*
X0382383Y0136482D01*
X0382294Y0136175D01*
X0382198Y0135871D01*
X0382094Y0135569D01*
X0381983Y0135270D01*
X0381864Y0134974D01*
X0381739Y0134681D01*
X0381606Y0134391D01*
X0381466Y0134104D01*
X0381319Y0133821D01*
X0381165Y0133541D01*
X0381004Y0133266D01*
X0380837Y0132994D01*
X0380663Y0132727D01*
X0380483Y0132463D01*
X0380296Y0132205D01*
X0380103Y0131951D01*
X0379903Y0131702D01*
X0379698Y0131458D01*
X0379486Y0131219D01*
X0379269Y0130985D01*
X0379046Y0130757D01*
X0378818Y0130534D01*
X0378584Y0130317D01*
X0378345Y0130105D01*
X0378101Y0129900D01*
X0377852Y0129700D01*
X0377598Y0129507D01*
X0377340Y0129320D01*
X0377076Y0129140D01*
X0376809Y0128966D01*
X0376537Y0128799D01*
X0376262Y0128638D01*
X0375982Y0128484D01*
X0375699Y0128337D01*
X0375412Y0128197D01*
X0375122Y0128064D01*
X0374829Y0127939D01*
X0374533Y0127820D01*
X0374234Y0127709D01*
X0373932Y0127605D01*
X0373628Y0127509D01*
X0373321Y0127420D01*
X0373013Y0127339D01*
X0372702Y0127265D01*
X0372390Y0127199D01*
X0372077Y0127140D01*
X0371761Y0127090D01*
X0371445Y0127047D01*
X0371128Y0127012D01*
X0370810Y0126984D01*
X0370492Y0126965D01*
X0370173Y0126953D01*
X0369854Y0126949D01*
X0369535Y0126953D01*
X0369216Y0126965D01*
X0368898Y0126984D01*
X0368580Y0127012D01*
X0368263Y0127047D01*
X0367947Y0127090D01*
X0367631Y0127140D01*
X0367318Y0127199D01*
X0367006Y0127265D01*
X0366695Y0127339D01*
X0366387Y0127420D01*
X0366080Y0127509D01*
X0365776Y0127605D01*
X0365474Y0127709D01*
X0365175Y0127820D01*
X0364879Y0127939D01*
X0364586Y0128064D01*
X0364296Y0128197D01*
X0364009Y0128337D01*
X0363726Y0128484D01*
X0363446Y0128638D01*
X0363171Y0128799D01*
X0362899Y0128966D01*
X0362632Y0129140D01*
X0362368Y0129320D01*
X0362110Y0129507D01*
X0361856Y0129700D01*
X0361607Y0129900D01*
X0361363Y0130105D01*
X0361124Y0130317D01*
X0360890Y0130534D01*
X0360662Y0130757D01*
X0360439Y0130985D01*
X0360222Y0131219D01*
X0360010Y0131458D01*
X0359805Y0131702D01*
X0359605Y0131951D01*
X0359412Y0132205D01*
X0359225Y0132463D01*
X0359045Y0132727D01*
X0358871Y0132994D01*
X0358704Y0133266D01*
X0358543Y0133541D01*
X0358389Y0133821D01*
X0358242Y0134104D01*
X0358102Y0134391D01*
X0357969Y0134681D01*
X0357844Y0134974D01*
X0357725Y0135270D01*
X0357614Y0135569D01*
X0357510Y0135871D01*
X0357414Y0136175D01*
X0357325Y0136482D01*
X0357244Y0136790D01*
X0357170Y0137101D01*
X0357104Y0137413D01*
X0357045Y0137726D01*
X0356995Y0138042D01*
X0356952Y0138358D01*
X0356917Y0138675D01*
X0356889Y0138993D01*
X0356870Y0139311D01*
X0356858Y0139630D01*
X0356854Y0139949D01*
D13*
X0232645Y0100572D03*
D14*
X0222645Y0100572D03*
X0212645Y0100572D03*
X0202645Y0100572D03*
X0192645Y0100572D03*
X0192645Y0090572D03*
X0202645Y0090572D03*
X0212645Y0090572D03*
X0222645Y0090572D03*
X0232645Y0090572D03*
D15*
X0256240Y0246752D02*
X0256240Y0253248D01*
X0266240Y0253248D02*
X0266240Y0246752D01*
X0276240Y0246752D02*
X0276240Y0253248D01*
X0316240Y0253248D02*
X0316240Y0246752D01*
X0326240Y0246752D02*
X0326240Y0253248D01*
X0336240Y0253248D02*
X0336240Y0246752D01*
D16*
X0346240Y0250000D03*
X0306240Y0250000D03*
X0286240Y0250000D03*
X0246240Y0250000D03*
D17*
X0244505Y0220351D03*
X0210505Y0200729D03*
X0279679Y0108504D03*
X0111601Y0053145D03*
X0056496Y0173372D03*
X0037056Y0172583D03*
D18*
X0035136Y0156486D02*
X0030502Y0156486D01*
X0026026Y0155286D01*
X0022012Y0152969D01*
X0018735Y0149692D01*
X0016418Y0145679D01*
X0015219Y0141203D01*
X0015219Y0136569D01*
X0016418Y0132092D01*
X0018735Y0128079D01*
X0022012Y0124802D01*
X0026026Y0122485D01*
X0030502Y0121286D01*
X0035136Y0121286D01*
X0039612Y0122485D01*
X0043626Y0124802D01*
X0046902Y0128079D01*
X0049220Y0132092D01*
X0050419Y0136569D01*
X0050419Y0141203D01*
X0049220Y0145679D01*
X0046902Y0149692D01*
X0043626Y0152969D01*
X0039612Y0155286D01*
X0035136Y0156486D01*
X0036903Y0156012D02*
X0074981Y0156012D01*
X0073783Y0157211D02*
X0006765Y0157211D01*
X0006765Y0158409D02*
X0072584Y0158409D01*
X0071386Y0159608D02*
X0006765Y0159608D01*
X0006765Y0160806D02*
X0070187Y0160806D01*
X0068989Y0162005D02*
X0006765Y0162005D01*
X0006765Y0163203D02*
X0067790Y0163203D01*
X0066592Y0164402D02*
X0006765Y0164402D01*
X0006765Y0165601D02*
X0065393Y0165601D01*
X0064195Y0166799D02*
X0006765Y0166799D01*
X0006765Y0167998D02*
X0062996Y0167998D01*
X0062240Y0168754D02*
X0101615Y0129379D01*
X0102494Y0128500D01*
X0134362Y0128500D01*
X0139896Y0134035D01*
X0139896Y0075363D01*
X0139736Y0075203D01*
X0138449Y0075203D01*
X0137107Y0073860D01*
X0137107Y0071962D01*
X0137961Y0071107D01*
X0126998Y0071107D01*
X0125944Y0070053D01*
X0119440Y0063549D01*
X0119440Y0052400D01*
X0113986Y0052400D01*
X0114090Y0052650D01*
X0114090Y0053640D01*
X0113711Y0054555D01*
X0113010Y0055255D01*
X0112096Y0055634D01*
X0111105Y0055634D01*
X0110191Y0055255D01*
X0109491Y0054555D01*
X0109112Y0053640D01*
X0109112Y0052650D01*
X0109491Y0051735D01*
X0109801Y0051425D01*
X0109801Y0051200D01*
X0108243Y0051200D01*
X0107643Y0050600D01*
X0104837Y0050600D01*
X0104237Y0051200D01*
X0098243Y0051200D01*
X0098228Y0051185D01*
X0097640Y0052606D01*
X0096346Y0053900D01*
X0094655Y0054600D01*
X0048340Y0054600D01*
X0048340Y0100915D01*
X0047640Y0102606D01*
X0046346Y0103900D01*
X0044655Y0104600D01*
X0006765Y0104600D01*
X0006765Y0258557D01*
X0134551Y0258557D01*
X0063119Y0187125D01*
X0062240Y0186246D01*
X0062240Y0168754D01*
X0062240Y0169196D02*
X0006765Y0169196D01*
X0006765Y0170395D02*
X0062240Y0170395D01*
X0062240Y0171593D02*
X0006765Y0171593D01*
X0006765Y0172792D02*
X0062240Y0172792D01*
X0062240Y0173990D02*
X0006765Y0173990D01*
X0006765Y0175189D02*
X0062240Y0175189D01*
X0062240Y0176387D02*
X0006765Y0176387D01*
X0006765Y0177586D02*
X0062240Y0177586D01*
X0062240Y0178784D02*
X0006765Y0178784D01*
X0006765Y0179983D02*
X0062240Y0179983D01*
X0062240Y0181181D02*
X0006765Y0181181D01*
X0006765Y0182380D02*
X0062240Y0182380D01*
X0062240Y0183578D02*
X0006765Y0183578D01*
X0006765Y0184777D02*
X0062240Y0184777D01*
X0062240Y0185975D02*
X0006765Y0185975D01*
X0006765Y0187174D02*
X0063168Y0187174D01*
X0064366Y0188372D02*
X0006765Y0188372D01*
X0006765Y0189571D02*
X0065565Y0189571D01*
X0066763Y0190769D02*
X0006765Y0190769D01*
X0006765Y0191968D02*
X0067962Y0191968D01*
X0069160Y0193166D02*
X0006765Y0193166D01*
X0006765Y0194365D02*
X0070359Y0194365D01*
X0071557Y0195563D02*
X0006765Y0195563D01*
X0006765Y0196762D02*
X0072756Y0196762D01*
X0073954Y0197960D02*
X0006765Y0197960D01*
X0006765Y0199159D02*
X0075153Y0199159D01*
X0076351Y0200357D02*
X0006765Y0200357D01*
X0006765Y0201556D02*
X0077550Y0201556D01*
X0078748Y0202754D02*
X0006765Y0202754D01*
X0006765Y0203953D02*
X0079947Y0203953D01*
X0081145Y0205151D02*
X0006765Y0205151D01*
X0006765Y0206350D02*
X0082344Y0206350D01*
X0083542Y0207548D02*
X0006765Y0207548D01*
X0006765Y0208747D02*
X0084741Y0208747D01*
X0085939Y0209945D02*
X0006765Y0209945D01*
X0006765Y0211144D02*
X0087138Y0211144D01*
X0088336Y0212342D02*
X0006765Y0212342D01*
X0006765Y0213541D02*
X0089535Y0213541D01*
X0090733Y0214739D02*
X0006765Y0214739D01*
X0006765Y0215938D02*
X0091932Y0215938D01*
X0093130Y0217137D02*
X0006765Y0217137D01*
X0006765Y0218335D02*
X0094329Y0218335D01*
X0095527Y0219534D02*
X0006765Y0219534D01*
X0006765Y0220732D02*
X0096726Y0220732D01*
X0097924Y0221931D02*
X0006765Y0221931D01*
X0006765Y0223129D02*
X0099123Y0223129D01*
X0100322Y0224328D02*
X0006765Y0224328D01*
X0006765Y0225526D02*
X0101520Y0225526D01*
X0102719Y0226725D02*
X0006765Y0226725D01*
X0006765Y0227923D02*
X0103917Y0227923D01*
X0105116Y0229122D02*
X0006765Y0229122D01*
X0006765Y0230320D02*
X0106314Y0230320D01*
X0107513Y0231519D02*
X0006765Y0231519D01*
X0006765Y0232717D02*
X0108711Y0232717D01*
X0109910Y0233916D02*
X0006765Y0233916D01*
X0006765Y0235114D02*
X0111108Y0235114D01*
X0112307Y0236313D02*
X0006765Y0236313D01*
X0006765Y0237511D02*
X0113505Y0237511D01*
X0114704Y0238710D02*
X0006765Y0238710D01*
X0006765Y0239908D02*
X0115902Y0239908D01*
X0117101Y0241107D02*
X0006765Y0241107D01*
X0006765Y0242305D02*
X0118299Y0242305D01*
X0119498Y0243504D02*
X0006765Y0243504D01*
X0006765Y0244702D02*
X0120696Y0244702D01*
X0121895Y0245901D02*
X0006765Y0245901D01*
X0006765Y0247099D02*
X0123093Y0247099D01*
X0124292Y0248298D02*
X0006765Y0248298D01*
X0006765Y0249496D02*
X0125490Y0249496D01*
X0126689Y0250695D02*
X0006765Y0250695D01*
X0006765Y0251893D02*
X0127887Y0251893D01*
X0129086Y0253092D02*
X0006765Y0253092D01*
X0006765Y0254290D02*
X0130284Y0254290D01*
X0131483Y0255489D02*
X0006765Y0255489D01*
X0006765Y0256687D02*
X0132681Y0256687D01*
X0133880Y0257886D02*
X0006765Y0257886D01*
X0147365Y0240333D02*
X0147774Y0241321D01*
X0147774Y0242429D01*
X0147743Y0242506D01*
X0161237Y0256000D01*
X0252247Y0256000D01*
X0252094Y0255789D01*
X0251747Y0255109D01*
X0251512Y0254383D01*
X0251392Y0253630D01*
X0251392Y0250483D01*
X0255757Y0250483D01*
X0255757Y0249517D01*
X0251392Y0249517D01*
X0251392Y0246370D01*
X0251512Y0245617D01*
X0251747Y0244891D01*
X0252094Y0244211D01*
X0252542Y0243594D01*
X0253082Y0243054D01*
X0253699Y0242606D01*
X0254379Y0242259D01*
X0255105Y0242023D01*
X0255758Y0241920D01*
X0255758Y0249517D01*
X0256723Y0249517D01*
X0256723Y0241920D01*
X0257375Y0242023D01*
X0258101Y0242259D01*
X0258781Y0242606D01*
X0259399Y0243054D01*
X0259938Y0243594D01*
X0260387Y0244211D01*
X0260733Y0244891D01*
X0260969Y0245617D01*
X0261088Y0246370D01*
X0261088Y0249517D01*
X0256723Y0249517D01*
X0256723Y0250483D01*
X0261088Y0250483D01*
X0261088Y0253630D01*
X0260969Y0254383D01*
X0260733Y0255109D01*
X0260387Y0255789D01*
X0260233Y0256000D01*
X0262702Y0256000D01*
X0262469Y0255768D01*
X0261792Y0254133D01*
X0261792Y0245867D01*
X0262469Y0244232D01*
X0263721Y0242981D01*
X0264948Y0242473D01*
X0264948Y0242322D01*
X0262959Y0240333D01*
X0147365Y0240333D01*
X0147686Y0241107D02*
X0263733Y0241107D01*
X0264932Y0242305D02*
X0258192Y0242305D01*
X0256723Y0242305D02*
X0255758Y0242305D01*
X0255758Y0243504D02*
X0256723Y0243504D01*
X0256723Y0244702D02*
X0255758Y0244702D01*
X0255758Y0245901D02*
X0256723Y0245901D01*
X0256723Y0247099D02*
X0255758Y0247099D01*
X0255758Y0248298D02*
X0256723Y0248298D01*
X0256723Y0249496D02*
X0255758Y0249496D01*
X0251392Y0249496D02*
X0250740Y0249496D01*
X0250740Y0249105D02*
X0250055Y0247451D01*
X0248789Y0246185D01*
X0247135Y0245500D01*
X0245345Y0245500D01*
X0243691Y0246185D01*
X0242425Y0247451D01*
X0241740Y0249105D01*
X0241740Y0250895D01*
X0242425Y0252549D01*
X0243691Y0253815D01*
X0245345Y0254500D01*
X0247135Y0254500D01*
X0248789Y0253815D01*
X0250055Y0252549D01*
X0250740Y0250895D01*
X0250740Y0249105D01*
X0250406Y0248298D02*
X0251392Y0248298D01*
X0251392Y0247099D02*
X0249703Y0247099D01*
X0248103Y0245901D02*
X0251467Y0245901D01*
X0251844Y0244702D02*
X0149939Y0244702D01*
X0148740Y0243504D02*
X0252632Y0243504D01*
X0254289Y0242305D02*
X0147774Y0242305D01*
X0151137Y0245901D02*
X0244378Y0245901D01*
X0242777Y0247099D02*
X0152336Y0247099D01*
X0153534Y0248298D02*
X0242075Y0248298D01*
X0241740Y0249496D02*
X0154733Y0249496D01*
X0155931Y0250695D02*
X0241740Y0250695D01*
X0242154Y0251893D02*
X0157130Y0251893D01*
X0158328Y0253092D02*
X0242968Y0253092D01*
X0244839Y0254290D02*
X0159527Y0254290D01*
X0160725Y0255489D02*
X0251941Y0255489D01*
X0251497Y0254290D02*
X0247641Y0254290D01*
X0249512Y0253092D02*
X0251392Y0253092D01*
X0251392Y0251893D02*
X0250327Y0251893D01*
X0250740Y0250695D02*
X0251392Y0250695D01*
X0261088Y0250695D02*
X0261792Y0250695D01*
X0261792Y0251893D02*
X0261088Y0251893D01*
X0261088Y0253092D02*
X0261792Y0253092D01*
X0261857Y0254290D02*
X0260984Y0254290D01*
X0260540Y0255489D02*
X0262354Y0255489D01*
X0269779Y0256000D02*
X0272702Y0256000D01*
X0272469Y0255768D01*
X0271792Y0254133D01*
X0271792Y0245867D01*
X0272469Y0244232D01*
X0273721Y0242981D01*
X0275355Y0242304D01*
X0277125Y0242304D01*
X0278760Y0242981D01*
X0280011Y0244232D01*
X0280688Y0245867D01*
X0280688Y0254133D01*
X0280011Y0255768D01*
X0279779Y0256000D01*
X0312247Y0256000D01*
X0312094Y0255789D01*
X0311747Y0255109D01*
X0311512Y0254383D01*
X0311392Y0253630D01*
X0311392Y0250483D01*
X0315757Y0250483D01*
X0315757Y0249517D01*
X0311392Y0249517D01*
X0311392Y0246370D01*
X0311512Y0245617D01*
X0311747Y0244891D01*
X0312094Y0244211D01*
X0312542Y0243594D01*
X0313082Y0243054D01*
X0313699Y0242606D01*
X0314379Y0242259D01*
X0315105Y0242023D01*
X0315758Y0241920D01*
X0315758Y0249517D01*
X0316723Y0249517D01*
X0316723Y0241920D01*
X0317375Y0242023D01*
X0318101Y0242259D01*
X0318781Y0242606D01*
X0319399Y0243054D01*
X0319938Y0243594D01*
X0320387Y0244211D01*
X0320733Y0244891D01*
X0320969Y0245617D01*
X0321088Y0246370D01*
X0321088Y0249517D01*
X0316723Y0249517D01*
X0316723Y0250483D01*
X0321088Y0250483D01*
X0321088Y0253630D01*
X0320969Y0254383D01*
X0320733Y0255109D01*
X0320387Y0255789D01*
X0320233Y0256000D01*
X0322702Y0256000D01*
X0322469Y0255768D01*
X0321792Y0254133D01*
X0321792Y0245867D01*
X0322469Y0244232D01*
X0323721Y0242981D01*
X0324436Y0242685D01*
X0320527Y0238776D01*
X0265645Y0238776D01*
X0267070Y0240201D01*
X0267948Y0241079D01*
X0267948Y0242645D01*
X0268760Y0242981D01*
X0270011Y0244232D01*
X0270688Y0245867D01*
X0270688Y0254133D01*
X0270011Y0255768D01*
X0269779Y0256000D01*
X0270127Y0255489D02*
X0272354Y0255489D01*
X0271857Y0254290D02*
X0270623Y0254290D01*
X0270688Y0253092D02*
X0271792Y0253092D01*
X0271792Y0251893D02*
X0270688Y0251893D01*
X0270688Y0250695D02*
X0271792Y0250695D01*
X0271792Y0249496D02*
X0270688Y0249496D01*
X0270688Y0248298D02*
X0271792Y0248298D01*
X0271792Y0247099D02*
X0270688Y0247099D01*
X0270688Y0245901D02*
X0271792Y0245901D01*
X0272275Y0244702D02*
X0270206Y0244702D01*
X0269282Y0243504D02*
X0273198Y0243504D01*
X0275352Y0242305D02*
X0267948Y0242305D01*
X0267948Y0241107D02*
X0322858Y0241107D01*
X0324056Y0242305D02*
X0318192Y0242305D01*
X0316723Y0242305D02*
X0315758Y0242305D01*
X0315758Y0243504D02*
X0316723Y0243504D01*
X0316723Y0244702D02*
X0315758Y0244702D01*
X0315758Y0245901D02*
X0316723Y0245901D01*
X0316723Y0247099D02*
X0315758Y0247099D01*
X0315758Y0248298D02*
X0316723Y0248298D01*
X0316723Y0249496D02*
X0315758Y0249496D01*
X0311392Y0249496D02*
X0310740Y0249496D01*
X0310740Y0249105D02*
X0310055Y0247451D01*
X0308789Y0246185D01*
X0307135Y0245500D01*
X0305345Y0245500D01*
X0303691Y0246185D01*
X0302425Y0247451D01*
X0301740Y0249105D01*
X0301740Y0250895D01*
X0302425Y0252549D01*
X0303691Y0253815D01*
X0305345Y0254500D01*
X0307135Y0254500D01*
X0308789Y0253815D01*
X0310055Y0252549D01*
X0310740Y0250895D01*
X0310740Y0249105D01*
X0310406Y0248298D02*
X0311392Y0248298D01*
X0311392Y0247099D02*
X0309703Y0247099D01*
X0308103Y0245901D02*
X0311467Y0245901D01*
X0311844Y0244702D02*
X0280206Y0244702D01*
X0280688Y0245901D02*
X0284378Y0245901D01*
X0283691Y0246185D02*
X0285345Y0245500D01*
X0287135Y0245500D01*
X0288789Y0246185D01*
X0290055Y0247451D01*
X0290740Y0249105D01*
X0290740Y0250895D01*
X0290055Y0252549D01*
X0288789Y0253815D01*
X0287135Y0254500D01*
X0285345Y0254500D01*
X0283691Y0253815D01*
X0282425Y0252549D01*
X0281740Y0250895D01*
X0281740Y0249105D01*
X0282425Y0247451D01*
X0283691Y0246185D01*
X0282777Y0247099D02*
X0280688Y0247099D01*
X0280688Y0248298D02*
X0282075Y0248298D01*
X0281740Y0249496D02*
X0280688Y0249496D01*
X0280688Y0250695D02*
X0281740Y0250695D01*
X0282154Y0251893D02*
X0280688Y0251893D01*
X0280688Y0253092D02*
X0282968Y0253092D01*
X0284839Y0254290D02*
X0280623Y0254290D01*
X0280127Y0255489D02*
X0311941Y0255489D01*
X0311497Y0254290D02*
X0307641Y0254290D01*
X0309512Y0253092D02*
X0311392Y0253092D01*
X0311392Y0251893D02*
X0310327Y0251893D01*
X0310740Y0250695D02*
X0311392Y0250695D01*
X0304839Y0254290D02*
X0287641Y0254290D01*
X0289512Y0253092D02*
X0302968Y0253092D01*
X0302154Y0251893D02*
X0290327Y0251893D01*
X0290740Y0250695D02*
X0301740Y0250695D01*
X0301740Y0249496D02*
X0290740Y0249496D01*
X0290406Y0248298D02*
X0302075Y0248298D01*
X0302777Y0247099D02*
X0289703Y0247099D01*
X0288103Y0245901D02*
X0304378Y0245901D01*
X0312632Y0243504D02*
X0279282Y0243504D01*
X0277128Y0242305D02*
X0314289Y0242305D01*
X0319848Y0243504D02*
X0323198Y0243504D01*
X0322275Y0244702D02*
X0320637Y0244702D01*
X0321014Y0245901D02*
X0321792Y0245901D01*
X0321792Y0247099D02*
X0321088Y0247099D01*
X0321088Y0248298D02*
X0321792Y0248298D01*
X0321792Y0249496D02*
X0321088Y0249496D01*
X0321088Y0250695D02*
X0321792Y0250695D01*
X0321792Y0251893D02*
X0321088Y0251893D01*
X0321088Y0253092D02*
X0321792Y0253092D01*
X0321857Y0254290D02*
X0320984Y0254290D01*
X0320540Y0255489D02*
X0322354Y0255489D01*
X0338202Y0242750D02*
X0338760Y0242981D01*
X0340011Y0244232D01*
X0340688Y0245867D01*
X0340688Y0254133D01*
X0340011Y0255768D01*
X0339779Y0256000D01*
X0346244Y0256000D01*
X0348174Y0254070D01*
X0347135Y0254500D01*
X0345345Y0254500D01*
X0343691Y0253815D01*
X0342425Y0252549D01*
X0341740Y0250895D01*
X0341740Y0249105D01*
X0342425Y0247451D01*
X0343691Y0246185D01*
X0345345Y0245500D01*
X0347135Y0245500D01*
X0348789Y0246185D01*
X0350055Y0247451D01*
X0350740Y0249105D01*
X0350740Y0250895D01*
X0350310Y0251934D01*
X0389115Y0213129D01*
X0389115Y0068746D01*
X0385047Y0064678D01*
X0385047Y0121468D01*
X0387989Y0121468D01*
X0388868Y0122347D01*
X0388868Y0123589D01*
X0388654Y0123802D01*
X0388654Y0147736D01*
X0387776Y0148615D01*
X0387405Y0148985D01*
X0387718Y0149297D01*
X0387718Y0151196D01*
X0386375Y0152539D01*
X0384476Y0152539D01*
X0383315Y0151378D01*
X0380661Y0154032D01*
X0376648Y0156349D01*
X0372171Y0157549D01*
X0367537Y0157549D01*
X0363061Y0156349D01*
X0360061Y0154617D01*
X0360061Y0154743D01*
X0360184Y0155047D01*
X0360061Y0155340D01*
X0360061Y0155657D01*
X0359829Y0155889D01*
X0359450Y0156786D01*
X0359634Y0156971D01*
X0359634Y0158870D01*
X0358292Y0160213D01*
X0356393Y0160213D01*
X0355050Y0158870D01*
X0355050Y0156971D01*
X0356393Y0155628D01*
X0356682Y0155628D01*
X0356786Y0155382D01*
X0351328Y0149925D01*
X0350450Y0149046D01*
X0350450Y0107961D01*
X0354356Y0104054D01*
X0355235Y0103176D01*
X0355918Y0103176D01*
X0356409Y0102684D01*
X0358308Y0102684D01*
X0359651Y0104027D01*
X0359651Y0105926D01*
X0358308Y0107269D01*
X0356409Y0107269D01*
X0355897Y0106756D01*
X0353450Y0109204D01*
X0353450Y0133171D01*
X0353454Y0133155D01*
X0355771Y0129142D01*
X0359048Y0125865D01*
X0363061Y0123548D01*
X0367537Y0122349D01*
X0372171Y0122349D01*
X0376648Y0123548D01*
X0380661Y0125865D01*
X0383938Y0129142D01*
X0385654Y0132115D01*
X0385654Y0125440D01*
X0384497Y0126598D01*
X0382598Y0126598D01*
X0381255Y0125256D01*
X0381255Y0123357D01*
X0382047Y0122565D01*
X0382047Y0114754D01*
X0377013Y0119788D01*
X0359944Y0119788D01*
X0359151Y0120580D01*
X0357253Y0120580D01*
X0355910Y0119238D01*
X0355910Y0117339D01*
X0357253Y0115996D01*
X0359151Y0115996D01*
X0359944Y0116788D01*
X0375770Y0116788D01*
X0380647Y0111911D01*
X0380647Y0064822D01*
X0374488Y0058662D01*
X0310248Y0058662D01*
X0309290Y0059620D01*
X0309290Y0060902D01*
X0307948Y0062244D01*
X0306863Y0062244D01*
X0307817Y0062640D01*
X0308601Y0063423D01*
X0308633Y0063500D01*
X0336862Y0063500D01*
X0337740Y0064379D01*
X0366237Y0092875D01*
X0367598Y0092875D01*
X0367630Y0092798D01*
X0368413Y0092015D01*
X0369436Y0091591D01*
X0370544Y0091591D01*
X0371567Y0092015D01*
X0372351Y0092798D01*
X0372774Y0093821D01*
X0372774Y0094716D01*
X0373044Y0094716D01*
X0374067Y0095140D01*
X0374851Y0095923D01*
X0375274Y0096946D01*
X0375274Y0098054D01*
X0374851Y0099077D01*
X0374067Y0099860D01*
X0373044Y0100284D01*
X0372774Y0100284D01*
X0372774Y0101179D01*
X0372351Y0102202D01*
X0371567Y0102985D01*
X0370544Y0103409D01*
X0369436Y0103409D01*
X0368413Y0102985D01*
X0367630Y0102202D01*
X0367598Y0102125D01*
X0351033Y0102125D01*
X0351033Y0103703D01*
X0349690Y0105045D01*
X0347792Y0105045D01*
X0346449Y0103703D01*
X0346449Y0102511D01*
X0345699Y0101762D01*
X0345699Y0101580D01*
X0345365Y0101246D01*
X0345365Y0101199D01*
X0342740Y0098574D01*
X0342740Y0101358D01*
X0342817Y0101390D01*
X0343601Y0102173D01*
X0344024Y0103196D01*
X0344024Y0104304D01*
X0343601Y0105327D01*
X0342817Y0106110D01*
X0341794Y0106534D01*
X0340686Y0106534D01*
X0339663Y0106110D01*
X0338880Y0105327D01*
X0338456Y0104304D01*
X0338456Y0103196D01*
X0338880Y0102173D01*
X0339663Y0101390D01*
X0339740Y0101358D01*
X0339740Y0098746D01*
X0338744Y0097750D01*
X0321862Y0097750D01*
X0314987Y0104625D01*
X0298633Y0104625D01*
X0298601Y0104702D01*
X0297817Y0105485D01*
X0296794Y0105909D01*
X0295686Y0105909D01*
X0294663Y0105485D01*
X0294413Y0105235D01*
X0294413Y0106849D01*
X0294849Y0107286D01*
X0294849Y0112394D01*
X0299994Y0107250D01*
X0301237Y0107250D01*
X0327487Y0107250D01*
X0328365Y0108129D01*
X0332115Y0111879D01*
X0332115Y0140257D01*
X0334375Y0140257D01*
X0335078Y0140960D01*
X0335078Y0149040D01*
X0334375Y0149743D01*
X0327359Y0149743D01*
X0337789Y0160173D01*
X0337789Y0173702D01*
X0338581Y0174494D01*
X0338581Y0176000D01*
X0346869Y0176000D01*
X0351615Y0171254D01*
X0351615Y0171254D01*
X0352494Y0170375D01*
X0359987Y0170375D01*
X0385612Y0196000D01*
X0386490Y0196879D01*
X0386490Y0214996D01*
X0359615Y0241871D01*
X0358737Y0242750D01*
X0338202Y0242750D01*
X0339282Y0243504D02*
X0358740Y0243504D01*
X0359181Y0242305D02*
X0359939Y0242305D01*
X0360380Y0241107D02*
X0361137Y0241107D01*
X0361578Y0239908D02*
X0362336Y0239908D01*
X0362777Y0238710D02*
X0363534Y0238710D01*
X0363975Y0237511D02*
X0364733Y0237511D01*
X0365174Y0236313D02*
X0365931Y0236313D01*
X0366372Y0235114D02*
X0367130Y0235114D01*
X0367571Y0233916D02*
X0368328Y0233916D01*
X0368769Y0232717D02*
X0369527Y0232717D01*
X0369968Y0231519D02*
X0370725Y0231519D01*
X0371166Y0230320D02*
X0371924Y0230320D01*
X0372365Y0229122D02*
X0373122Y0229122D01*
X0373563Y0227923D02*
X0374321Y0227923D01*
X0374762Y0226725D02*
X0375519Y0226725D01*
X0375960Y0225526D02*
X0376718Y0225526D01*
X0377159Y0224328D02*
X0377916Y0224328D01*
X0378357Y0223129D02*
X0379115Y0223129D01*
X0379556Y0221931D02*
X0380313Y0221931D01*
X0380755Y0220732D02*
X0381512Y0220732D01*
X0381953Y0219534D02*
X0382710Y0219534D01*
X0383152Y0218335D02*
X0383909Y0218335D01*
X0384350Y0217137D02*
X0385107Y0217137D01*
X0385549Y0215938D02*
X0386306Y0215938D01*
X0386490Y0214739D02*
X0387504Y0214739D01*
X0386490Y0213541D02*
X0388703Y0213541D01*
X0389115Y0212342D02*
X0386490Y0212342D01*
X0386490Y0211144D02*
X0389115Y0211144D01*
X0389115Y0209945D02*
X0386490Y0209945D01*
X0386490Y0208747D02*
X0389115Y0208747D01*
X0389115Y0207548D02*
X0386490Y0207548D01*
X0386490Y0206350D02*
X0389115Y0206350D01*
X0389115Y0205151D02*
X0386490Y0205151D01*
X0386490Y0203953D02*
X0389115Y0203953D01*
X0389115Y0202754D02*
X0386490Y0202754D01*
X0386490Y0201556D02*
X0389115Y0201556D01*
X0389115Y0200357D02*
X0386490Y0200357D01*
X0386490Y0199159D02*
X0389115Y0199159D01*
X0389115Y0197960D02*
X0386490Y0197960D01*
X0386373Y0196762D02*
X0389115Y0196762D01*
X0389115Y0195563D02*
X0385175Y0195563D01*
X0383976Y0194365D02*
X0389115Y0194365D01*
X0389115Y0193166D02*
X0382778Y0193166D01*
X0381579Y0191968D02*
X0389115Y0191968D01*
X0389115Y0190769D02*
X0380381Y0190769D01*
X0379182Y0189571D02*
X0389115Y0189571D01*
X0389115Y0188372D02*
X0377984Y0188372D01*
X0376785Y0187174D02*
X0389115Y0187174D01*
X0389115Y0185975D02*
X0375587Y0185975D01*
X0374388Y0184777D02*
X0389115Y0184777D01*
X0389115Y0183578D02*
X0373190Y0183578D01*
X0371991Y0182380D02*
X0389115Y0182380D01*
X0389115Y0181181D02*
X0370793Y0181181D01*
X0369594Y0179983D02*
X0389115Y0179983D01*
X0389115Y0178784D02*
X0368396Y0178784D01*
X0367197Y0177586D02*
X0389115Y0177586D01*
X0389115Y0176387D02*
X0365999Y0176387D01*
X0364800Y0175189D02*
X0389115Y0175189D01*
X0389115Y0173990D02*
X0363602Y0173990D01*
X0362403Y0172792D02*
X0389115Y0172792D01*
X0389115Y0171593D02*
X0361205Y0171593D01*
X0360006Y0170395D02*
X0389115Y0170395D01*
X0389115Y0169196D02*
X0337789Y0169196D01*
X0337789Y0167998D02*
X0389115Y0167998D01*
X0389115Y0166799D02*
X0337789Y0166799D01*
X0337789Y0165601D02*
X0389115Y0165601D01*
X0389115Y0164402D02*
X0337789Y0164402D01*
X0337789Y0163203D02*
X0389115Y0163203D01*
X0389115Y0162005D02*
X0337789Y0162005D01*
X0337789Y0160806D02*
X0389115Y0160806D01*
X0389115Y0159608D02*
X0358896Y0159608D01*
X0359634Y0158409D02*
X0389115Y0158409D01*
X0389115Y0157211D02*
X0373432Y0157211D01*
X0377231Y0156012D02*
X0389115Y0156012D01*
X0389115Y0154814D02*
X0379307Y0154814D01*
X0381078Y0153615D02*
X0389115Y0153615D01*
X0389115Y0152417D02*
X0386497Y0152417D01*
X0387695Y0151218D02*
X0389115Y0151218D01*
X0389115Y0150020D02*
X0387718Y0150020D01*
X0387569Y0148821D02*
X0389115Y0148821D01*
X0389115Y0147623D02*
X0388654Y0147623D01*
X0388654Y0146424D02*
X0389115Y0146424D01*
X0389115Y0145226D02*
X0388654Y0145226D01*
X0388654Y0144027D02*
X0389115Y0144027D01*
X0389115Y0142829D02*
X0388654Y0142829D01*
X0388654Y0141630D02*
X0389115Y0141630D01*
X0389115Y0140432D02*
X0388654Y0140432D01*
X0388654Y0139233D02*
X0389115Y0139233D01*
X0389115Y0138035D02*
X0388654Y0138035D01*
X0388654Y0136836D02*
X0389115Y0136836D01*
X0389115Y0135638D02*
X0388654Y0135638D01*
X0388654Y0134439D02*
X0389115Y0134439D01*
X0389115Y0133241D02*
X0388654Y0133241D01*
X0388654Y0132042D02*
X0389115Y0132042D01*
X0389115Y0130844D02*
X0388654Y0130844D01*
X0388654Y0129645D02*
X0389115Y0129645D01*
X0389115Y0128447D02*
X0388654Y0128447D01*
X0388654Y0127248D02*
X0389115Y0127248D01*
X0389115Y0126050D02*
X0388654Y0126050D01*
X0388654Y0124851D02*
X0389115Y0124851D01*
X0389115Y0123653D02*
X0388804Y0123653D01*
X0388868Y0122454D02*
X0389115Y0122454D01*
X0389115Y0121256D02*
X0385047Y0121256D01*
X0385047Y0120057D02*
X0389115Y0120057D01*
X0389115Y0118859D02*
X0385047Y0118859D01*
X0385047Y0117660D02*
X0389115Y0117660D01*
X0389115Y0116462D02*
X0385047Y0116462D01*
X0385047Y0115263D02*
X0389115Y0115263D01*
X0389115Y0114065D02*
X0385047Y0114065D01*
X0385047Y0112866D02*
X0389115Y0112866D01*
X0389115Y0111668D02*
X0385047Y0111668D01*
X0385047Y0110469D02*
X0389115Y0110469D01*
X0389115Y0109270D02*
X0385047Y0109270D01*
X0385047Y0108072D02*
X0389115Y0108072D01*
X0389115Y0106873D02*
X0385047Y0106873D01*
X0385047Y0105675D02*
X0389115Y0105675D01*
X0389115Y0104476D02*
X0385047Y0104476D01*
X0385047Y0103278D02*
X0389115Y0103278D01*
X0389115Y0102079D02*
X0385047Y0102079D01*
X0385047Y0100881D02*
X0389115Y0100881D01*
X0389115Y0099682D02*
X0385047Y0099682D01*
X0385047Y0098484D02*
X0389115Y0098484D01*
X0389115Y0097285D02*
X0385047Y0097285D01*
X0385047Y0096087D02*
X0389115Y0096087D01*
X0389115Y0094888D02*
X0385047Y0094888D01*
X0385047Y0093690D02*
X0389115Y0093690D01*
X0389115Y0092491D02*
X0385047Y0092491D01*
X0385047Y0091293D02*
X0389115Y0091293D01*
X0389115Y0090094D02*
X0385047Y0090094D01*
X0385047Y0088896D02*
X0389115Y0088896D01*
X0389115Y0087697D02*
X0385047Y0087697D01*
X0385047Y0086499D02*
X0389115Y0086499D01*
X0389115Y0085300D02*
X0385047Y0085300D01*
X0385047Y0084102D02*
X0389115Y0084102D01*
X0389115Y0082903D02*
X0385047Y0082903D01*
X0385047Y0081705D02*
X0389115Y0081705D01*
X0389115Y0080506D02*
X0385047Y0080506D01*
X0385047Y0079308D02*
X0389115Y0079308D01*
X0389115Y0078109D02*
X0385047Y0078109D01*
X0385047Y0076911D02*
X0389115Y0076911D01*
X0389115Y0075712D02*
X0385047Y0075712D01*
X0385047Y0074514D02*
X0389115Y0074514D01*
X0389115Y0073315D02*
X0385047Y0073315D01*
X0385047Y0072117D02*
X0389115Y0072117D01*
X0389115Y0070918D02*
X0385047Y0070918D01*
X0385047Y0069720D02*
X0389115Y0069720D01*
X0388890Y0068521D02*
X0385047Y0068521D01*
X0385047Y0067323D02*
X0387692Y0067323D01*
X0386493Y0066124D02*
X0385047Y0066124D01*
X0385047Y0064926D02*
X0385295Y0064926D01*
X0380647Y0064926D02*
X0338287Y0064926D01*
X0339486Y0066124D02*
X0380647Y0066124D01*
X0380647Y0067323D02*
X0340684Y0067323D01*
X0341883Y0068521D02*
X0380647Y0068521D01*
X0380647Y0069720D02*
X0343081Y0069720D01*
X0344280Y0070918D02*
X0380647Y0070918D01*
X0380647Y0072117D02*
X0345478Y0072117D01*
X0346677Y0073315D02*
X0380647Y0073315D01*
X0380647Y0074514D02*
X0347875Y0074514D01*
X0349074Y0075712D02*
X0380647Y0075712D01*
X0380647Y0076911D02*
X0350272Y0076911D01*
X0351471Y0078109D02*
X0380647Y0078109D01*
X0380647Y0079308D02*
X0352669Y0079308D01*
X0353868Y0080506D02*
X0380647Y0080506D01*
X0380647Y0081705D02*
X0355066Y0081705D01*
X0356265Y0082903D02*
X0380647Y0082903D01*
X0380647Y0084102D02*
X0357463Y0084102D01*
X0358662Y0085300D02*
X0380647Y0085300D01*
X0380647Y0086499D02*
X0359860Y0086499D01*
X0361059Y0087697D02*
X0380647Y0087697D01*
X0380647Y0088896D02*
X0362257Y0088896D01*
X0363456Y0090094D02*
X0380647Y0090094D01*
X0380647Y0091293D02*
X0364654Y0091293D01*
X0365853Y0092491D02*
X0367936Y0092491D01*
X0372044Y0092491D02*
X0380647Y0092491D01*
X0380647Y0093690D02*
X0372720Y0093690D01*
X0373461Y0094888D02*
X0380647Y0094888D01*
X0380647Y0096087D02*
X0374919Y0096087D01*
X0375274Y0097285D02*
X0380647Y0097285D01*
X0380647Y0098484D02*
X0375096Y0098484D01*
X0374245Y0099682D02*
X0380647Y0099682D01*
X0380647Y0100881D02*
X0372774Y0100881D01*
X0372401Y0102079D02*
X0380647Y0102079D01*
X0380647Y0103278D02*
X0370861Y0103278D01*
X0369119Y0103278D02*
X0358902Y0103278D01*
X0359651Y0104476D02*
X0380647Y0104476D01*
X0380647Y0105675D02*
X0359651Y0105675D01*
X0358703Y0106873D02*
X0380647Y0106873D01*
X0380647Y0108072D02*
X0354581Y0108072D01*
X0353450Y0109270D02*
X0380647Y0109270D01*
X0380647Y0110469D02*
X0353450Y0110469D01*
X0353450Y0111668D02*
X0380647Y0111668D01*
X0379692Y0112866D02*
X0353450Y0112866D01*
X0353450Y0114065D02*
X0378494Y0114065D01*
X0377295Y0115263D02*
X0353450Y0115263D01*
X0353450Y0116462D02*
X0356787Y0116462D01*
X0355910Y0117660D02*
X0353450Y0117660D01*
X0353450Y0118859D02*
X0355910Y0118859D01*
X0356729Y0120057D02*
X0353450Y0120057D01*
X0353450Y0121256D02*
X0382047Y0121256D01*
X0382047Y0122454D02*
X0372564Y0122454D01*
X0376829Y0123653D02*
X0381255Y0123653D01*
X0381255Y0124851D02*
X0378904Y0124851D01*
X0380845Y0126050D02*
X0382049Y0126050D01*
X0382044Y0127248D02*
X0385654Y0127248D01*
X0385654Y0126050D02*
X0385045Y0126050D01*
X0385654Y0128447D02*
X0383242Y0128447D01*
X0384228Y0129645D02*
X0385654Y0129645D01*
X0385654Y0130844D02*
X0384920Y0130844D01*
X0385612Y0132042D02*
X0385654Y0132042D01*
X0382047Y0120057D02*
X0359675Y0120057D01*
X0362880Y0123653D02*
X0353450Y0123653D01*
X0353450Y0124851D02*
X0360804Y0124851D01*
X0358863Y0126050D02*
X0353450Y0126050D01*
X0353450Y0127248D02*
X0357665Y0127248D01*
X0356466Y0128447D02*
X0353450Y0128447D01*
X0353450Y0129645D02*
X0355480Y0129645D01*
X0354789Y0130844D02*
X0353450Y0130844D01*
X0353450Y0132042D02*
X0354097Y0132042D01*
X0350450Y0132042D02*
X0332115Y0132042D01*
X0332115Y0130844D02*
X0350450Y0130844D01*
X0350450Y0129645D02*
X0332115Y0129645D01*
X0332115Y0128447D02*
X0350450Y0128447D01*
X0350450Y0127248D02*
X0332115Y0127248D01*
X0332115Y0126050D02*
X0350450Y0126050D01*
X0350450Y0124851D02*
X0332115Y0124851D01*
X0332115Y0123653D02*
X0350450Y0123653D01*
X0350450Y0122454D02*
X0332115Y0122454D01*
X0332115Y0121256D02*
X0350450Y0121256D01*
X0350450Y0120057D02*
X0332115Y0120057D01*
X0332115Y0118859D02*
X0350450Y0118859D01*
X0350450Y0117660D02*
X0332115Y0117660D01*
X0332115Y0116462D02*
X0350450Y0116462D01*
X0350450Y0115263D02*
X0332115Y0115263D01*
X0332115Y0114065D02*
X0350450Y0114065D01*
X0350450Y0112866D02*
X0332115Y0112866D01*
X0331904Y0111668D02*
X0350450Y0111668D01*
X0350450Y0110469D02*
X0330706Y0110469D01*
X0329507Y0109270D02*
X0350450Y0109270D01*
X0350450Y0108072D02*
X0328309Y0108072D01*
X0338527Y0104476D02*
X0315135Y0104476D01*
X0316334Y0103278D02*
X0338456Y0103278D01*
X0338973Y0102079D02*
X0317532Y0102079D01*
X0318731Y0100881D02*
X0339740Y0100881D01*
X0339740Y0099682D02*
X0319929Y0099682D01*
X0321128Y0098484D02*
X0339478Y0098484D01*
X0342740Y0099682D02*
X0343849Y0099682D01*
X0342740Y0100881D02*
X0345047Y0100881D01*
X0345365Y0101246D02*
X0345365Y0101246D01*
X0345365Y0101246D01*
X0346017Y0102079D02*
X0343507Y0102079D01*
X0344024Y0103278D02*
X0346449Y0103278D01*
X0347223Y0104476D02*
X0343953Y0104476D01*
X0343253Y0105675D02*
X0352736Y0105675D01*
X0353934Y0104476D02*
X0350259Y0104476D01*
X0351033Y0103278D02*
X0355133Y0103278D01*
X0355780Y0106873D02*
X0356014Y0106873D01*
X0351537Y0106873D02*
X0294437Y0106873D01*
X0294413Y0105675D02*
X0295121Y0105675D01*
X0297360Y0105675D02*
X0339228Y0105675D01*
X0359617Y0116462D02*
X0376097Y0116462D01*
X0377942Y0118859D02*
X0382047Y0118859D01*
X0382047Y0117660D02*
X0379141Y0117660D01*
X0380339Y0116462D02*
X0382047Y0116462D01*
X0382047Y0115263D02*
X0381538Y0115263D01*
X0367144Y0122454D02*
X0353450Y0122454D01*
X0350450Y0133241D02*
X0332115Y0133241D01*
X0332115Y0134439D02*
X0350450Y0134439D01*
X0350450Y0135638D02*
X0332115Y0135638D01*
X0332115Y0136836D02*
X0350450Y0136836D01*
X0350450Y0138035D02*
X0332115Y0138035D01*
X0332115Y0139233D02*
X0350450Y0139233D01*
X0350450Y0140432D02*
X0346139Y0140432D01*
X0346182Y0140474D02*
X0346393Y0140839D01*
X0346502Y0141246D01*
X0346502Y0144400D01*
X0342352Y0144400D01*
X0342352Y0139857D01*
X0345112Y0139857D01*
X0345519Y0139966D01*
X0345884Y0140176D01*
X0346182Y0140474D01*
X0346502Y0141630D02*
X0350450Y0141630D01*
X0350450Y0142829D02*
X0346502Y0142829D01*
X0346502Y0144027D02*
X0350450Y0144027D01*
X0350450Y0145226D02*
X0342352Y0145226D01*
X0342352Y0145600D02*
X0346502Y0145600D01*
X0346502Y0148754D01*
X0346393Y0149161D01*
X0346182Y0149526D01*
X0345884Y0149824D01*
X0345519Y0150034D01*
X0345112Y0150143D01*
X0342352Y0150143D01*
X0342352Y0145600D01*
X0341152Y0145600D01*
X0341152Y0144400D01*
X0337002Y0144400D01*
X0337002Y0141246D01*
X0337111Y0140839D01*
X0337322Y0140474D01*
X0337620Y0140176D01*
X0337985Y0139966D01*
X0338392Y0139857D01*
X0341152Y0139857D01*
X0341152Y0144400D01*
X0342352Y0144400D01*
X0342352Y0145600D01*
X0342352Y0146424D02*
X0341152Y0146424D01*
X0341152Y0145600D02*
X0341152Y0150143D01*
X0338392Y0150143D01*
X0337985Y0150034D01*
X0337620Y0149824D01*
X0337322Y0149526D01*
X0337111Y0149161D01*
X0337002Y0148754D01*
X0337002Y0145600D01*
X0341152Y0145600D01*
X0341152Y0145226D02*
X0335078Y0145226D01*
X0335078Y0146424D02*
X0337002Y0146424D01*
X0337002Y0147623D02*
X0335078Y0147623D01*
X0335078Y0148821D02*
X0337021Y0148821D01*
X0337960Y0150020D02*
X0327636Y0150020D01*
X0328834Y0151218D02*
X0352622Y0151218D01*
X0351424Y0150020D02*
X0345544Y0150020D01*
X0346484Y0148821D02*
X0350450Y0148821D01*
X0350450Y0147623D02*
X0346502Y0147623D01*
X0346502Y0146424D02*
X0350450Y0146424D01*
X0353821Y0152417D02*
X0330033Y0152417D01*
X0331231Y0153615D02*
X0355019Y0153615D01*
X0356218Y0154814D02*
X0332430Y0154814D01*
X0333628Y0156012D02*
X0356009Y0156012D01*
X0355050Y0157211D02*
X0334827Y0157211D01*
X0336025Y0158409D02*
X0355050Y0158409D01*
X0355788Y0159608D02*
X0337224Y0159608D01*
X0337789Y0170395D02*
X0352474Y0170395D01*
X0351276Y0171593D02*
X0337789Y0171593D01*
X0337789Y0172792D02*
X0350077Y0172792D01*
X0348879Y0173990D02*
X0338078Y0173990D01*
X0338581Y0175189D02*
X0347680Y0175189D01*
X0359634Y0157211D02*
X0366276Y0157211D01*
X0362477Y0156012D02*
X0359777Y0156012D01*
X0360090Y0154814D02*
X0360402Y0154814D01*
X0342352Y0150020D02*
X0341152Y0150020D01*
X0341152Y0148821D02*
X0342352Y0148821D01*
X0342352Y0147623D02*
X0341152Y0147623D01*
X0341152Y0144027D02*
X0342352Y0144027D01*
X0342352Y0142829D02*
X0341152Y0142829D01*
X0341152Y0141630D02*
X0342352Y0141630D01*
X0342352Y0140432D02*
X0341152Y0140432D01*
X0337365Y0140432D02*
X0334550Y0140432D01*
X0335078Y0141630D02*
X0337002Y0141630D01*
X0337002Y0142829D02*
X0335078Y0142829D01*
X0335078Y0144027D02*
X0337002Y0144027D01*
X0382276Y0152417D02*
X0384354Y0152417D01*
X0299172Y0108072D02*
X0294849Y0108072D01*
X0294849Y0109270D02*
X0297973Y0109270D01*
X0296775Y0110469D02*
X0294849Y0110469D01*
X0294849Y0111668D02*
X0295576Y0111668D01*
X0280990Y0113939D02*
X0277844Y0113939D01*
X0277052Y0114731D01*
X0275153Y0114731D01*
X0273810Y0113389D01*
X0273810Y0111490D01*
X0275153Y0110147D01*
X0277052Y0110147D01*
X0277844Y0110939D01*
X0279054Y0110939D01*
X0278269Y0110614D01*
X0277738Y0110083D01*
X0274955Y0110083D01*
X0273901Y0109029D01*
X0252344Y0087472D01*
X0251849Y0087472D01*
X0252149Y0088196D01*
X0252149Y0089304D01*
X0251726Y0090327D01*
X0250942Y0091110D01*
X0249919Y0091534D01*
X0248811Y0091534D01*
X0248734Y0091502D01*
X0242010Y0098227D01*
X0242719Y0098227D01*
X0244061Y0099570D01*
X0244061Y0100062D01*
X0250010Y0106012D01*
X0250010Y0109443D01*
X0250803Y0110235D01*
X0250803Y0112134D01*
X0249460Y0113477D01*
X0247561Y0113477D01*
X0246218Y0112134D01*
X0246218Y0110235D01*
X0247010Y0109443D01*
X0247010Y0107254D01*
X0242567Y0102811D01*
X0240865Y0102811D01*
X0240865Y0109371D01*
X0239987Y0110250D01*
X0238990Y0111246D01*
X0238990Y0113233D01*
X0239067Y0113265D01*
X0239851Y0114048D01*
X0240274Y0115071D01*
X0240274Y0116179D01*
X0239851Y0117202D01*
X0239067Y0117985D01*
X0238044Y0118409D01*
X0236936Y0118409D01*
X0235913Y0117985D01*
X0235130Y0117202D01*
X0234706Y0116179D01*
X0234706Y0115071D01*
X0235130Y0114048D01*
X0235913Y0113265D01*
X0235990Y0113233D01*
X0235990Y0112501D01*
X0221980Y0126512D01*
X0221980Y0136047D01*
X0223821Y0136047D01*
X0225164Y0137390D01*
X0225164Y0138180D01*
X0231322Y0138180D01*
X0247776Y0121726D01*
X0274601Y0121726D01*
X0274491Y0121616D01*
X0274491Y0119717D01*
X0275834Y0118374D01*
X0276710Y0118374D01*
X0276772Y0118313D01*
X0280629Y0118313D01*
X0280836Y0118107D01*
X0280079Y0117350D01*
X0280079Y0115451D01*
X0280990Y0114540D01*
X0280990Y0113939D01*
X0280990Y0114065D02*
X0277719Y0114065D01*
X0280267Y0115263D02*
X0240274Y0115263D01*
X0240157Y0116462D02*
X0280079Y0116462D01*
X0280389Y0117660D02*
X0239393Y0117660D01*
X0239858Y0114065D02*
X0274486Y0114065D01*
X0273810Y0112866D02*
X0250070Y0112866D01*
X0250803Y0111668D02*
X0273810Y0111668D01*
X0274831Y0110469D02*
X0250803Y0110469D01*
X0250010Y0109270D02*
X0274143Y0109270D01*
X0272944Y0108072D02*
X0250010Y0108072D01*
X0250010Y0106873D02*
X0271746Y0106873D01*
X0270547Y0105675D02*
X0249674Y0105675D01*
X0248475Y0104476D02*
X0269349Y0104476D01*
X0268150Y0103278D02*
X0247277Y0103278D01*
X0246078Y0102079D02*
X0266952Y0102079D01*
X0265753Y0100881D02*
X0244880Y0100881D01*
X0244061Y0099682D02*
X0264555Y0099682D01*
X0263356Y0098484D02*
X0242976Y0098484D01*
X0242951Y0097285D02*
X0262158Y0097285D01*
X0260959Y0096087D02*
X0244150Y0096087D01*
X0245348Y0094888D02*
X0259761Y0094888D01*
X0258562Y0093690D02*
X0246547Y0093690D01*
X0247745Y0092491D02*
X0257364Y0092491D01*
X0256165Y0091293D02*
X0250502Y0091293D01*
X0251822Y0090094D02*
X0254967Y0090094D01*
X0253768Y0088896D02*
X0252149Y0088896D01*
X0251943Y0087697D02*
X0252570Y0087697D01*
X0253090Y0085672D02*
X0275701Y0108283D01*
X0279458Y0108283D01*
X0279679Y0108504D01*
X0278124Y0110469D02*
X0277374Y0110469D01*
X0275350Y0118859D02*
X0229633Y0118859D01*
X0228435Y0120057D02*
X0274491Y0120057D01*
X0274491Y0121256D02*
X0227236Y0121256D01*
X0226038Y0122454D02*
X0247048Y0122454D01*
X0245849Y0123653D02*
X0224839Y0123653D01*
X0223641Y0124851D02*
X0244651Y0124851D01*
X0243452Y0126050D02*
X0222442Y0126050D01*
X0221980Y0127248D02*
X0242254Y0127248D01*
X0241055Y0128447D02*
X0221980Y0128447D01*
X0221980Y0129645D02*
X0239857Y0129645D01*
X0238658Y0130844D02*
X0221980Y0130844D01*
X0221980Y0132042D02*
X0237460Y0132042D01*
X0236261Y0133241D02*
X0221980Y0133241D01*
X0221980Y0134439D02*
X0235063Y0134439D01*
X0233864Y0135638D02*
X0221980Y0135638D01*
X0224610Y0136836D02*
X0232666Y0136836D01*
X0231467Y0138035D02*
X0225164Y0138035D01*
X0230832Y0117660D02*
X0235588Y0117660D01*
X0234823Y0116462D02*
X0232030Y0116462D01*
X0233229Y0115263D02*
X0234706Y0115263D01*
X0234427Y0114065D02*
X0235123Y0114065D01*
X0235626Y0112866D02*
X0235990Y0112866D01*
X0238990Y0112866D02*
X0246950Y0112866D01*
X0246218Y0111668D02*
X0238990Y0111668D01*
X0239768Y0110469D02*
X0246218Y0110469D01*
X0247010Y0109270D02*
X0240865Y0109270D01*
X0240865Y0108072D02*
X0247010Y0108072D01*
X0246630Y0106873D02*
X0240865Y0106873D01*
X0240865Y0105675D02*
X0245431Y0105675D01*
X0244233Y0104476D02*
X0240865Y0104476D01*
X0240865Y0103278D02*
X0243034Y0103278D01*
X0238347Y0097647D02*
X0237866Y0097167D01*
X0236050Y0095351D01*
X0235564Y0094865D01*
X0237745Y0092684D01*
X0237745Y0090972D01*
X0233045Y0090972D01*
X0233045Y0090172D01*
X0237745Y0090172D01*
X0237745Y0088460D01*
X0236757Y0087472D01*
X0246881Y0087472D01*
X0246581Y0088196D01*
X0246581Y0089304D01*
X0246613Y0089381D01*
X0238347Y0097647D01*
X0237985Y0097285D02*
X0238709Y0097285D01*
X0239907Y0096087D02*
X0236786Y0096087D01*
X0235588Y0094888D02*
X0241106Y0094888D01*
X0242304Y0093690D02*
X0236739Y0093690D01*
X0237745Y0092491D02*
X0243503Y0092491D01*
X0244701Y0091293D02*
X0237745Y0091293D01*
X0237745Y0090094D02*
X0245900Y0090094D01*
X0246581Y0088896D02*
X0237745Y0088896D01*
X0236982Y0087697D02*
X0246788Y0087697D01*
X0253090Y0085672D02*
X0230615Y0085672D01*
X0225715Y0090572D01*
X0222645Y0090572D01*
X0223135Y0090081D01*
X0223171Y0069388D01*
X0222804Y0069307D01*
X0127744Y0069307D01*
X0121240Y0062804D01*
X0121240Y0030000D01*
X0119340Y0031900D01*
X0119340Y0050249D01*
X0118989Y0050600D01*
X0113492Y0050600D01*
X0113140Y0050249D01*
X0113140Y0031900D01*
X0111240Y0030000D01*
X0111601Y0030360D01*
X0111601Y0053145D01*
X0113883Y0054139D02*
X0119440Y0054139D01*
X0119440Y0055337D02*
X0112811Y0055337D01*
X0110391Y0055337D02*
X0048340Y0055337D01*
X0048340Y0056536D02*
X0119440Y0056536D01*
X0119440Y0057734D02*
X0048340Y0057734D01*
X0048340Y0058933D02*
X0119440Y0058933D01*
X0119440Y0060132D02*
X0048340Y0060132D01*
X0048340Y0061330D02*
X0119440Y0061330D01*
X0119440Y0062529D02*
X0048340Y0062529D01*
X0048340Y0063727D02*
X0119618Y0063727D01*
X0120817Y0064926D02*
X0048340Y0064926D01*
X0048340Y0066124D02*
X0122015Y0066124D01*
X0123214Y0067323D02*
X0048340Y0067323D01*
X0048340Y0068521D02*
X0124412Y0068521D01*
X0125611Y0069720D02*
X0048340Y0069720D01*
X0048340Y0070918D02*
X0126809Y0070918D01*
X0128490Y0067507D02*
X0143570Y0067507D01*
X0142599Y0066537D01*
X0142599Y0064638D01*
X0143942Y0063295D01*
X0145841Y0063295D01*
X0146633Y0064087D01*
X0188653Y0064087D01*
X0183987Y0059422D01*
X0183987Y0054381D01*
X0183195Y0053589D01*
X0183195Y0051690D01*
X0183686Y0051200D01*
X0182751Y0051200D01*
X0182751Y0053803D01*
X0181872Y0054681D01*
X0180104Y0056449D01*
X0180104Y0056999D01*
X0178762Y0058341D01*
X0176863Y0058341D01*
X0175520Y0056999D01*
X0175520Y0055100D01*
X0176863Y0053757D01*
X0178554Y0053757D01*
X0179751Y0052560D01*
X0179751Y0051200D01*
X0178243Y0051200D01*
X0177643Y0050600D01*
X0174837Y0050600D01*
X0174237Y0051200D01*
X0171289Y0051200D01*
X0171289Y0054499D01*
X0172081Y0055291D01*
X0172081Y0057190D01*
X0170739Y0058533D01*
X0168840Y0058533D01*
X0167497Y0057190D01*
X0167497Y0055291D01*
X0168289Y0054499D01*
X0168289Y0051200D01*
X0168243Y0051200D01*
X0167643Y0050600D01*
X0164837Y0050600D01*
X0164237Y0051200D01*
X0162693Y0051200D01*
X0162693Y0053734D01*
X0163485Y0054526D01*
X0163485Y0056425D01*
X0162142Y0057768D01*
X0160244Y0057768D01*
X0158901Y0056425D01*
X0158901Y0054526D01*
X0159693Y0053734D01*
X0159693Y0051200D01*
X0158243Y0051200D01*
X0157643Y0050600D01*
X0154837Y0050600D01*
X0154237Y0051200D01*
X0152951Y0051200D01*
X0152951Y0051986D01*
X0154148Y0053184D01*
X0155648Y0053184D01*
X0156990Y0054526D01*
X0156990Y0056425D01*
X0155648Y0057768D01*
X0153749Y0057768D01*
X0152406Y0056425D01*
X0152406Y0055684D01*
X0150829Y0054108D01*
X0149951Y0053229D01*
X0149951Y0051200D01*
X0148243Y0051200D01*
X0147643Y0050600D01*
X0145236Y0050600D01*
X0145231Y0050618D01*
X0145021Y0050982D01*
X0144723Y0051280D01*
X0144358Y0051491D01*
X0143951Y0051600D01*
X0141840Y0051600D01*
X0141840Y0049681D01*
X0140640Y0049681D01*
X0140640Y0051600D01*
X0138530Y0051600D01*
X0138123Y0051491D01*
X0137758Y0051280D01*
X0137460Y0050982D01*
X0137249Y0050618D01*
X0137245Y0050600D01*
X0135236Y0050600D01*
X0135231Y0050618D01*
X0135021Y0050982D01*
X0134723Y0051280D01*
X0134358Y0051491D01*
X0133951Y0051600D01*
X0131840Y0051600D01*
X0131840Y0049681D01*
X0130640Y0049681D01*
X0130640Y0051600D01*
X0128530Y0051600D01*
X0128123Y0051491D01*
X0127758Y0051280D01*
X0127460Y0050982D01*
X0127249Y0050618D01*
X0127245Y0050600D01*
X0124837Y0050600D01*
X0124237Y0051200D01*
X0123040Y0051200D01*
X0123040Y0062058D01*
X0128490Y0067507D01*
X0128305Y0067323D02*
X0143385Y0067323D01*
X0142599Y0066124D02*
X0127106Y0066124D01*
X0125908Y0064926D02*
X0142599Y0064926D01*
X0143510Y0063727D02*
X0124709Y0063727D01*
X0123511Y0062529D02*
X0187094Y0062529D01*
X0188293Y0063727D02*
X0146273Y0063727D01*
X0141326Y0058917D02*
X0140944Y0059300D01*
X0131393Y0059300D01*
X0131393Y0030153D01*
X0131240Y0030000D01*
X0141240Y0030000D02*
X0141326Y0030086D01*
X0141326Y0058917D01*
X0149951Y0052940D02*
X0123040Y0052940D01*
X0123040Y0051742D02*
X0149951Y0051742D01*
X0150861Y0054139D02*
X0123040Y0054139D01*
X0123040Y0055337D02*
X0152059Y0055337D01*
X0152517Y0056536D02*
X0123040Y0056536D01*
X0123040Y0057734D02*
X0153715Y0057734D01*
X0155681Y0057734D02*
X0160210Y0057734D01*
X0159012Y0056536D02*
X0156879Y0056536D01*
X0156990Y0055337D02*
X0158901Y0055337D01*
X0159288Y0054139D02*
X0156603Y0054139D01*
X0153905Y0052940D02*
X0159693Y0052940D01*
X0159693Y0051742D02*
X0152951Y0051742D01*
X0141840Y0050543D02*
X0140640Y0050543D01*
X0131840Y0050543D02*
X0130640Y0050543D01*
X0123040Y0058933D02*
X0183987Y0058933D01*
X0183987Y0057734D02*
X0179369Y0057734D01*
X0180104Y0056536D02*
X0183987Y0056536D01*
X0183987Y0055337D02*
X0181216Y0055337D01*
X0182414Y0054139D02*
X0183745Y0054139D01*
X0183195Y0052940D02*
X0182751Y0052940D01*
X0182751Y0051742D02*
X0183195Y0051742D01*
X0179751Y0051742D02*
X0171289Y0051742D01*
X0171289Y0052940D02*
X0179370Y0052940D01*
X0176481Y0054139D02*
X0171289Y0054139D01*
X0172081Y0055337D02*
X0175520Y0055337D01*
X0175520Y0056536D02*
X0172081Y0056536D01*
X0171537Y0057734D02*
X0176256Y0057734D01*
X0168042Y0057734D02*
X0162176Y0057734D01*
X0163374Y0056536D02*
X0167497Y0056536D01*
X0167497Y0055337D02*
X0163485Y0055337D01*
X0163098Y0054139D02*
X0168289Y0054139D01*
X0168289Y0052940D02*
X0162693Y0052940D01*
X0162693Y0051742D02*
X0168289Y0051742D01*
X0184697Y0060132D02*
X0123040Y0060132D01*
X0123040Y0061330D02*
X0185896Y0061330D01*
X0192245Y0090972D02*
X0192245Y0095672D01*
X0190532Y0095672D01*
X0189615Y0094755D01*
X0189615Y0096955D01*
X0190698Y0095872D01*
X0194591Y0095872D01*
X0196545Y0097825D01*
X0196545Y0093884D01*
X0194757Y0095672D01*
X0193045Y0095672D01*
X0193045Y0090972D01*
X0192245Y0090972D01*
X0192245Y0091293D02*
X0193045Y0091293D01*
X0193045Y0092491D02*
X0192245Y0092491D01*
X0192245Y0093690D02*
X0193045Y0093690D01*
X0193045Y0094888D02*
X0192245Y0094888D01*
X0190483Y0096087D02*
X0189615Y0096087D01*
X0189615Y0094888D02*
X0189748Y0094888D01*
X0194806Y0096087D02*
X0196545Y0096087D01*
X0196545Y0097285D02*
X0196005Y0097285D01*
X0195541Y0094888D02*
X0196545Y0094888D01*
X0139896Y0094888D02*
X0123053Y0094888D01*
X0123053Y0094739D02*
X0122194Y0091534D01*
X0120535Y0088661D01*
X0118189Y0086315D01*
X0115316Y0084656D01*
X0114689Y0084488D01*
X0130768Y0084452D01*
X0134585Y0086621D01*
X0134585Y0087148D01*
X0135928Y0088491D01*
X0137827Y0088491D01*
X0139169Y0087148D01*
X0139169Y0085249D01*
X0137827Y0083907D01*
X0135928Y0083907D01*
X0135911Y0083924D01*
X0132079Y0081746D01*
X0131781Y0081449D01*
X0131558Y0081450D01*
X0131364Y0081340D01*
X0130959Y0081451D01*
X0075372Y0081577D01*
X0074323Y0080529D01*
X0072425Y0080529D01*
X0071082Y0081872D01*
X0071082Y0083770D01*
X0072425Y0085113D01*
X0074323Y0085113D01*
X0074858Y0084578D01*
X0106145Y0084507D01*
X0105589Y0084656D01*
X0102716Y0086315D01*
X0100370Y0088661D01*
X0098712Y0091534D01*
X0097853Y0094739D01*
X0097853Y0098056D01*
X0098712Y0101261D01*
X0100370Y0104134D01*
X0102716Y0106480D01*
X0105589Y0108139D01*
X0108794Y0108998D01*
X0112112Y0108998D01*
X0115316Y0108139D01*
X0118189Y0106480D01*
X0120535Y0104134D01*
X0122194Y0101261D01*
X0123053Y0098056D01*
X0123053Y0094739D01*
X0122772Y0093690D02*
X0139896Y0093690D01*
X0139896Y0092491D02*
X0122451Y0092491D01*
X0122055Y0091293D02*
X0139896Y0091293D01*
X0139896Y0090094D02*
X0121363Y0090094D01*
X0120671Y0088896D02*
X0139896Y0088896D01*
X0139896Y0087697D02*
X0138620Y0087697D01*
X0139169Y0086499D02*
X0139896Y0086499D01*
X0139896Y0085300D02*
X0139169Y0085300D01*
X0139896Y0084102D02*
X0138022Y0084102D01*
X0139896Y0082903D02*
X0134115Y0082903D01*
X0132038Y0081705D02*
X0139896Y0081705D01*
X0139896Y0080506D02*
X0048340Y0080506D01*
X0048340Y0079308D02*
X0139896Y0079308D01*
X0139896Y0078109D02*
X0048340Y0078109D01*
X0048340Y0076911D02*
X0139896Y0076911D01*
X0139896Y0075712D02*
X0048340Y0075712D01*
X0048340Y0074514D02*
X0137760Y0074514D01*
X0137107Y0073315D02*
X0048340Y0073315D01*
X0048340Y0072117D02*
X0137107Y0072117D01*
X0132261Y0085300D02*
X0116432Y0085300D01*
X0118373Y0086499D02*
X0134370Y0086499D01*
X0135134Y0087697D02*
X0119572Y0087697D01*
X0123053Y0096087D02*
X0139896Y0096087D01*
X0139896Y0097285D02*
X0123053Y0097285D01*
X0122938Y0098484D02*
X0139896Y0098484D01*
X0139896Y0099682D02*
X0122617Y0099682D01*
X0122296Y0100881D02*
X0139896Y0100881D01*
X0139896Y0102079D02*
X0121722Y0102079D01*
X0121030Y0103278D02*
X0139896Y0103278D01*
X0139896Y0104476D02*
X0120193Y0104476D01*
X0118995Y0105675D02*
X0139896Y0105675D01*
X0139896Y0106873D02*
X0117508Y0106873D01*
X0115432Y0108072D02*
X0139896Y0108072D01*
X0139896Y0109270D02*
X0006765Y0109270D01*
X0006765Y0108072D02*
X0105473Y0108072D01*
X0103398Y0106873D02*
X0006765Y0106873D01*
X0006765Y0105675D02*
X0101911Y0105675D01*
X0100713Y0104476D02*
X0044954Y0104476D01*
X0046968Y0103278D02*
X0099876Y0103278D01*
X0099184Y0102079D02*
X0047858Y0102079D01*
X0048340Y0100881D02*
X0098610Y0100881D01*
X0098289Y0099682D02*
X0048340Y0099682D01*
X0048340Y0098484D02*
X0097967Y0098484D01*
X0097853Y0097285D02*
X0048340Y0097285D01*
X0048340Y0096087D02*
X0097853Y0096087D01*
X0097853Y0094888D02*
X0048340Y0094888D01*
X0048340Y0093690D02*
X0098134Y0093690D01*
X0098455Y0092491D02*
X0048340Y0092491D01*
X0048340Y0091293D02*
X0098851Y0091293D01*
X0099543Y0090094D02*
X0048340Y0090094D01*
X0048340Y0088896D02*
X0100235Y0088896D01*
X0101334Y0087697D02*
X0048340Y0087697D01*
X0048340Y0086499D02*
X0102533Y0086499D01*
X0104474Y0085300D02*
X0048340Y0085300D01*
X0048340Y0084102D02*
X0071413Y0084102D01*
X0071082Y0082903D02*
X0048340Y0082903D01*
X0048340Y0081705D02*
X0071249Y0081705D01*
X0095768Y0054139D02*
X0109318Y0054139D01*
X0109112Y0052940D02*
X0097305Y0052940D01*
X0097998Y0051742D02*
X0109488Y0051742D01*
X0114090Y0052940D02*
X0119440Y0052940D01*
X0139896Y0110469D02*
X0006765Y0110469D01*
X0006765Y0111668D02*
X0139896Y0111668D01*
X0139896Y0112866D02*
X0006765Y0112866D01*
X0006765Y0114065D02*
X0139896Y0114065D01*
X0139896Y0115263D02*
X0006765Y0115263D01*
X0006765Y0116462D02*
X0139896Y0116462D01*
X0139896Y0117660D02*
X0006765Y0117660D01*
X0006765Y0118859D02*
X0139896Y0118859D01*
X0139896Y0120057D02*
X0006765Y0120057D01*
X0006765Y0121256D02*
X0139896Y0121256D01*
X0139896Y0122454D02*
X0039496Y0122454D01*
X0041634Y0123653D02*
X0139896Y0123653D01*
X0139896Y0124851D02*
X0043674Y0124851D01*
X0044873Y0126050D02*
X0139896Y0126050D01*
X0139896Y0127248D02*
X0046071Y0127248D01*
X0047115Y0128447D02*
X0139896Y0128447D01*
X0139896Y0129645D02*
X0135507Y0129645D01*
X0136705Y0130844D02*
X0139896Y0130844D01*
X0139896Y0132042D02*
X0137904Y0132042D01*
X0139102Y0133241D02*
X0139896Y0133241D01*
X0101349Y0129645D02*
X0047807Y0129645D01*
X0048499Y0130844D02*
X0100150Y0130844D01*
X0098952Y0132042D02*
X0049191Y0132042D01*
X0049527Y0133241D02*
X0097753Y0133241D01*
X0096555Y0134439D02*
X0049848Y0134439D01*
X0050170Y0135638D02*
X0095356Y0135638D01*
X0094158Y0136836D02*
X0050419Y0136836D01*
X0050419Y0138035D02*
X0092959Y0138035D01*
X0091761Y0139233D02*
X0050419Y0139233D01*
X0050419Y0140432D02*
X0090562Y0140432D01*
X0089364Y0141630D02*
X0050304Y0141630D01*
X0049983Y0142829D02*
X0088165Y0142829D01*
X0086967Y0144027D02*
X0049662Y0144027D01*
X0049341Y0145226D02*
X0085768Y0145226D01*
X0084570Y0146424D02*
X0048789Y0146424D01*
X0048097Y0147623D02*
X0083371Y0147623D01*
X0082173Y0148821D02*
X0047405Y0148821D01*
X0046575Y0150020D02*
X0080974Y0150020D01*
X0079776Y0151218D02*
X0045377Y0151218D01*
X0044178Y0152417D02*
X0078577Y0152417D01*
X0077379Y0153615D02*
X0042507Y0153615D01*
X0040431Y0154814D02*
X0076180Y0154814D01*
X0028735Y0156012D02*
X0006765Y0156012D01*
X0006765Y0154814D02*
X0025207Y0154814D01*
X0023131Y0153615D02*
X0006765Y0153615D01*
X0006765Y0152417D02*
X0021460Y0152417D01*
X0020261Y0151218D02*
X0006765Y0151218D01*
X0006765Y0150020D02*
X0019063Y0150020D01*
X0018233Y0148821D02*
X0006765Y0148821D01*
X0006765Y0147623D02*
X0017541Y0147623D01*
X0016849Y0146424D02*
X0006765Y0146424D01*
X0006765Y0145226D02*
X0016297Y0145226D01*
X0015976Y0144027D02*
X0006765Y0144027D01*
X0006765Y0142829D02*
X0015655Y0142829D01*
X0015334Y0141630D02*
X0006765Y0141630D01*
X0006765Y0140432D02*
X0015219Y0140432D01*
X0015219Y0139233D02*
X0006765Y0139233D01*
X0006765Y0138035D02*
X0015219Y0138035D01*
X0015219Y0136836D02*
X0006765Y0136836D01*
X0006765Y0135638D02*
X0015468Y0135638D01*
X0015790Y0134439D02*
X0006765Y0134439D01*
X0006765Y0133241D02*
X0016111Y0133241D01*
X0016447Y0132042D02*
X0006765Y0132042D01*
X0006765Y0130844D02*
X0017139Y0130844D01*
X0017831Y0129645D02*
X0006765Y0129645D01*
X0006765Y0128447D02*
X0018523Y0128447D01*
X0019566Y0127248D02*
X0006765Y0127248D01*
X0006765Y0126050D02*
X0020765Y0126050D01*
X0021964Y0124851D02*
X0006765Y0124851D01*
X0006765Y0123653D02*
X0024004Y0123653D01*
X0026142Y0122454D02*
X0006765Y0122454D01*
X0172740Y0185003D02*
X0172740Y0201358D01*
X0172817Y0201390D01*
X0173601Y0202173D01*
X0174024Y0203196D01*
X0174024Y0203844D01*
X0209740Y0168129D01*
X0210619Y0167250D01*
X0226348Y0167250D01*
X0226380Y0167173D01*
X0227163Y0166390D01*
X0228186Y0165966D01*
X0229294Y0165966D01*
X0230317Y0166390D01*
X0231101Y0167173D01*
X0231524Y0168196D01*
X0231524Y0169304D01*
X0231101Y0170327D01*
X0230317Y0171110D01*
X0229294Y0171534D01*
X0228186Y0171534D01*
X0227266Y0171153D01*
X0233539Y0177426D01*
X0233600Y0177487D01*
X0233989Y0177487D01*
X0235332Y0178830D01*
X0235332Y0180729D01*
X0233989Y0182072D01*
X0232115Y0182072D01*
X0232115Y0190004D01*
X0236234Y0194123D01*
X0236311Y0194091D01*
X0237419Y0194091D01*
X0238442Y0194515D01*
X0239226Y0195298D01*
X0239649Y0196321D01*
X0239649Y0197429D01*
X0239226Y0198452D01*
X0238442Y0199235D01*
X0237633Y0199571D01*
X0241941Y0203880D01*
X0262900Y0203880D01*
X0274054Y0192726D01*
X0274082Y0192726D01*
X0275112Y0191696D01*
X0275116Y0191639D01*
X0275546Y0191263D01*
X0275950Y0190858D01*
X0276008Y0190858D01*
X0276679Y0190271D01*
X0277040Y0189875D01*
X0277137Y0189870D01*
X0277210Y0189806D01*
X0277745Y0189842D01*
X0278281Y0189817D01*
X0278353Y0189882D01*
X0278450Y0189889D01*
X0278803Y0190292D01*
X0281789Y0193011D01*
X0282415Y0193011D01*
X0260133Y0172146D01*
X0259851Y0172827D01*
X0259067Y0173610D01*
X0258044Y0174034D01*
X0256936Y0174034D01*
X0255913Y0173610D01*
X0255130Y0172827D01*
X0254706Y0171804D01*
X0254706Y0170696D01*
X0254738Y0170619D01*
X0251054Y0166935D01*
X0250324Y0167665D01*
X0250324Y0170142D01*
X0251116Y0170934D01*
X0251116Y0172833D01*
X0249773Y0174176D01*
X0247875Y0174176D01*
X0246532Y0172833D01*
X0246532Y0170934D01*
X0247324Y0170142D01*
X0247324Y0167665D01*
X0246532Y0166873D01*
X0246532Y0164974D01*
X0247506Y0164000D01*
X0194369Y0164000D01*
X0190334Y0159965D01*
X0190226Y0165649D01*
X0190233Y0165656D01*
X0190215Y0166268D01*
X0190203Y0166881D01*
X0190196Y0166888D01*
X0190125Y0169184D01*
X0190125Y0170303D01*
X0190205Y0170798D01*
X0190125Y0170908D01*
X0190125Y0171045D01*
X0189771Y0171399D01*
X0188954Y0172529D01*
X0188955Y0172663D01*
X0188600Y0173020D01*
X0188305Y0173428D01*
X0188173Y0173449D01*
X0188078Y0173544D01*
X0187575Y0173546D01*
X0187078Y0173626D01*
X0186970Y0173547D01*
X0184357Y0173554D01*
X0172740Y0185003D01*
X0172970Y0184777D02*
X0193092Y0184777D01*
X0191894Y0185975D02*
X0172740Y0185975D01*
X0172740Y0187174D02*
X0190695Y0187174D01*
X0189497Y0188372D02*
X0172740Y0188372D01*
X0172740Y0189571D02*
X0188298Y0189571D01*
X0187100Y0190769D02*
X0172740Y0190769D01*
X0172740Y0191968D02*
X0185901Y0191968D01*
X0184703Y0193166D02*
X0172740Y0193166D01*
X0172740Y0194365D02*
X0183504Y0194365D01*
X0182306Y0195563D02*
X0172740Y0195563D01*
X0172740Y0196762D02*
X0181107Y0196762D01*
X0179909Y0197960D02*
X0172740Y0197960D01*
X0172740Y0199159D02*
X0178710Y0199159D01*
X0177512Y0200357D02*
X0172740Y0200357D01*
X0172984Y0201556D02*
X0176313Y0201556D01*
X0175115Y0202754D02*
X0173841Y0202754D01*
X0174186Y0183578D02*
X0194291Y0183578D01*
X0195489Y0182380D02*
X0193060Y0182380D01*
X0192446Y0182994D02*
X0190547Y0182994D01*
X0189204Y0181651D01*
X0189204Y0179752D01*
X0190184Y0178773D01*
X0190184Y0177020D01*
X0189391Y0176227D01*
X0189391Y0174329D01*
X0190734Y0172986D01*
X0192633Y0172986D01*
X0193976Y0174329D01*
X0193976Y0176227D01*
X0193184Y0177020D01*
X0193184Y0179147D01*
X0193789Y0179752D01*
X0193789Y0181651D01*
X0192446Y0182994D01*
X0193789Y0181181D02*
X0196688Y0181181D01*
X0197886Y0179983D02*
X0193789Y0179983D01*
X0193184Y0178784D02*
X0199085Y0178784D01*
X0200283Y0177586D02*
X0193184Y0177586D01*
X0193816Y0176387D02*
X0201482Y0176387D01*
X0202680Y0175189D02*
X0193976Y0175189D01*
X0193637Y0173990D02*
X0203879Y0173990D01*
X0205077Y0172792D02*
X0188827Y0172792D01*
X0189630Y0171593D02*
X0206276Y0171593D01*
X0207474Y0170395D02*
X0190140Y0170395D01*
X0190125Y0169196D02*
X0208673Y0169196D01*
X0209871Y0167998D02*
X0190161Y0167998D01*
X0190205Y0166799D02*
X0226754Y0166799D01*
X0230727Y0166799D02*
X0246532Y0166799D01*
X0246532Y0165601D02*
X0190227Y0165601D01*
X0190250Y0164402D02*
X0247104Y0164402D01*
X0247324Y0167998D02*
X0231442Y0167998D01*
X0231524Y0169196D02*
X0247324Y0169196D01*
X0247072Y0170395D02*
X0231033Y0170395D01*
X0228905Y0172792D02*
X0246532Y0172792D01*
X0246532Y0171593D02*
X0227706Y0171593D01*
X0230103Y0173990D02*
X0247689Y0173990D01*
X0249959Y0173990D02*
X0256830Y0173990D01*
X0258151Y0173990D02*
X0262101Y0173990D01*
X0260822Y0172792D02*
X0259865Y0172792D01*
X0263381Y0175189D02*
X0231302Y0175189D01*
X0232500Y0176387D02*
X0264661Y0176387D01*
X0265941Y0177586D02*
X0234088Y0177586D01*
X0235286Y0178784D02*
X0267221Y0178784D01*
X0268501Y0179983D02*
X0235332Y0179983D01*
X0234880Y0181181D02*
X0269781Y0181181D01*
X0271061Y0182380D02*
X0232115Y0182380D01*
X0232115Y0183578D02*
X0272341Y0183578D01*
X0273621Y0184777D02*
X0232115Y0184777D01*
X0232115Y0185975D02*
X0274901Y0185975D01*
X0276181Y0187174D02*
X0232115Y0187174D01*
X0232115Y0188372D02*
X0277461Y0188372D01*
X0278741Y0189571D02*
X0232115Y0189571D01*
X0232881Y0190769D02*
X0276109Y0190769D01*
X0274841Y0191968D02*
X0234079Y0191968D01*
X0235278Y0193166D02*
X0273614Y0193166D01*
X0272415Y0194365D02*
X0238081Y0194365D01*
X0239336Y0195563D02*
X0271217Y0195563D01*
X0270018Y0196762D02*
X0239649Y0196762D01*
X0239429Y0197960D02*
X0268820Y0197960D01*
X0267621Y0199159D02*
X0238519Y0199159D01*
X0238419Y0200357D02*
X0266423Y0200357D01*
X0265224Y0201556D02*
X0239618Y0201556D01*
X0240816Y0202754D02*
X0264026Y0202754D01*
X0279327Y0190769D02*
X0280021Y0190769D01*
X0280643Y0191968D02*
X0281301Y0191968D01*
X0255115Y0172792D02*
X0251116Y0172792D01*
X0251116Y0171593D02*
X0254706Y0171593D01*
X0254513Y0170395D02*
X0250576Y0170395D01*
X0250324Y0169196D02*
X0253315Y0169196D01*
X0252116Y0167998D02*
X0250324Y0167998D01*
X0210947Y0201171D02*
X0210505Y0200729D01*
X0210947Y0201171D02*
X0210947Y0201392D01*
X0219555Y0210000D01*
X0220728Y0210000D01*
X0226478Y0209945D02*
X0231152Y0209945D01*
X0231152Y0209400D02*
X0227002Y0209400D01*
X0227002Y0206246D01*
X0227083Y0205947D01*
X0223065Y0201930D01*
X0222844Y0201930D01*
X0223797Y0202883D01*
X0223797Y0203857D01*
X0224955Y0203857D01*
X0225599Y0204501D01*
X0226478Y0205380D01*
X0226478Y0218698D01*
X0236825Y0229045D01*
X0236889Y0229045D01*
X0242220Y0234376D01*
X0258293Y0234376D01*
X0259558Y0233111D01*
X0260437Y0232232D01*
X0286895Y0232232D01*
X0279326Y0224664D01*
X0279326Y0215323D01*
X0281274Y0213375D01*
X0246237Y0213375D01*
X0245243Y0214369D01*
X0245274Y0214446D01*
X0245274Y0215554D01*
X0244851Y0216577D01*
X0244067Y0217360D01*
X0243044Y0217784D01*
X0241936Y0217784D01*
X0240913Y0217360D01*
X0240130Y0216577D01*
X0239706Y0215554D01*
X0239706Y0214446D01*
X0240130Y0213423D01*
X0240913Y0212640D01*
X0241936Y0212216D01*
X0243044Y0212216D01*
X0243121Y0212248D01*
X0244289Y0211080D01*
X0238959Y0211080D01*
X0236502Y0208622D01*
X0236502Y0209400D01*
X0232352Y0209400D01*
X0232352Y0210600D01*
X0231152Y0210600D01*
X0231152Y0209400D01*
X0231152Y0210600D02*
X0227002Y0210600D01*
X0227002Y0213754D01*
X0227111Y0214161D01*
X0227322Y0214526D01*
X0227620Y0214824D01*
X0227985Y0215034D01*
X0228392Y0215143D01*
X0231152Y0215143D01*
X0231152Y0210600D01*
X0231152Y0211144D02*
X0232352Y0211144D01*
X0232352Y0210600D02*
X0232352Y0215143D01*
X0235112Y0215143D01*
X0235519Y0215034D01*
X0235884Y0214824D01*
X0236182Y0214526D01*
X0236393Y0214161D01*
X0236502Y0213754D01*
X0236502Y0210600D01*
X0232352Y0210600D01*
X0232352Y0209945D02*
X0237825Y0209945D01*
X0236626Y0208747D02*
X0236502Y0208747D01*
X0236502Y0211144D02*
X0244225Y0211144D01*
X0241631Y0212342D02*
X0236502Y0212342D01*
X0236502Y0213541D02*
X0240081Y0213541D01*
X0239706Y0214739D02*
X0235968Y0214739D01*
X0232352Y0214739D02*
X0231152Y0214739D01*
X0231152Y0213541D02*
X0232352Y0213541D01*
X0232352Y0212342D02*
X0231152Y0212342D01*
X0227002Y0212342D02*
X0226478Y0212342D01*
X0226478Y0211144D02*
X0227002Y0211144D01*
X0227002Y0213541D02*
X0226478Y0213541D01*
X0226478Y0214739D02*
X0227536Y0214739D01*
X0226478Y0215938D02*
X0239865Y0215938D01*
X0240689Y0217137D02*
X0226478Y0217137D01*
X0226478Y0218335D02*
X0279326Y0218335D01*
X0279326Y0217137D02*
X0244291Y0217137D01*
X0245115Y0215938D02*
X0279326Y0215938D01*
X0279909Y0214739D02*
X0245274Y0214739D01*
X0246071Y0213541D02*
X0281108Y0213541D01*
X0279326Y0219534D02*
X0227314Y0219534D01*
X0228512Y0220732D02*
X0279326Y0220732D01*
X0279326Y0221931D02*
X0229711Y0221931D01*
X0230909Y0223129D02*
X0279326Y0223129D01*
X0279326Y0224328D02*
X0232108Y0224328D01*
X0233306Y0225526D02*
X0280189Y0225526D01*
X0281387Y0226725D02*
X0234505Y0226725D01*
X0235703Y0227923D02*
X0282586Y0227923D01*
X0283784Y0229122D02*
X0236965Y0229122D01*
X0238164Y0230320D02*
X0284983Y0230320D01*
X0286181Y0231519D02*
X0239362Y0231519D01*
X0240561Y0232717D02*
X0259952Y0232717D01*
X0258753Y0233916D02*
X0241759Y0233916D01*
X0259848Y0243504D02*
X0263198Y0243504D01*
X0262275Y0244702D02*
X0260637Y0244702D01*
X0261014Y0245901D02*
X0261792Y0245901D01*
X0261792Y0247099D02*
X0261088Y0247099D01*
X0261088Y0248298D02*
X0261792Y0248298D01*
X0261792Y0249496D02*
X0261088Y0249496D01*
X0266777Y0239908D02*
X0321659Y0239908D01*
X0340206Y0244702D02*
X0357542Y0244702D01*
X0356343Y0245901D02*
X0348103Y0245901D01*
X0349703Y0247099D02*
X0355145Y0247099D01*
X0353946Y0248298D02*
X0350406Y0248298D01*
X0350740Y0249496D02*
X0352748Y0249496D01*
X0351549Y0250695D02*
X0350740Y0250695D01*
X0350351Y0251893D02*
X0350327Y0251893D01*
X0347954Y0254290D02*
X0347641Y0254290D01*
X0346755Y0255489D02*
X0340127Y0255489D01*
X0340623Y0254290D02*
X0344839Y0254290D01*
X0342968Y0253092D02*
X0340688Y0253092D01*
X0340688Y0251893D02*
X0342154Y0251893D01*
X0341740Y0250695D02*
X0340688Y0250695D01*
X0340688Y0249496D02*
X0341740Y0249496D01*
X0342075Y0248298D02*
X0340688Y0248298D01*
X0340688Y0247099D02*
X0342777Y0247099D01*
X0344378Y0245901D02*
X0340688Y0245901D01*
X0227002Y0208747D02*
X0226478Y0208747D01*
X0226478Y0207548D02*
X0227002Y0207548D01*
X0227002Y0206350D02*
X0226478Y0206350D01*
X0226287Y0205151D02*
X0226250Y0205151D01*
X0225088Y0203953D02*
X0225051Y0203953D01*
X0223890Y0202754D02*
X0223669Y0202754D01*
X0189933Y0182380D02*
X0175402Y0182380D01*
X0176618Y0181181D02*
X0189204Y0181181D01*
X0189204Y0179983D02*
X0177834Y0179983D01*
X0179050Y0178784D02*
X0190172Y0178784D01*
X0190184Y0177586D02*
X0180266Y0177586D01*
X0181482Y0176387D02*
X0189551Y0176387D01*
X0189391Y0175189D02*
X0182698Y0175189D01*
X0183914Y0173990D02*
X0189730Y0173990D01*
X0190272Y0163203D02*
X0193572Y0163203D01*
X0192374Y0162005D02*
X0190295Y0162005D01*
X0190318Y0160806D02*
X0191175Y0160806D01*
X0307549Y0062529D02*
X0378354Y0062529D01*
X0379552Y0063727D02*
X0337089Y0063727D01*
X0309977Y0058933D02*
X0374758Y0058933D01*
X0375957Y0060132D02*
X0309290Y0060132D01*
X0308862Y0061330D02*
X0377155Y0061330D01*
D19*
X0323605Y0091422D03*
X0348741Y0102753D03*
X0357359Y0104976D03*
X0357209Y0108361D03*
X0358202Y0118288D03*
X0383547Y0124306D03*
X0385425Y0150247D03*
X0363669Y0161053D03*
X0357342Y0157920D03*
X0353870Y0174186D03*
X0358732Y0176839D03*
X0350769Y0191922D03*
X0337121Y0189425D03*
X0336289Y0175443D03*
X0319313Y0176109D03*
X0286584Y0195052D03*
X0282078Y0195303D03*
X0282371Y0198233D03*
X0276246Y0198018D03*
X0276246Y0201506D03*
X0276246Y0204890D03*
X0288684Y0204772D03*
X0292830Y0204061D03*
X0297805Y0205246D03*
X0298732Y0209388D03*
X0303136Y0209511D03*
X0308348Y0209511D03*
X0293192Y0209580D03*
X0285467Y0214397D03*
X0283218Y0216935D03*
X0327964Y0237430D03*
X0333959Y0228540D03*
X0348938Y0225544D03*
X0353598Y0225544D03*
X0358924Y0225877D03*
X0363706Y0226042D03*
X0343612Y0209232D03*
X0382433Y0205253D03*
X0298229Y0148212D03*
X0282371Y0159303D03*
X0270205Y0168751D03*
X0270346Y0173414D03*
X0276873Y0171282D03*
X0261043Y0164515D03*
X0261523Y0158917D03*
X0250304Y0158917D03*
X0248824Y0165924D03*
X0248824Y0171884D03*
X0233040Y0179780D03*
X0224117Y0176456D03*
X0218691Y0178525D03*
X0215454Y0176736D03*
X0220190Y0192449D03*
X0215444Y0197725D03*
X0222894Y0199637D03*
X0221505Y0203832D03*
X0210498Y0211956D03*
X0191653Y0199358D03*
X0201509Y0194075D03*
X0191497Y0180701D03*
X0191684Y0175278D03*
X0186074Y0170042D03*
X0172232Y0166935D03*
X0168854Y0169102D03*
X0164913Y0172678D03*
X0169304Y0176507D03*
X0173133Y0179097D03*
X0155445Y0173379D03*
X0134284Y0179323D03*
X0130794Y0176395D03*
X0126965Y0172115D03*
X0123339Y0155641D03*
X0134067Y0149162D03*
X0121078Y0143426D03*
X0132921Y0132528D03*
X0141396Y0138325D03*
X0151260Y0140749D03*
X0155653Y0140940D03*
X0160238Y0140940D03*
X0164632Y0140940D03*
X0169216Y0140797D03*
X0172655Y0135969D03*
X0177430Y0127748D03*
X0180603Y0117576D03*
X0201551Y0115459D03*
X0205511Y0115320D03*
X0211492Y0111496D03*
X0207503Y0107053D03*
X0223850Y0114399D03*
X0225547Y0112100D03*
X0230726Y0112261D03*
X0241769Y0100519D03*
X0244228Y0098227D03*
X0241890Y0090466D03*
X0261337Y0098788D03*
X0248510Y0111184D03*
X0255879Y0126242D03*
X0256349Y0130950D03*
X0258387Y0135966D03*
X0272212Y0144734D03*
X0274709Y0141321D03*
X0275541Y0147480D03*
X0282371Y0136217D03*
X0282371Y0123226D03*
X0282371Y0119813D03*
X0276783Y0120666D03*
X0282371Y0116401D03*
X0282844Y0110996D03*
X0276103Y0112439D03*
X0295305Y0106480D03*
X0297864Y0114450D03*
X0298761Y0120899D03*
X0298160Y0124370D03*
X0305973Y0120762D03*
X0311232Y0122416D03*
X0326269Y0111194D03*
X0306998Y0059952D03*
X0306837Y0055762D03*
X0281200Y0054602D03*
X0266069Y0062344D03*
X0250975Y0053564D03*
X0241042Y0053755D03*
X0230917Y0053755D03*
X0220984Y0053564D03*
X0211051Y0055858D03*
X0197297Y0056241D03*
X0191184Y0055858D03*
X0185487Y0052640D03*
X0177812Y0056049D03*
X0169789Y0056241D03*
X0161193Y0055476D03*
X0154698Y0055476D03*
X0144891Y0065587D03*
X0139399Y0072911D03*
X0143760Y0079833D03*
X0151069Y0075360D03*
X0155653Y0075551D03*
X0160238Y0075742D03*
X0164823Y0075742D03*
X0169216Y0075742D03*
X0173419Y0075934D03*
X0183734Y0075360D03*
X0195026Y0074489D03*
X0199398Y0072875D03*
X0207230Y0073066D03*
X0136877Y0086199D03*
X0131393Y0059300D03*
X0073374Y0082821D03*
X0187364Y0137308D03*
X0189721Y0134057D03*
X0211126Y0136715D03*
X0217682Y0143661D03*
X0220480Y0145871D03*
X0217614Y0148916D03*
X0211816Y0147677D03*
X0224695Y0148844D03*
X0224952Y0143725D03*
X0222872Y0138339D03*
X0211132Y0157134D03*
X0215625Y0160296D03*
X0195487Y0153805D03*
X0186999Y0151308D03*
X0128316Y0223579D03*
X0132730Y0238833D03*
X0201171Y0230336D03*
X0228898Y0228045D03*
X0234625Y0234627D03*
X0083651Y0185030D03*
X0074942Y0185178D03*
X0066047Y0185066D03*
D20*
X0066047Y0168850D01*
X0068186Y0166710D01*
X0171781Y0166710D01*
X0171894Y0166823D01*
X0172119Y0166823D01*
X0172232Y0166935D01*
X0168854Y0169102D02*
X0168629Y0168877D01*
X0168629Y0168737D01*
X0168403Y0168512D01*
X0077082Y0168512D01*
X0074942Y0170651D01*
X0074942Y0185178D01*
X0083555Y0184935D02*
X0083555Y0176530D01*
X0085578Y0174508D01*
X0127956Y0174508D01*
X0128945Y0173519D01*
X0142781Y0173538D01*
X0143327Y0173538D01*
X0143486Y0173379D01*
X0155445Y0173379D01*
X0159073Y0170800D02*
X0160389Y0172115D01*
X0164237Y0172115D01*
X0165138Y0173016D01*
X0165138Y0172904D01*
X0164913Y0172678D01*
X0159073Y0170800D02*
X0144085Y0170800D01*
X0142748Y0172137D01*
X0126965Y0172115D01*
X0130794Y0176395D02*
X0168966Y0176395D01*
X0169192Y0176620D01*
X0169304Y0176507D01*
X0169192Y0176620D02*
X0169192Y0176620D01*
X0172344Y0179323D02*
X0172570Y0179097D01*
X0173133Y0179097D01*
X0172344Y0179323D02*
X0134284Y0179323D01*
X0130631Y0182976D01*
X0130631Y0201946D01*
X0125924Y0206653D01*
X0125924Y0224570D01*
X0126274Y0224919D01*
X0126274Y0235622D01*
X0127092Y0236441D01*
X0133721Y0236441D01*
X0134557Y0237276D01*
X0321148Y0237276D01*
X0326240Y0242368D01*
X0326240Y0250000D01*
X0328740Y0241250D02*
X0358115Y0241250D01*
X0384990Y0214375D01*
X0384990Y0197500D01*
X0359365Y0171875D01*
X0353115Y0171875D01*
X0347490Y0177500D01*
X0334990Y0177500D01*
X0319990Y0162500D01*
X0319990Y0160625D01*
X0311865Y0165625D02*
X0268115Y0165625D01*
X0269968Y0168870D02*
X0270086Y0168870D01*
X0270205Y0168751D01*
X0269968Y0168870D02*
X0308348Y0207249D01*
X0308348Y0209511D01*
X0309365Y0211875D02*
X0245615Y0211875D01*
X0242490Y0215000D01*
X0242103Y0220351D02*
X0231752Y0210000D01*
X0228613Y0205357D02*
X0223085Y0199829D01*
X0223085Y0199828D01*
X0222894Y0199637D01*
X0221505Y0203832D02*
X0223030Y0205357D01*
X0224334Y0205357D01*
X0224978Y0206001D01*
X0224978Y0219319D01*
X0236204Y0230545D01*
X0236267Y0230545D01*
X0241598Y0235876D01*
X0258914Y0235876D01*
X0261058Y0233732D01*
X0361380Y0233732D01*
X0367499Y0227613D01*
X0367499Y0182222D01*
X0359723Y0174447D01*
X0353901Y0174447D01*
X0353755Y0174301D01*
X0353755Y0174301D01*
X0353870Y0174186D01*
X0358539Y0177032D02*
X0358539Y0182130D01*
X0366099Y0189690D01*
X0366099Y0227033D01*
X0360800Y0232332D01*
X0289116Y0232332D01*
X0280826Y0224042D01*
X0280826Y0215944D01*
X0282228Y0214543D01*
X0285322Y0214543D01*
X0285467Y0214397D01*
X0283218Y0216935D02*
X0283218Y0224455D01*
X0288421Y0229657D01*
X0331693Y0229657D01*
X0332968Y0230932D01*
X0358961Y0230932D01*
X0363706Y0226187D01*
X0363706Y0226042D01*
X0358924Y0226043D02*
X0358758Y0225877D01*
X0358924Y0225877D01*
X0358924Y0226043D02*
X0358924Y0226543D01*
X0356927Y0228540D01*
X0333959Y0228540D01*
X0330506Y0235132D02*
X0327964Y0237674D01*
X0327964Y0237430D01*
X0330506Y0235132D02*
X0356600Y0235132D01*
X0361959Y0235132D01*
X0382433Y0214659D01*
X0382433Y0205253D01*
X0390615Y0213750D02*
X0346865Y0257500D01*
X0160615Y0257500D01*
X0144990Y0241875D01*
X0132730Y0238833D02*
X0263580Y0238833D01*
X0266448Y0241701D01*
X0266448Y0249792D01*
X0266240Y0250000D01*
X0234625Y0234627D02*
X0234625Y0233772D01*
X0228776Y0227923D01*
X0228776Y0227923D01*
X0228898Y0228045D01*
X0242103Y0220351D02*
X0244505Y0220351D01*
X0239580Y0209580D02*
X0235357Y0205357D01*
X0228613Y0205357D01*
X0229226Y0197245D02*
X0215538Y0197245D01*
X0215253Y0196961D01*
X0215253Y0197534D01*
X0215444Y0197725D01*
X0218714Y0194955D02*
X0228706Y0194956D01*
X0240803Y0206892D01*
X0264102Y0206780D01*
X0275255Y0195626D01*
X0277237Y0195626D01*
X0279174Y0197563D01*
X0281918Y0197563D01*
X0281918Y0197780D01*
X0282371Y0198233D01*
X0282078Y0195303D02*
X0277730Y0191344D01*
X0276571Y0192358D01*
X0274704Y0194226D01*
X0274675Y0194226D01*
X0263522Y0205380D01*
X0241320Y0205380D01*
X0224117Y0188176D01*
X0224117Y0176456D01*
X0224990Y0174375D02*
X0230615Y0180000D01*
X0230615Y0190625D01*
X0236865Y0196875D01*
X0229226Y0197245D02*
X0240160Y0208180D01*
X0291209Y0208180D01*
X0292201Y0207187D01*
X0294183Y0207187D01*
X0296384Y0209388D01*
X0298732Y0209388D01*
X0302321Y0209511D02*
X0302321Y0205734D01*
X0301477Y0204890D01*
X0301477Y0203465D01*
X0290461Y0192449D01*
X0287026Y0192449D01*
X0286907Y0192568D01*
X0251607Y0158798D01*
X0250423Y0158798D01*
X0250304Y0158917D01*
X0248704Y0157134D02*
X0249314Y0156525D01*
X0304721Y0156525D01*
X0337288Y0189092D01*
X0337288Y0189258D01*
X0337121Y0189425D01*
X0340284Y0188260D02*
X0340284Y0222715D01*
X0343446Y0225877D01*
X0348439Y0225877D01*
X0348605Y0225711D01*
X0348772Y0225711D01*
X0348938Y0225544D01*
X0350769Y0222715D02*
X0353598Y0225544D01*
X0353765Y0225711D01*
X0350769Y0222715D02*
X0350769Y0191922D01*
X0342780Y0187427D02*
X0342780Y0208067D01*
X0343779Y0209066D01*
X0343612Y0209232D01*
X0328740Y0198125D02*
X0323115Y0198125D01*
X0309365Y0211875D01*
X0303136Y0209511D02*
X0302321Y0209511D01*
X0297805Y0205246D02*
X0297805Y0203231D01*
X0295199Y0200625D01*
X0279445Y0200625D01*
X0276365Y0197544D01*
X0276365Y0197900D01*
X0276246Y0198018D01*
X0276246Y0201506D02*
X0276009Y0201743D01*
X0276009Y0201810D01*
X0276579Y0202380D01*
X0289675Y0202380D01*
X0289934Y0202639D01*
X0290935Y0202639D01*
X0292357Y0204061D01*
X0292830Y0204061D01*
X0288802Y0204890D02*
X0288684Y0204772D01*
X0288802Y0204890D02*
X0288802Y0205364D01*
X0288329Y0204890D01*
X0276246Y0204890D01*
X0285694Y0194789D02*
X0286584Y0195052D01*
X0285694Y0194789D02*
X0285694Y0194026D01*
X0250753Y0161309D01*
X0249314Y0161309D01*
X0248301Y0160296D01*
X0215625Y0160296D01*
X0211132Y0157134D02*
X0248704Y0157134D01*
X0248740Y0162500D02*
X0194990Y0162500D01*
X0184990Y0152500D01*
X0184990Y0150000D01*
X0186240Y0148750D01*
X0209990Y0148750D01*
X0211240Y0150000D01*
X0212490Y0150000D01*
X0214365Y0148125D01*
X0214365Y0143750D01*
X0188740Y0118125D01*
X0187490Y0115625D02*
X0183115Y0120000D01*
X0183115Y0130625D01*
X0184365Y0131875D01*
X0186865Y0131875D01*
X0188740Y0130000D01*
X0194365Y0130000D01*
X0192490Y0131875D02*
X0193115Y0132500D01*
X0195615Y0132500D01*
X0196865Y0131250D01*
X0196865Y0128750D01*
X0195615Y0127500D01*
X0187490Y0127500D01*
X0185615Y0129375D01*
X0188740Y0131875D02*
X0192490Y0131875D01*
X0189721Y0134057D02*
X0198865Y0134057D01*
X0212262Y0147453D01*
X0212039Y0147453D01*
X0211816Y0147677D01*
X0217614Y0148916D02*
X0224333Y0148916D01*
X0224550Y0149133D01*
X0224550Y0148988D01*
X0224695Y0148844D01*
X0220480Y0145871D02*
X0220480Y0125891D01*
X0237245Y0109126D01*
X0237245Y0098667D01*
X0234550Y0095972D01*
X0230739Y0095972D01*
X0226139Y0100572D01*
X0222645Y0100572D01*
X0230726Y0102490D02*
X0232645Y0100572D01*
X0230726Y0102490D02*
X0230726Y0112261D01*
X0237490Y0110625D02*
X0239365Y0108750D01*
X0239365Y0098750D01*
X0249365Y0088750D01*
X0246240Y0082500D02*
X0252490Y0082500D01*
X0268740Y0098750D01*
X0270615Y0098750D01*
X0271865Y0096250D02*
X0268115Y0096250D01*
X0251865Y0080000D01*
X0244990Y0080000D01*
X0241240Y0083750D01*
X0226240Y0083750D01*
X0228740Y0078125D02*
X0247490Y0078125D01*
X0248740Y0076875D01*
X0249365Y0073750D02*
X0226240Y0073750D01*
X0236865Y0068125D02*
X0249365Y0068125D01*
X0258115Y0076875D01*
X0261240Y0076875D01*
X0249365Y0073750D02*
X0270615Y0095000D01*
X0272490Y0095000D01*
X0273740Y0096250D01*
X0275615Y0096250D01*
X0284990Y0105625D01*
X0284990Y0111875D01*
X0282490Y0114375D01*
X0282490Y0116250D01*
X0282371Y0116401D01*
X0282490Y0119375D02*
X0282371Y0119813D01*
X0277393Y0119813D01*
X0276783Y0120423D01*
X0276783Y0120666D01*
X0282490Y0119375D02*
X0286240Y0115625D01*
X0286240Y0100625D01*
X0273740Y0088125D01*
X0273740Y0053750D01*
X0266865Y0053750D02*
X0261240Y0048125D01*
X0261240Y0030000D01*
X0251240Y0030000D02*
X0250975Y0030265D01*
X0250975Y0053564D01*
X0249990Y0055625D02*
X0253740Y0055625D01*
X0257490Y0051875D01*
X0259365Y0056875D02*
X0234365Y0056875D01*
X0229365Y0061875D01*
X0209365Y0061875D01*
X0203115Y0055625D01*
X0201117Y0053564D02*
X0201117Y0030123D01*
X0201240Y0030000D01*
X0191240Y0030000D02*
X0191184Y0030056D01*
X0191184Y0055858D01*
X0197297Y0056241D02*
X0198441Y0056241D01*
X0201117Y0053564D01*
X0211051Y0055858D02*
X0211051Y0030189D01*
X0211240Y0030000D01*
X0220984Y0030256D02*
X0221240Y0030000D01*
X0220984Y0030256D02*
X0220984Y0053564D01*
X0228115Y0059375D02*
X0211865Y0059375D01*
X0207421Y0073066D02*
X0207230Y0073066D01*
X0207245Y0073242D02*
X0207245Y0084375D01*
X0207490Y0084375D01*
X0219990Y0084375D01*
X0207245Y0084375D02*
X0207245Y0102477D01*
X0205511Y0104211D01*
X0205511Y0115320D01*
X0207658Y0117852D02*
X0200560Y0117852D01*
X0199159Y0116450D01*
X0199159Y0107087D01*
X0192645Y0100572D01*
X0198045Y0102477D02*
X0201551Y0105984D01*
X0201551Y0115459D01*
X0199832Y0119122D02*
X0207426Y0126717D01*
X0207426Y0130418D01*
X0208882Y0132921D01*
X0213731Y0132921D01*
X0216865Y0130000D01*
X0211126Y0136715D02*
X0217552Y0143336D01*
X0217682Y0143661D01*
X0224952Y0143725D02*
X0235079Y0143725D01*
X0236240Y0145625D01*
X0240615Y0150000D01*
X0291865Y0150000D01*
X0294990Y0146875D01*
X0294990Y0114375D01*
X0300615Y0108750D01*
X0326865Y0108750D01*
X0330615Y0112500D01*
X0330615Y0145000D01*
X0330728Y0145000D01*
X0325138Y0149644D02*
X0325138Y0112692D01*
X0326470Y0111361D01*
X0326435Y0111361D01*
X0326269Y0111194D01*
X0314365Y0103125D02*
X0321240Y0096250D01*
X0339365Y0096250D01*
X0341240Y0098125D01*
X0341240Y0103750D01*
X0344086Y0106681D02*
X0344287Y0106480D01*
X0352072Y0106480D01*
X0355968Y0102584D01*
X0358350Y0102584D01*
X0359751Y0103986D01*
X0359751Y0105967D01*
X0357659Y0108059D01*
X0357659Y0108885D01*
X0357659Y0108811D01*
X0357209Y0108361D01*
X0355856Y0104676D02*
X0351950Y0108582D01*
X0351950Y0148425D01*
X0358561Y0155036D01*
X0357342Y0157920D01*
X0356171Y0159723D02*
X0344086Y0145000D01*
X0344086Y0106681D01*
X0344287Y0106480D02*
X0295305Y0106480D01*
X0293349Y0107907D02*
X0292913Y0107471D01*
X0292913Y0098813D01*
X0301172Y0090554D01*
X0301172Y0030068D01*
X0301240Y0030000D01*
X0291240Y0030000D02*
X0291186Y0030054D01*
X0291186Y0056599D01*
X0291513Y0056926D01*
X0292829Y0056890D01*
X0296049Y0060111D01*
X0296049Y0087025D01*
X0291513Y0091561D01*
X0291513Y0108051D01*
X0291949Y0108487D01*
X0291949Y0145081D01*
X0291602Y0144734D01*
X0272212Y0144734D01*
X0274709Y0141321D02*
X0290549Y0141321D01*
X0290549Y0109067D01*
X0290113Y0108631D01*
X0290113Y0063016D01*
X0281366Y0054269D01*
X0281366Y0054435D01*
X0281200Y0054602D01*
X0278740Y0055000D02*
X0278740Y0050625D01*
X0281240Y0048125D01*
X0281240Y0030000D01*
X0271240Y0030000D02*
X0271214Y0030026D01*
X0271214Y0061592D01*
X0267219Y0065587D01*
X0144891Y0065587D01*
X0149604Y0072557D02*
X0144020Y0078534D01*
X0143760Y0079833D01*
X0141396Y0074742D02*
X0139565Y0072911D01*
X0139399Y0072911D01*
X0141396Y0074742D02*
X0141396Y0138325D01*
X0139365Y0139375D02*
X0139365Y0135625D01*
X0133740Y0130000D01*
X0103115Y0130000D01*
X0063740Y0169375D01*
X0063740Y0185625D01*
X0136865Y0258750D01*
X0347490Y0258750D01*
X0391865Y0214375D01*
X0391865Y0065625D01*
X0390615Y0068125D02*
X0390615Y0213750D01*
X0342780Y0187427D02*
X0306661Y0151308D01*
X0186999Y0151308D01*
X0183740Y0149375D02*
X0196240Y0136875D01*
X0187937Y0137308D02*
X0187364Y0137308D01*
X0187937Y0137308D02*
X0172832Y0152412D01*
X0128719Y0152412D01*
X0121078Y0144771D01*
X0121078Y0143426D01*
X0132921Y0148398D02*
X0133685Y0149162D01*
X0134067Y0149162D01*
X0132921Y0148398D02*
X0132921Y0132528D01*
X0139365Y0139375D02*
X0144365Y0144375D01*
X0176240Y0144375D01*
X0188740Y0131875D01*
X0177430Y0127748D02*
X0176865Y0128125D01*
X0176865Y0136250D01*
X0169990Y0143125D01*
X0150615Y0143125D01*
X0147490Y0140000D01*
X0151260Y0140749D02*
X0151260Y0075551D01*
X0151451Y0075360D01*
X0151069Y0075360D01*
X0149604Y0072557D02*
X0180641Y0072557D01*
X0180641Y0073366D01*
X0182909Y0073368D01*
X0184559Y0073368D01*
X0185726Y0074535D01*
X0195026Y0074489D01*
X0197983Y0074620D02*
X0198189Y0072980D01*
X0198825Y0072301D01*
X0199398Y0072875D01*
X0197983Y0074620D02*
X0197983Y0081312D01*
X0198045Y0082606D01*
X0198045Y0102477D01*
X0207503Y0107053D02*
X0207606Y0107156D01*
X0207606Y0111627D01*
X0207737Y0111496D01*
X0211492Y0111496D01*
X0212961Y0108819D02*
X0212961Y0100888D01*
X0212645Y0100572D01*
X0212961Y0108819D02*
X0216241Y0112100D01*
X0225547Y0112100D01*
X0223850Y0114399D02*
X0210098Y0114399D01*
X0207803Y0117997D01*
X0207658Y0117852D01*
X0199832Y0119122D02*
X0188115Y0107500D01*
X0188115Y0088750D01*
X0194365Y0082500D01*
X0185726Y0076185D02*
X0180634Y0081278D01*
X0180603Y0117576D01*
X0187490Y0115625D02*
X0189990Y0115625D01*
X0204365Y0130000D01*
X0222682Y0138339D02*
X0222872Y0138339D01*
X0222682Y0138339D02*
X0224023Y0139680D01*
X0231943Y0139680D01*
X0248397Y0123226D01*
X0282371Y0123226D01*
X0280962Y0112439D02*
X0276103Y0112439D01*
X0280962Y0112439D02*
X0282844Y0110557D01*
X0282844Y0110996D01*
X0293349Y0107907D02*
X0293349Y0146648D01*
X0292517Y0147480D01*
X0275541Y0147480D01*
X0281865Y0138750D02*
X0283115Y0138750D01*
X0287490Y0134375D01*
X0287490Y0063750D01*
X0278740Y0055000D01*
X0276240Y0056875D02*
X0284365Y0065000D01*
X0266069Y0062344D02*
X0265817Y0062092D01*
X0265756Y0062092D01*
X0264187Y0063660D01*
X0190347Y0063660D01*
X0185487Y0058800D01*
X0185487Y0052640D01*
X0181251Y0053181D02*
X0178383Y0056049D01*
X0177812Y0056049D01*
X0181251Y0053181D02*
X0181251Y0030011D01*
X0181240Y0030000D01*
X0171240Y0030000D02*
X0169789Y0031451D01*
X0169789Y0056241D01*
X0161193Y0055476D02*
X0161193Y0030047D01*
X0161240Y0030000D01*
X0151451Y0030210D02*
X0151240Y0030000D01*
X0151451Y0030210D02*
X0151451Y0052608D01*
X0154319Y0055476D01*
X0154698Y0055476D01*
X0155844Y0075360D02*
X0155844Y0075360D01*
X0155653Y0075551D01*
X0155653Y0075551D01*
X0155844Y0075360D01*
X0155653Y0075551D02*
X0155653Y0140940D01*
X0160238Y0140940D02*
X0160238Y0076125D01*
X0160620Y0075742D01*
X0160238Y0075742D01*
X0164632Y0076316D02*
X0165205Y0075742D01*
X0164823Y0075742D01*
X0164632Y0076316D02*
X0164632Y0140940D01*
X0169216Y0140797D02*
X0169216Y0076125D01*
X0169598Y0075742D01*
X0169216Y0075742D01*
X0172655Y0076506D02*
X0173610Y0075551D01*
X0173610Y0075743D01*
X0173419Y0075934D01*
X0172655Y0076506D02*
X0172655Y0135969D01*
X0177430Y0127748D02*
X0177430Y0080900D01*
X0183352Y0074978D01*
X0183734Y0075360D01*
X0183352Y0074978D02*
X0183352Y0074978D01*
X0185726Y0074535D02*
X0185726Y0076185D01*
X0207245Y0073242D02*
X0207421Y0073066D01*
X0232645Y0090572D02*
X0232750Y0090466D01*
X0241890Y0090466D01*
X0244228Y0098227D02*
X0244789Y0098788D01*
X0261337Y0098788D01*
X0271865Y0096250D02*
X0276865Y0101250D01*
X0275615Y0093750D02*
X0271240Y0093750D01*
X0248740Y0071250D01*
X0249990Y0055625D02*
X0248740Y0054375D01*
X0247490Y0054375D01*
X0241042Y0053755D02*
X0241042Y0030198D01*
X0241240Y0030000D01*
X0231240Y0030000D02*
X0230917Y0030323D01*
X0230917Y0053755D01*
X0241926Y0100048D02*
X0241926Y0100362D01*
X0241769Y0100519D01*
X0241926Y0100048D02*
X0248510Y0106633D01*
X0248510Y0111184D01*
X0237490Y0110625D02*
X0237490Y0115625D01*
X0255879Y0126242D02*
X0256036Y0126398D01*
X0256036Y0126398D01*
X0265854Y0136217D01*
X0282371Y0136217D01*
X0281240Y0138125D02*
X0281865Y0138750D01*
X0281240Y0138125D02*
X0255615Y0138125D01*
X0258387Y0135966D02*
X0258387Y0132985D01*
X0256349Y0130947D01*
X0256349Y0130950D01*
X0261523Y0158917D02*
X0261523Y0159336D01*
X0261043Y0159816D01*
X0261043Y0164515D01*
X0263745Y0164422D02*
X0263745Y0166618D01*
X0270325Y0173198D01*
X0270325Y0173393D01*
X0270346Y0173414D01*
X0276873Y0171282D02*
X0277538Y0171282D01*
X0282032Y0175776D01*
X0318980Y0175776D01*
X0319479Y0176275D01*
X0319313Y0176109D01*
X0319479Y0176275D02*
X0319479Y0176275D01*
X0329990Y0183750D02*
X0311865Y0165625D01*
X0305829Y0153805D02*
X0340284Y0188260D01*
X0329990Y0185625D02*
X0329990Y0183750D01*
X0336289Y0175443D02*
X0336289Y0160795D01*
X0325138Y0149644D01*
X0341752Y0145000D02*
X0344086Y0145000D01*
X0356171Y0159723D02*
X0360812Y0159746D01*
X0363820Y0161354D01*
X0363820Y0161204D01*
X0363669Y0161053D01*
X0385425Y0150247D02*
X0385425Y0148844D01*
X0387154Y0147115D01*
X0387154Y0123181D01*
X0387368Y0122968D01*
X0384695Y0122968D01*
X0383165Y0124497D01*
X0383356Y0124497D01*
X0383547Y0124306D01*
X0383547Y0063234D01*
X0376075Y0055762D01*
X0306837Y0055762D01*
X0306515Y0056084D01*
X0306354Y0056084D01*
X0306676Y0055762D01*
X0306837Y0055762D01*
X0305615Y0053750D02*
X0346240Y0053750D01*
X0346865Y0054375D01*
X0376865Y0054375D01*
X0390615Y0068125D01*
X0382147Y0064200D02*
X0375109Y0057162D01*
X0309627Y0057162D01*
X0307159Y0059630D01*
X0307159Y0059791D01*
X0306998Y0059952D01*
X0306240Y0065000D02*
X0336240Y0065000D01*
X0365615Y0094375D01*
X0369990Y0094375D01*
X0372490Y0097500D02*
X0345615Y0097500D01*
X0338115Y0090000D01*
X0325615Y0090000D01*
X0312490Y0076875D01*
X0303740Y0079375D02*
X0303740Y0055625D01*
X0305615Y0053750D01*
X0323605Y0091422D02*
X0337709Y0091422D01*
X0346889Y0100601D01*
X0346865Y0100625D01*
X0369990Y0100625D01*
X0357359Y0104976D02*
X0357058Y0104676D01*
X0355856Y0104676D01*
X0348797Y0102739D02*
X0347199Y0101141D01*
X0347199Y0100912D01*
X0346889Y0100601D01*
X0348775Y0102739D02*
X0348797Y0102739D01*
X0358202Y0118288D02*
X0376391Y0118288D01*
X0382147Y0112533D01*
X0382147Y0064200D01*
X0314365Y0103125D02*
X0296240Y0103125D01*
X0297864Y0114450D02*
X0307000Y0114450D01*
X0316873Y0124323D01*
X0316873Y0129203D01*
X0298108Y0147968D01*
X0298108Y0148090D01*
X0298229Y0148212D01*
X0305829Y0153805D02*
X0195487Y0153805D01*
X0188850Y0159064D02*
X0188715Y0166231D01*
X0188625Y0169161D01*
X0188625Y0170423D01*
X0187453Y0172046D01*
X0183740Y0172055D01*
X0171240Y0184375D01*
X0171240Y0203750D01*
X0159365Y0220625D02*
X0211240Y0168750D01*
X0228740Y0168750D01*
X0225728Y0171613D02*
X0225728Y0171737D01*
X0232918Y0178926D01*
X0232918Y0179658D01*
X0233040Y0179780D01*
X0224990Y0174375D02*
X0214990Y0174375D01*
X0208115Y0181250D01*
X0208115Y0202500D01*
X0210615Y0205000D01*
X0210498Y0209761D02*
X0205502Y0204765D01*
X0205502Y0178437D01*
X0212326Y0171613D01*
X0225728Y0171613D01*
X0218691Y0178525D02*
X0218691Y0191007D01*
X0219961Y0192277D01*
X0220018Y0192277D01*
X0220190Y0192449D01*
X0218714Y0194955D02*
X0215292Y0192173D01*
X0215454Y0176736D01*
X0213115Y0166250D02*
X0236240Y0166250D01*
X0248824Y0165924D02*
X0248981Y0165767D01*
X0248981Y0165610D01*
X0248824Y0165767D01*
X0248824Y0165924D01*
X0248824Y0171884D01*
X0257490Y0171250D02*
X0248740Y0162500D01*
X0263745Y0164422D02*
X0268864Y0159303D01*
X0282371Y0159303D01*
X0298160Y0124370D02*
X0297709Y0123920D01*
X0297709Y0123919D01*
X0298337Y0123291D01*
X0306827Y0123291D01*
X0307702Y0122416D01*
X0311232Y0122416D01*
X0305973Y0120762D02*
X0298310Y0120762D01*
X0298624Y0120762D01*
X0298761Y0120899D01*
X0358539Y0177032D02*
X0358732Y0176839D01*
X0293192Y0209580D02*
X0239580Y0209580D01*
X0210498Y0209761D02*
X0210498Y0211956D01*
X0200833Y0223579D02*
X0201171Y0223917D01*
X0201171Y0194075D01*
X0201284Y0193962D01*
X0201396Y0193962D01*
X0201509Y0194075D01*
X0191497Y0180701D02*
X0191684Y0180514D01*
X0191684Y0175278D01*
X0186074Y0170042D02*
X0186074Y0169106D01*
X0172609Y0155641D01*
X0123339Y0155641D01*
X0083651Y0185030D02*
X0083555Y0184935D01*
X0056496Y0173372D02*
X0038142Y0173372D01*
X0036958Y0172188D01*
X0036958Y0172484D01*
X0037056Y0172583D01*
X0128316Y0223579D02*
X0200833Y0223579D01*
X0201171Y0223917D02*
X0201171Y0230336D01*
X0219990Y0243750D02*
X0208740Y0255000D01*
X0167490Y0255000D01*
X0159365Y0220625D02*
X0136240Y0220625D01*
X0188850Y0159064D02*
X0183740Y0154360D01*
X0183740Y0149375D01*
X0136877Y0086199D02*
X0131163Y0082951D01*
X0073764Y0083081D01*
X0073374Y0082821D01*
D21*
X0147490Y0140000D03*
X0185615Y0129375D03*
X0194365Y0130000D03*
X0204365Y0130000D03*
X0196240Y0136875D03*
X0216865Y0130000D03*
X0237490Y0115625D03*
X0255615Y0138125D03*
X0236240Y0145625D03*
X0236240Y0166250D03*
X0228740Y0168750D03*
X0213115Y0166250D03*
X0236865Y0196875D03*
X0242490Y0215000D03*
X0210615Y0205000D03*
X0171240Y0203750D03*
X0136240Y0220625D03*
X0144990Y0241875D03*
X0167490Y0255000D03*
X0219990Y0243750D03*
X0282490Y0245000D03*
X0328740Y0241250D03*
X0328740Y0198125D03*
X0329990Y0185625D03*
X0319990Y0160625D03*
X0268115Y0165625D03*
X0257490Y0171250D03*
X0188740Y0118125D03*
X0194365Y0082500D03*
X0219990Y0084375D03*
X0226240Y0083750D03*
X0228740Y0078125D03*
X0226240Y0073750D03*
X0236865Y0068125D03*
X0248740Y0071250D03*
X0248740Y0076875D03*
X0246240Y0082500D03*
X0249365Y0088750D03*
X0261240Y0076875D03*
X0275615Y0093750D03*
X0270615Y0098750D03*
X0276865Y0101250D03*
X0296240Y0103125D03*
X0303740Y0079375D03*
X0312490Y0076875D03*
X0306240Y0065000D03*
X0284365Y0065000D03*
X0276240Y0056875D03*
X0273740Y0053750D03*
X0266865Y0053750D03*
X0259365Y0056875D03*
X0257490Y0051875D03*
X0247490Y0054375D03*
X0228115Y0059375D03*
X0211865Y0059375D03*
X0203115Y0055625D03*
X0341240Y0103750D03*
X0369990Y0100625D03*
X0372490Y0097500D03*
X0369990Y0094375D03*
X0391865Y0065625D03*
D22*
X0203601Y0193208D02*
X0203601Y0208052D01*
X0204202Y0208619D01*
X0209632Y0214049D01*
X0211365Y0214049D01*
X0213199Y0212214D01*
X0213199Y0202903D01*
X0220728Y0210000D01*
X0199871Y0200008D02*
X0199871Y0195396D01*
X0199417Y0194941D01*
X0199417Y0193208D01*
X0200642Y0191983D01*
X0201505Y0191983D01*
X0201519Y0191893D01*
X0201614Y0191983D01*
X0202375Y0191983D01*
X0203601Y0193208D01*
X0199871Y0200008D02*
X0191263Y0199878D01*
X0191653Y0199358D01*
M02*
