G75*
%MOIN*%
%OFA0B0*%
%FSLAX25Y25*%
%IPPOS*%
%LPD*%
%AMOC8*
5,1,8,0,0,1.08239X$1,22.5*
%
%ADD10C,0.00200*%
%ADD11C,0.00300*%
%ADD12R,0.00056X0.03640*%
%ADD13R,0.00056X0.04368*%
%ADD14R,0.00056X0.04536*%
%ADD15R,0.00056X0.04648*%
%ADD16R,0.00056X0.04704*%
%ADD17R,0.00056X0.04760*%
%ADD18R,0.00056X0.04760*%
%ADD19R,0.00056X0.04816*%
%ADD20R,0.00056X0.04984*%
%ADD21R,0.00056X0.05096*%
%ADD22R,0.00056X0.05208*%
%ADD23R,0.00056X0.05208*%
%ADD24R,0.00056X0.05264*%
%ADD25R,0.00056X0.05376*%
%ADD26R,0.00056X0.05488*%
%ADD27R,0.00056X0.05544*%
%ADD28R,0.00056X0.05544*%
%ADD29R,0.00056X0.05432*%
%ADD30R,0.00056X0.01400*%
%ADD31R,0.00056X0.01288*%
%ADD32R,0.00056X0.01344*%
%ADD33R,0.00056X0.01288*%
%ADD34R,0.00056X0.01400*%
%ADD35R,0.00056X0.01456*%
%ADD36R,0.00056X0.01568*%
%ADD37R,0.00056X0.01624*%
%ADD38R,0.00056X0.01512*%
%ADD39R,0.00056X0.01344*%
%ADD40R,0.00056X0.01568*%
%ADD41R,0.00056X0.01624*%
%ADD42R,0.00056X0.01456*%
%ADD43R,0.00056X0.05376*%
%ADD44R,0.00056X0.05432*%
%ADD45R,0.00056X0.05152*%
%ADD46R,0.00056X0.04928*%
%ADD47R,0.00056X0.04872*%
%ADD48R,0.00056X0.04704*%
%ADD49R,0.00056X0.04648*%
%ADD50R,0.00056X0.04592*%
%ADD51R,0.00056X0.04536*%
%ADD52R,0.00056X0.04312*%
%ADD53R,0.00056X0.03808*%
%ADD54R,0.00056X0.05768*%
%ADD55R,0.00056X0.05992*%
%ADD56R,0.00056X0.06104*%
%ADD57R,0.00056X0.06104*%
%ADD58R,0.00056X0.06160*%
%ADD59R,0.00056X0.06160*%
%ADD60R,0.00056X0.06216*%
%ADD61R,0.00056X0.06216*%
%ADD62R,0.00056X0.05824*%
%ADD63R,0.00056X0.01848*%
%ADD64R,0.00056X0.02072*%
%ADD65R,0.00056X0.01680*%
%ADD66R,0.00056X0.02128*%
%ADD67R,0.00056X0.02240*%
%ADD68R,0.00056X0.01736*%
%ADD69R,0.00056X0.02240*%
%ADD70R,0.00056X0.01736*%
%ADD71R,0.00056X0.01792*%
%ADD72R,0.00056X0.02296*%
%ADD73R,0.00056X0.01848*%
%ADD74R,0.00056X0.02408*%
%ADD75R,0.00056X0.05040*%
%ADD76R,0.00056X0.05936*%
%ADD77R,0.00056X0.05992*%
%ADD78R,0.00056X0.06048*%
%ADD79R,0.00056X0.03584*%
%ADD80R,0.00056X0.03472*%
%ADD81R,0.00056X0.03360*%
%ADD82R,0.00056X0.03304*%
%ADD83R,0.00056X0.03248*%
%ADD84R,0.00056X0.03192*%
%ADD85R,0.00056X0.02296*%
%ADD86R,0.00056X0.03080*%
%ADD87R,0.00056X0.02856*%
%ADD88R,0.00056X0.02184*%
%ADD89R,0.00056X0.02520*%
%ADD90R,0.00056X0.02352*%
%ADD91R,0.00056X0.02184*%
%ADD92R,0.00056X0.02128*%
%ADD93R,0.00056X0.02016*%
%ADD94R,0.00056X0.01848*%
%ADD95R,0.00056X0.01008*%
%ADD96R,0.00056X0.03808*%
%ADD97R,0.00056X0.04424*%
%ADD98R,0.00056X0.04816*%
%ADD99R,0.00056X0.04872*%
%ADD100R,0.00056X0.05040*%
%ADD101R,0.00056X0.05152*%
%ADD102R,0.00056X0.05320*%
%ADD103R,0.00056X0.05488*%
%ADD104R,0.00056X0.05600*%
%ADD105R,0.00056X0.01512*%
%ADD106R,0.00056X0.01456*%
%ADD107R,0.00056X0.01512*%
%ADD108R,0.00056X0.05600*%
%ADD109R,0.00056X0.05656*%
%ADD110R,0.00056X0.05264*%
%ADD111R,0.00056X0.04928*%
%ADD112R,0.00056X0.04592*%
%ADD113R,0.00056X0.04480*%
%ADD114R,0.00056X0.04088*%
%ADD115R,0.00056X0.05936*%
%ADD116R,0.00056X0.06104*%
%ADD117R,0.00056X0.06272*%
%ADD118R,0.00056X0.06272*%
%ADD119R,0.00056X0.05768*%
%ADD120R,0.00056X0.02800*%
%ADD121R,0.00056X0.02688*%
%ADD122R,0.00056X0.03024*%
%ADD123R,0.00056X0.03024*%
%ADD124R,0.00056X0.03136*%
%ADD125R,0.00056X0.03136*%
%ADD126R,0.00056X0.02968*%
%ADD127R,0.00056X0.02576*%
%ADD128R,0.00056X0.02632*%
%ADD129R,0.00056X0.02912*%
%ADD130R,0.00056X0.02800*%
%ADD131R,0.00056X0.02464*%
%ADD132R,0.00056X0.02408*%
%ADD133R,0.00056X0.02464*%
%ADD134R,0.00056X0.03080*%
%ADD135R,0.00056X0.02856*%
%ADD136R,0.00056X0.06048*%
%ADD137R,0.00056X0.04032*%
%ADD138R,0.00056X0.05320*%
%ADD139R,0.00056X0.01512*%
%ADD140R,0.00056X0.04984*%
%ADD141R,0.00056X0.03920*%
%ADD142R,0.00056X0.05824*%
%ADD143R,0.00056X0.02744*%
%ADD144R,0.00056X0.02912*%
%ADD145R,0.00056X0.02688*%
%ADD146R,0.00056X0.02520*%
%ADD147R,0.00056X0.02520*%
%ADD148R,0.00056X0.02968*%
%ADD149R,0.00056X0.02632*%
%ADD150R,0.00056X0.02744*%
%ADD151R,0.00056X0.03864*%
%ADD152R,0.00056X0.05880*%
%ADD153R,0.00056X0.01232*%
%ADD154R,0.00056X0.01232*%
%ADD155R,0.00056X0.01176*%
%ADD156R,0.00056X0.01176*%
%ADD157R,0.00056X0.01120*%
%ADD158R,0.00056X0.00504*%
%ADD159R,0.00056X0.01176*%
%ADD160R,0.00056X0.01120*%
%ADD161R,0.00056X0.01064*%
%ADD162R,0.00056X0.01008*%
%ADD163R,0.00056X0.00840*%
%ADD164R,0.00056X0.00840*%
%ADD165R,0.00056X0.00560*%
%ADD166R,0.00056X0.00448*%
%ADD167R,0.00056X0.01176*%
%ADD168R,0.00056X0.00896*%
%ADD169R,0.00056X0.00728*%
%ADD170R,0.00700X0.00100*%
%ADD171R,0.01300X0.00100*%
%ADD172R,0.01800X0.00100*%
%ADD173R,0.02100X0.00100*%
%ADD174R,0.02500X0.00100*%
%ADD175R,0.02700X0.00100*%
%ADD176R,0.02900X0.00100*%
%ADD177R,0.03100X0.00100*%
%ADD178R,0.03300X0.00100*%
%ADD179R,0.03600X0.00100*%
%ADD180R,0.03700X0.00100*%
%ADD181R,0.03900X0.00100*%
%ADD182R,0.04000X0.00100*%
%ADD183R,0.04100X0.00100*%
%ADD184R,0.04300X0.00100*%
%ADD185R,0.02000X0.00100*%
%ADD186R,0.01600X0.00100*%
%ADD187R,0.01700X0.00100*%
%ADD188R,0.01500X0.00100*%
%ADD189R,0.01200X0.00100*%
%ADD190R,0.01900X0.00100*%
%ADD191R,0.01100X0.00100*%
%ADD192R,0.01000X0.00100*%
%ADD193R,0.00500X0.00100*%
%ADD194R,0.02200X0.00100*%
%ADD195R,0.02300X0.00100*%
%ADD196R,0.14900X0.00100*%
%ADD197R,0.00100X0.00100*%
%ADD198R,0.15000X0.00100*%
%ADD199R,0.00200X0.00100*%
%ADD200R,0.15400X0.00100*%
%ADD201R,0.02400X0.00100*%
%ADD202R,0.15700X0.00100*%
%ADD203R,0.16100X0.00100*%
%ADD204R,0.16400X0.00100*%
%ADD205R,0.16800X0.00100*%
%ADD206R,0.17200X0.00100*%
%ADD207R,0.17500X0.00100*%
%ADD208R,0.17800X0.00100*%
%ADD209R,0.18000X0.00100*%
%ADD210R,0.18300X0.00100*%
%ADD211R,0.18600X0.00100*%
%ADD212R,0.18900X0.00100*%
%ADD213R,0.19100X0.00100*%
%ADD214R,0.19400X0.00100*%
%ADD215R,0.19600X0.00100*%
%ADD216R,0.19900X0.00100*%
%ADD217R,0.20000X0.00100*%
%ADD218R,0.20200X0.00100*%
%ADD219R,0.20500X0.00100*%
%ADD220R,0.02800X0.00100*%
%ADD221R,0.20700X0.00100*%
%ADD222R,0.11200X0.00100*%
%ADD223R,0.08500X0.00100*%
%ADD224R,0.03400X0.00100*%
%ADD225R,0.11300X0.00100*%
%ADD226R,0.00400X0.00100*%
%ADD227R,0.07900X0.00100*%
%ADD228R,0.10500X0.00100*%
%ADD229R,0.00600X0.00100*%
%ADD230R,0.07600X0.00100*%
%ADD231R,0.10400X0.00100*%
%ADD232R,0.10300X0.00100*%
%ADD233R,0.04400X0.00100*%
%ADD234R,0.07700X0.00100*%
%ADD235R,0.04700X0.00100*%
%ADD236R,0.10600X0.00100*%
%ADD237R,0.07800X0.00100*%
%ADD238R,0.04800X0.00100*%
%ADD239R,0.10700X0.00100*%
%ADD240R,0.07000X0.00100*%
%ADD241R,0.02600X0.00100*%
%ADD242R,0.05000X0.00100*%
%ADD243R,0.10800X0.00100*%
%ADD244R,0.06900X0.00100*%
%ADD245R,0.05300X0.00100*%
%ADD246R,0.11000X0.00100*%
%ADD247R,0.00800X0.00100*%
%ADD248R,0.06800X0.00100*%
%ADD249R,0.05600X0.00100*%
%ADD250R,0.11100X0.00100*%
%ADD251R,0.05800X0.00100*%
%ADD252R,0.00900X0.00100*%
%ADD253R,0.09100X0.00100*%
%ADD254R,0.09900X0.00100*%
%ADD255R,0.09000X0.00100*%
%ADD256R,0.07100X0.00100*%
%ADD257R,0.08700X0.00100*%
%ADD258R,0.09800X0.00100*%
%ADD259R,0.01400X0.00100*%
%ADD260R,0.03800X0.00100*%
%ADD261R,0.07300X0.00100*%
%ADD262R,0.08800X0.00100*%
%ADD263R,0.10000X0.00100*%
%ADD264R,0.06300X0.00100*%
%ADD265R,0.10100X0.00100*%
%ADD266R,0.07200X0.00100*%
%ADD267R,0.08600X0.00100*%
%ADD268R,0.18100X0.00100*%
%ADD269R,0.06200X0.00100*%
%ADD270R,0.18500X0.00100*%
%ADD271R,0.08400X0.00100*%
%ADD272R,0.18800X0.00100*%
%ADD273R,0.08200X0.00100*%
%ADD274R,0.06400X0.00100*%
%ADD275R,0.08300X0.00100*%
%ADD276R,0.06500X0.00100*%
%ADD277R,0.19200X0.00100*%
%ADD278R,0.06600X0.00100*%
%ADD279R,0.08100X0.00100*%
%ADD280R,0.06700X0.00100*%
%ADD281R,0.19700X0.00100*%
%ADD282R,0.27400X0.00100*%
%ADD283R,0.08000X0.00100*%
%ADD284R,0.27600X0.00100*%
%ADD285R,0.27800X0.00100*%
%ADD286R,0.27900X0.00100*%
%ADD287R,0.28200X0.00100*%
%ADD288R,0.28300X0.00100*%
%ADD289R,0.05900X0.00100*%
%ADD290R,0.28500X0.00100*%
%ADD291R,0.28600X0.00100*%
%ADD292R,0.28800X0.00100*%
%ADD293R,0.29100X0.00100*%
%ADD294R,0.05500X0.00100*%
%ADD295R,0.20900X0.00100*%
%ADD296R,0.21000X0.00100*%
%ADD297R,0.17600X0.00100*%
%ADD298R,0.07500X0.00100*%
%ADD299R,0.16600X0.00100*%
%ADD300R,0.07400X0.00100*%
%ADD301R,0.23800X0.00100*%
%ADD302R,0.23700X0.00100*%
%ADD303R,0.23600X0.00100*%
%ADD304R,0.23500X0.00100*%
%ADD305R,0.05100X0.00100*%
%ADD306R,0.06100X0.00100*%
%ADD307R,0.09200X0.00100*%
%ADD308R,0.04900X0.00100*%
%ADD309R,0.09300X0.00100*%
%ADD310R,0.17300X0.00100*%
%ADD311R,0.12600X0.00100*%
%ADD312R,0.18200X0.00100*%
%ADD313R,0.18400X0.00100*%
%ADD314R,0.10900X0.00100*%
%ADD315R,0.42900X0.00100*%
%ADD316R,0.11800X0.00100*%
%ADD317R,0.30600X0.00100*%
%ADD318R,0.33400X0.00100*%
%ADD319R,0.24100X0.00100*%
%ADD320R,0.23900X0.00100*%
%ADD321R,0.04200X0.00100*%
%ADD322R,0.24200X0.00100*%
%ADD323R,0.03000X0.00100*%
%ADD324R,0.25600X0.00100*%
%ADD325R,0.05400X0.00100*%
%ADD326R,0.25800X0.00100*%
%ADD327R,0.25900X0.00100*%
%ADD328R,0.25500X0.00100*%
%ADD329R,0.25700X0.00100*%
%ADD330R,0.00300X0.00100*%
%ADD331R,0.25400X0.00100*%
%ADD332R,0.25300X0.00100*%
%ADD333R,0.24400X0.00100*%
%ADD334R,0.04600X0.00100*%
%ADD335R,0.23400X0.00100*%
%ADD336R,0.04500X0.00100*%
%ADD337R,0.23100X0.00100*%
%ADD338R,0.23000X0.00100*%
%ADD339R,0.22900X0.00100*%
%ADD340R,0.22700X0.00100*%
%ADD341R,0.03500X0.00100*%
%ADD342R,0.16700X0.00100*%
%ADD343R,0.17000X0.00100*%
%ADD344R,0.17100X0.00100*%
%ADD345R,0.03200X0.00100*%
%ADD346R,0.21900X0.00100*%
%ADD347R,0.22000X0.00100*%
%ADD348R,0.05200X0.00100*%
%ADD349R,0.15900X0.00100*%
%ADD350R,0.15300X0.00100*%
%ADD351R,0.14700X0.00100*%
%ADD352R,0.14500X0.00100*%
%ADD353R,0.14100X0.00100*%
%ADD354R,0.13900X0.00100*%
%ADD355R,0.13500X0.00100*%
%ADD356R,0.13200X0.00100*%
%ADD357R,0.12800X0.00100*%
%ADD358R,0.12300X0.00100*%
%ADD359R,0.11400X0.00100*%
%ADD360R,0.06000X0.00100*%
%ADD361R,0.18700X0.00100*%
%ADD362R,0.19000X0.00100*%
%ADD363R,0.19300X0.00100*%
%ADD364R,0.19500X0.00100*%
%ADD365R,0.20300X0.00100*%
%ADD366R,0.26500X0.00100*%
%ADD367R,0.26400X0.00100*%
%ADD368R,0.26300X0.00100*%
%ADD369R,0.26200X0.00100*%
%ADD370R,0.26100X0.00100*%
%ADD371R,0.26000X0.00100*%
%ADD372R,0.25200X0.00100*%
%ADD373R,0.25000X0.00100*%
%ADD374R,0.24800X0.00100*%
%ADD375R,0.24700X0.00100*%
%ADD376R,0.24600X0.00100*%
%ADD377R,0.24500X0.00100*%
%ADD378R,0.24300X0.00100*%
%ADD379R,0.24000X0.00100*%
%ADD380R,0.23300X0.00100*%
%ADD381R,0.23200X0.00100*%
%ADD382R,0.13600X0.00100*%
%ADD383R,0.13100X0.00100*%
%ADD384R,0.05700X0.00100*%
%ADD385R,0.12200X0.00100*%
%ADD386R,0.09600X0.00100*%
%ADD387R,0.08900X0.00100*%
%ADD388C,0.00400*%
%ADD389R,0.00591X0.01181*%
%ADD390R,0.01181X0.01181*%
%ADD391C,0.01000*%
%ADD392C,0.00800*%
%ADD393C,0.00100*%
%ADD394C,0.00000*%
%ADD395C,0.00600*%
%ADD396C,0.00500*%
%ADD397C,0.02000*%
D10*
X0066340Y0059967D02*
X0066707Y0059600D01*
X0067441Y0059600D01*
X0067808Y0059967D01*
X0068550Y0059967D02*
X0068917Y0059600D01*
X0069651Y0059600D01*
X0070018Y0059967D01*
X0070018Y0060334D01*
X0069651Y0060701D01*
X0069284Y0060701D01*
X0069651Y0060701D02*
X0070018Y0061068D01*
X0070018Y0061435D01*
X0069651Y0061802D01*
X0068917Y0061802D01*
X0068550Y0061435D01*
X0067808Y0061435D02*
X0067441Y0061802D01*
X0066707Y0061802D01*
X0066340Y0061435D01*
X0066340Y0059967D01*
X0088840Y0059967D02*
X0089207Y0059600D01*
X0089941Y0059600D01*
X0090308Y0059967D01*
X0091050Y0059600D02*
X0092518Y0059600D01*
X0091784Y0059600D02*
X0091784Y0061802D01*
X0091050Y0061068D01*
X0090308Y0061435D02*
X0089941Y0061802D01*
X0089207Y0061802D01*
X0088840Y0061435D01*
X0088840Y0059967D01*
X0106836Y0179224D02*
X0106836Y0181426D01*
X0107937Y0181426D01*
X0108304Y0181059D01*
X0108304Y0180325D01*
X0107937Y0179958D01*
X0106836Y0179958D01*
X0107570Y0179958D02*
X0108304Y0179224D01*
X0109046Y0179224D02*
X0110514Y0179224D01*
X0109780Y0179224D02*
X0109780Y0181426D01*
X0109046Y0180692D01*
X0111256Y0181059D02*
X0111623Y0181426D01*
X0112357Y0181426D01*
X0112724Y0181059D01*
X0111256Y0179591D01*
X0111623Y0179224D01*
X0112357Y0179224D01*
X0112724Y0179591D01*
X0112724Y0181059D01*
X0111256Y0181059D02*
X0111256Y0179591D01*
X0146340Y0210600D02*
X0146340Y0212802D01*
X0147441Y0212802D01*
X0147808Y0212435D01*
X0147808Y0211701D01*
X0147441Y0211334D01*
X0146340Y0211334D01*
X0147074Y0211334D02*
X0147808Y0210600D01*
X0148550Y0210967D02*
X0148917Y0210600D01*
X0149651Y0210600D01*
X0150018Y0210967D01*
X0150018Y0212435D01*
X0149651Y0212802D01*
X0148917Y0212802D01*
X0148550Y0212435D01*
X0148550Y0212068D01*
X0148917Y0211701D01*
X0150018Y0211701D01*
X0149651Y0230600D02*
X0148917Y0230600D01*
X0148550Y0230967D01*
X0148550Y0231334D01*
X0148917Y0231701D01*
X0149651Y0231701D01*
X0150018Y0231334D01*
X0150018Y0230967D01*
X0149651Y0230600D01*
X0149651Y0231701D02*
X0150018Y0232068D01*
X0150018Y0232435D01*
X0149651Y0232802D01*
X0148917Y0232802D01*
X0148550Y0232435D01*
X0148550Y0232068D01*
X0148917Y0231701D01*
X0147808Y0231701D02*
X0147441Y0231334D01*
X0146340Y0231334D01*
X0146340Y0230600D02*
X0146340Y0232802D01*
X0147441Y0232802D01*
X0147808Y0232435D01*
X0147808Y0231701D01*
X0147074Y0231334D02*
X0147808Y0230600D01*
X0147808Y0250600D02*
X0147074Y0251334D01*
X0147441Y0251334D02*
X0146340Y0251334D01*
X0146340Y0250600D02*
X0146340Y0252802D01*
X0147441Y0252802D01*
X0147808Y0252435D01*
X0147808Y0251701D01*
X0147441Y0251334D01*
X0148550Y0250967D02*
X0148917Y0250600D01*
X0149651Y0250600D01*
X0150018Y0250967D01*
X0150018Y0251334D01*
X0149651Y0251701D01*
X0149284Y0251701D01*
X0149651Y0251701D02*
X0150018Y0252068D01*
X0150018Y0252435D01*
X0149651Y0252802D01*
X0148917Y0252802D01*
X0148550Y0252435D01*
X0221340Y0252802D02*
X0222441Y0252802D01*
X0222808Y0252435D01*
X0222808Y0251701D01*
X0222441Y0251334D01*
X0221340Y0251334D01*
X0221340Y0250600D02*
X0221340Y0252802D01*
X0222074Y0251334D02*
X0222808Y0250600D01*
X0223550Y0250600D02*
X0225018Y0250600D01*
X0224284Y0250600D02*
X0224284Y0252802D01*
X0223550Y0252068D01*
X0281340Y0223935D02*
X0281340Y0222467D01*
X0281707Y0222100D01*
X0282441Y0222100D01*
X0282808Y0222467D01*
X0283550Y0222467D02*
X0283917Y0222100D01*
X0284651Y0222100D01*
X0285018Y0222467D01*
X0285018Y0223201D01*
X0284651Y0223568D01*
X0284284Y0223568D01*
X0283550Y0223201D01*
X0283550Y0224302D01*
X0285018Y0224302D01*
X0282808Y0223935D02*
X0282441Y0224302D01*
X0281707Y0224302D01*
X0281340Y0223935D01*
X0346146Y0087006D02*
X0345713Y0086573D01*
X0345713Y0086139D01*
X0346146Y0085705D01*
X0347014Y0085705D01*
X0347448Y0085272D01*
X0347448Y0084838D01*
X0347014Y0084404D01*
X0346146Y0084404D01*
X0345713Y0084838D01*
X0345713Y0082806D02*
X0346580Y0081939D01*
X0347448Y0082806D01*
X0347448Y0080204D01*
X0348291Y0080638D02*
X0348291Y0081505D01*
X0348725Y0081939D01*
X0349592Y0081939D01*
X0350026Y0081505D01*
X0350026Y0081072D01*
X0348291Y0081072D01*
X0348291Y0080638D02*
X0348725Y0080204D01*
X0349592Y0080204D01*
X0350869Y0080638D02*
X0351303Y0080204D01*
X0352604Y0080204D01*
X0352604Y0079770D02*
X0352604Y0081939D01*
X0351303Y0081939D01*
X0350869Y0081505D01*
X0350869Y0080638D01*
X0351737Y0079337D02*
X0352170Y0079337D01*
X0352604Y0079770D01*
X0353447Y0080638D02*
X0353881Y0081072D01*
X0355182Y0081072D01*
X0355182Y0081505D02*
X0355182Y0080204D01*
X0353881Y0080204D01*
X0353447Y0080638D01*
X0353881Y0081939D02*
X0354748Y0081939D01*
X0355182Y0081505D01*
X0356026Y0081072D02*
X0357327Y0081072D01*
X0357760Y0081505D01*
X0357760Y0082373D01*
X0357327Y0082806D01*
X0356026Y0082806D01*
X0356026Y0080204D01*
X0356893Y0081072D02*
X0357760Y0080204D01*
X0358604Y0080638D02*
X0359037Y0081072D01*
X0360339Y0081072D01*
X0360339Y0081505D02*
X0360339Y0080204D01*
X0359037Y0080204D01*
X0358604Y0080638D01*
X0359037Y0081939D02*
X0359905Y0081939D01*
X0360339Y0081505D01*
X0361182Y0081939D02*
X0361616Y0081939D01*
X0362049Y0081505D01*
X0362483Y0081939D01*
X0362917Y0081505D01*
X0362917Y0080204D01*
X0362049Y0080204D02*
X0362049Y0081505D01*
X0361182Y0081939D02*
X0361182Y0080204D01*
X0361596Y0077554D02*
X0362030Y0077554D01*
X0362030Y0074952D01*
X0362463Y0074952D02*
X0361596Y0074952D01*
X0360752Y0074952D02*
X0359451Y0074952D01*
X0359018Y0075386D01*
X0359451Y0075820D01*
X0360752Y0075820D01*
X0360752Y0076253D02*
X0360752Y0074952D01*
X0360752Y0076253D02*
X0360319Y0076687D01*
X0359451Y0076687D01*
X0358174Y0076253D02*
X0358174Y0074952D01*
X0358174Y0076253D02*
X0357741Y0076687D01*
X0356439Y0076687D01*
X0356439Y0074952D01*
X0355588Y0074952D02*
X0354721Y0074952D01*
X0355154Y0074952D02*
X0355154Y0076687D01*
X0354721Y0076687D01*
X0353877Y0076687D02*
X0352576Y0076687D01*
X0352142Y0076253D01*
X0352142Y0075386D01*
X0352576Y0074952D01*
X0353877Y0074952D01*
X0353877Y0074518D02*
X0353877Y0076687D01*
X0355154Y0077554D02*
X0355154Y0077988D01*
X0353877Y0074518D02*
X0353444Y0074085D01*
X0353010Y0074085D01*
X0353865Y0073788D02*
X0353865Y0073354D01*
X0353865Y0072487D02*
X0353865Y0070752D01*
X0353432Y0070752D02*
X0354299Y0070752D01*
X0355150Y0071186D02*
X0355584Y0070752D01*
X0356451Y0070752D01*
X0356885Y0071186D01*
X0356885Y0072053D01*
X0356451Y0072487D01*
X0355584Y0072487D01*
X0355150Y0072053D01*
X0355150Y0071186D01*
X0353865Y0072487D02*
X0353432Y0072487D01*
X0352588Y0072053D02*
X0352154Y0072487D01*
X0350853Y0072487D01*
X0350853Y0073354D02*
X0350853Y0070752D01*
X0352154Y0070752D01*
X0352588Y0071186D01*
X0352588Y0072053D01*
X0350010Y0072053D02*
X0350010Y0070752D01*
X0348709Y0070752D01*
X0348275Y0071186D01*
X0348709Y0071620D01*
X0350010Y0071620D01*
X0350010Y0072053D02*
X0349576Y0072487D01*
X0348709Y0072487D01*
X0347432Y0073354D02*
X0345697Y0073354D01*
X0345697Y0070752D01*
X0345697Y0072053D02*
X0346564Y0072053D01*
X0346131Y0074952D02*
X0346998Y0074952D01*
X0347432Y0075386D01*
X0347432Y0077121D01*
X0346998Y0077554D01*
X0346131Y0077554D01*
X0345697Y0077121D01*
X0345697Y0075386D01*
X0346131Y0074952D01*
X0348275Y0074952D02*
X0348275Y0076687D01*
X0348275Y0075820D02*
X0349143Y0076687D01*
X0349576Y0076687D01*
X0350424Y0076687D02*
X0350857Y0076687D01*
X0350857Y0074952D01*
X0350424Y0074952D02*
X0351291Y0074952D01*
X0350857Y0077554D02*
X0350857Y0077988D01*
X0345713Y0080204D02*
X0345713Y0082806D01*
X0348291Y0084404D02*
X0349158Y0084404D01*
X0348725Y0084404D02*
X0348725Y0086139D01*
X0348291Y0086139D01*
X0347448Y0086573D02*
X0347014Y0087006D01*
X0346146Y0087006D01*
X0348725Y0087006D02*
X0348725Y0087440D01*
X0350010Y0086139D02*
X0351311Y0086139D01*
X0351745Y0085705D01*
X0351745Y0084404D01*
X0352588Y0084838D02*
X0353022Y0084404D01*
X0354323Y0084404D01*
X0354323Y0083970D02*
X0354323Y0086139D01*
X0353022Y0086139D01*
X0352588Y0085705D01*
X0352588Y0084838D01*
X0353455Y0083537D02*
X0353889Y0083537D01*
X0354323Y0083970D01*
X0355166Y0084404D02*
X0356034Y0084404D01*
X0355600Y0084404D02*
X0355600Y0087006D01*
X0355166Y0087006D01*
X0356885Y0085705D02*
X0357319Y0086139D01*
X0358186Y0086139D01*
X0358620Y0085705D01*
X0358620Y0085272D01*
X0356885Y0085272D01*
X0356885Y0085705D02*
X0356885Y0084838D01*
X0357319Y0084404D01*
X0358186Y0084404D01*
X0362041Y0084404D02*
X0362041Y0087006D01*
X0362909Y0086139D01*
X0363776Y0087006D01*
X0363776Y0084404D01*
X0364620Y0084404D02*
X0365487Y0084404D01*
X0365053Y0084404D02*
X0365053Y0086139D01*
X0364620Y0086139D01*
X0365053Y0087006D02*
X0365053Y0087440D01*
X0366772Y0086139D02*
X0366338Y0085705D01*
X0366338Y0084838D01*
X0366772Y0084404D01*
X0368073Y0084404D01*
X0368916Y0084404D02*
X0368916Y0086139D01*
X0368073Y0086139D02*
X0366772Y0086139D01*
X0368916Y0085272D02*
X0369784Y0086139D01*
X0370218Y0086139D01*
X0371065Y0085705D02*
X0371065Y0084838D01*
X0371499Y0084404D01*
X0372366Y0084404D01*
X0372800Y0084838D01*
X0372800Y0085705D01*
X0372366Y0086139D01*
X0371499Y0086139D01*
X0371065Y0085705D01*
X0373643Y0086139D02*
X0374077Y0085705D01*
X0374944Y0085705D01*
X0375378Y0085272D01*
X0375378Y0084838D01*
X0374944Y0084404D01*
X0374077Y0084404D01*
X0373643Y0084838D01*
X0373643Y0086139D02*
X0373643Y0086573D01*
X0374077Y0087006D01*
X0374944Y0087006D01*
X0375378Y0086573D01*
X0376221Y0087006D02*
X0377523Y0087006D01*
X0377956Y0086573D01*
X0377956Y0084838D01*
X0377523Y0084404D01*
X0376221Y0084404D01*
X0376221Y0087006D01*
X0378800Y0084404D02*
X0380534Y0087006D01*
X0381378Y0087006D02*
X0382245Y0086139D01*
X0383113Y0087006D01*
X0383113Y0084404D01*
X0383956Y0084838D02*
X0384390Y0085272D01*
X0385691Y0085272D01*
X0385691Y0085705D02*
X0385691Y0084404D01*
X0384390Y0084404D01*
X0383956Y0084838D01*
X0384390Y0086139D02*
X0385257Y0086139D01*
X0385691Y0085705D01*
X0386534Y0086139D02*
X0387835Y0086139D01*
X0388269Y0085705D01*
X0388269Y0084838D01*
X0387835Y0084404D01*
X0386534Y0084404D01*
X0386534Y0083537D02*
X0386534Y0086139D01*
X0389112Y0086139D02*
X0389112Y0083537D01*
X0389112Y0084404D02*
X0390413Y0084404D01*
X0390847Y0084838D01*
X0390847Y0085705D01*
X0390413Y0086139D01*
X0389112Y0086139D01*
X0391691Y0085705D02*
X0391691Y0084838D01*
X0392124Y0084404D01*
X0392992Y0084404D01*
X0393425Y0085272D02*
X0391691Y0085272D01*
X0391691Y0085705D02*
X0392124Y0086139D01*
X0392992Y0086139D01*
X0393425Y0085705D01*
X0393425Y0085272D01*
X0394269Y0085272D02*
X0395136Y0086139D01*
X0395570Y0086139D01*
X0394269Y0086139D02*
X0394269Y0084404D01*
X0384370Y0077554D02*
X0384370Y0074952D01*
X0385671Y0074952D01*
X0386105Y0075386D01*
X0386105Y0076253D01*
X0385671Y0076687D01*
X0384370Y0076687D01*
X0386948Y0076687D02*
X0386948Y0075386D01*
X0387382Y0074952D01*
X0388683Y0074952D01*
X0388683Y0074518D02*
X0388249Y0074085D01*
X0387816Y0074085D01*
X0388683Y0074518D02*
X0388683Y0076687D01*
X0383527Y0072053D02*
X0383093Y0072487D01*
X0382225Y0072487D01*
X0381792Y0072053D01*
X0381792Y0071186D01*
X0382225Y0070752D01*
X0383093Y0070752D01*
X0383527Y0071186D01*
X0383527Y0072053D01*
X0380940Y0072487D02*
X0380073Y0072487D01*
X0380507Y0072921D02*
X0380507Y0071186D01*
X0380940Y0070752D01*
X0379230Y0070752D02*
X0379230Y0072487D01*
X0379230Y0070752D02*
X0377928Y0070752D01*
X0377495Y0071186D01*
X0377495Y0072487D01*
X0376651Y0072053D02*
X0376651Y0070752D01*
X0376651Y0072053D02*
X0376218Y0072487D01*
X0374917Y0072487D01*
X0374917Y0070752D01*
X0374073Y0071620D02*
X0372338Y0071620D01*
X0372338Y0072053D02*
X0372772Y0072487D01*
X0373639Y0072487D01*
X0374073Y0072053D01*
X0374073Y0071620D01*
X0373639Y0070752D02*
X0372772Y0070752D01*
X0372338Y0071186D01*
X0372338Y0072053D01*
X0371495Y0072487D02*
X0370628Y0070752D01*
X0369760Y0072487D01*
X0368917Y0072053D02*
X0368917Y0070752D01*
X0367616Y0070752D01*
X0367182Y0071186D01*
X0367616Y0071620D01*
X0368917Y0071620D01*
X0368917Y0072053D02*
X0368483Y0072487D01*
X0367616Y0072487D01*
X0365897Y0073354D02*
X0365897Y0070752D01*
X0365463Y0070752D02*
X0366331Y0070752D01*
X0364620Y0071620D02*
X0362885Y0071620D01*
X0362885Y0072053D02*
X0363319Y0072487D01*
X0364186Y0072487D01*
X0364620Y0072053D01*
X0364620Y0071620D01*
X0364186Y0070752D02*
X0363319Y0070752D01*
X0362885Y0071186D01*
X0362885Y0072053D01*
X0362042Y0071620D02*
X0362042Y0071186D01*
X0361608Y0070752D01*
X0360307Y0070752D01*
X0360307Y0073354D01*
X0361608Y0073354D01*
X0362042Y0072921D01*
X0362042Y0072487D01*
X0361608Y0072053D01*
X0360307Y0072053D01*
X0361608Y0072053D02*
X0362042Y0071620D01*
X0365463Y0073354D02*
X0365897Y0073354D01*
X0365893Y0074085D02*
X0365893Y0076687D01*
X0367194Y0076687D01*
X0367628Y0076253D01*
X0367628Y0075386D01*
X0367194Y0074952D01*
X0365893Y0074952D01*
X0368471Y0074952D02*
X0368471Y0076687D01*
X0368471Y0075820D02*
X0369338Y0076687D01*
X0369772Y0076687D01*
X0370620Y0076253D02*
X0370620Y0075386D01*
X0371053Y0074952D01*
X0371921Y0074952D01*
X0372354Y0075386D01*
X0372354Y0076253D01*
X0371921Y0076687D01*
X0371053Y0076687D01*
X0370620Y0076253D01*
X0373198Y0074085D02*
X0373631Y0074085D01*
X0374065Y0074518D01*
X0374065Y0076687D01*
X0374065Y0077554D02*
X0374065Y0077988D01*
X0375350Y0076687D02*
X0374917Y0076253D01*
X0374917Y0075386D01*
X0375350Y0074952D01*
X0376218Y0074952D01*
X0376651Y0075820D02*
X0374917Y0075820D01*
X0375350Y0076687D02*
X0376218Y0076687D01*
X0376651Y0076253D01*
X0376651Y0075820D01*
X0377495Y0076253D02*
X0377495Y0075386D01*
X0377928Y0074952D01*
X0379230Y0074952D01*
X0380507Y0075386D02*
X0380507Y0077121D01*
X0380073Y0076687D02*
X0380940Y0076687D01*
X0380507Y0075386D02*
X0380940Y0074952D01*
X0379230Y0076687D02*
X0377928Y0076687D01*
X0377495Y0076253D01*
X0381378Y0084404D02*
X0381378Y0087006D01*
X0350010Y0086139D02*
X0350010Y0084404D01*
X0054105Y0182169D02*
X0052637Y0182169D01*
X0053738Y0183270D01*
X0053738Y0181068D01*
X0051895Y0181435D02*
X0051528Y0181068D01*
X0050794Y0181068D01*
X0050427Y0181435D01*
X0050427Y0182903D01*
X0050794Y0183270D01*
X0051528Y0183270D01*
X0051895Y0182903D01*
D11*
X0104507Y0081353D02*
X0103890Y0080736D01*
X0103890Y0078267D01*
X0104507Y0077650D01*
X0105742Y0077650D01*
X0106359Y0078267D01*
X0107573Y0077650D02*
X0110042Y0080119D01*
X0110042Y0080736D01*
X0109425Y0081353D01*
X0108191Y0081353D01*
X0107573Y0080736D01*
X0106359Y0080736D02*
X0105742Y0081353D01*
X0104507Y0081353D01*
X0107573Y0077650D02*
X0110042Y0077650D01*
X0313366Y0059993D02*
X0313366Y0056289D01*
X0315835Y0056289D02*
X0315835Y0059993D01*
X0314601Y0058758D01*
X0313366Y0059993D01*
X0317049Y0058758D02*
X0317667Y0058758D01*
X0317667Y0056289D01*
X0318284Y0056289D02*
X0317049Y0056289D01*
X0319505Y0056907D02*
X0320122Y0056289D01*
X0321974Y0056289D01*
X0323188Y0056289D02*
X0323188Y0058758D01*
X0321974Y0058758D02*
X0320122Y0058758D01*
X0319505Y0058141D01*
X0319505Y0056907D01*
X0317667Y0059993D02*
X0317667Y0060610D01*
X0323188Y0057524D02*
X0324422Y0058758D01*
X0325040Y0058758D01*
X0326257Y0058141D02*
X0326257Y0056907D01*
X0326875Y0056289D01*
X0328109Y0056289D01*
X0328726Y0056907D01*
X0328726Y0058141D01*
X0328109Y0058758D01*
X0326875Y0058758D01*
X0326257Y0058141D01*
X0329940Y0058758D02*
X0330558Y0058141D01*
X0331792Y0058141D01*
X0332409Y0057524D01*
X0332409Y0056907D01*
X0331792Y0056289D01*
X0330558Y0056289D01*
X0329940Y0056907D01*
X0329940Y0058758D02*
X0329940Y0059375D01*
X0330558Y0059993D01*
X0331792Y0059993D01*
X0332409Y0059375D01*
X0333624Y0059993D02*
X0333624Y0056289D01*
X0335475Y0056289D01*
X0336092Y0056907D01*
X0336092Y0059375D01*
X0335475Y0059993D01*
X0333624Y0059993D01*
X0340990Y0059993D02*
X0342224Y0059993D01*
X0341607Y0059993D02*
X0341607Y0056289D01*
X0340990Y0056289D02*
X0342224Y0056289D01*
X0343445Y0056907D02*
X0343445Y0058141D01*
X0344063Y0058758D01*
X0345914Y0058758D01*
X0345914Y0059993D02*
X0345914Y0056289D01*
X0344063Y0056289D01*
X0343445Y0056907D01*
X0347128Y0056907D02*
X0347746Y0056289D01*
X0348980Y0056289D01*
X0349597Y0057524D02*
X0347128Y0057524D01*
X0347128Y0058141D02*
X0347746Y0058758D01*
X0348980Y0058758D01*
X0349597Y0058141D01*
X0349597Y0057524D01*
X0350812Y0056907D02*
X0351429Y0057524D01*
X0353280Y0057524D01*
X0353280Y0058141D02*
X0353280Y0056289D01*
X0351429Y0056289D01*
X0350812Y0056907D01*
X0351429Y0058758D02*
X0352663Y0058758D01*
X0353280Y0058141D01*
X0358178Y0058758D02*
X0360029Y0058758D01*
X0360647Y0058141D01*
X0360647Y0056907D01*
X0360029Y0056289D01*
X0358178Y0056289D01*
X0358178Y0059993D01*
X0361861Y0058758D02*
X0361861Y0056907D01*
X0362478Y0056289D01*
X0364330Y0056289D01*
X0364330Y0055672D02*
X0363713Y0055055D01*
X0363095Y0055055D01*
X0364330Y0055672D02*
X0364330Y0058758D01*
X0369227Y0059375D02*
X0369845Y0059993D01*
X0371079Y0059993D01*
X0371696Y0059375D01*
X0371696Y0058141D01*
X0371079Y0057524D01*
X0371079Y0058758D01*
X0369845Y0058758D01*
X0369845Y0057524D01*
X0371079Y0057524D01*
X0371696Y0056907D02*
X0371079Y0056289D01*
X0369845Y0056289D01*
X0369227Y0056907D01*
X0369227Y0059375D01*
X0374145Y0058758D02*
X0374145Y0055672D01*
X0373528Y0055055D01*
X0372910Y0055055D01*
X0375366Y0056907D02*
X0375983Y0056289D01*
X0377835Y0056289D01*
X0377835Y0055672D02*
X0377835Y0058758D01*
X0375983Y0058758D01*
X0375366Y0058141D01*
X0375366Y0056907D01*
X0376600Y0055055D02*
X0377217Y0055055D01*
X0377835Y0055672D01*
X0379049Y0056289D02*
X0380283Y0056289D01*
X0379666Y0056289D02*
X0379666Y0058758D01*
X0379049Y0058758D01*
X0379666Y0059993D02*
X0379666Y0060610D01*
X0381504Y0059993D02*
X0382122Y0059993D01*
X0382122Y0056289D01*
X0382739Y0056289D02*
X0381504Y0056289D01*
X0383960Y0056907D02*
X0384577Y0056289D01*
X0386429Y0056289D01*
X0387643Y0056907D02*
X0388260Y0057524D01*
X0390112Y0057524D01*
X0390112Y0058141D02*
X0390112Y0056289D01*
X0388260Y0056289D01*
X0387643Y0056907D01*
X0388260Y0058758D02*
X0389495Y0058758D01*
X0390112Y0058141D01*
X0391326Y0058141D02*
X0391943Y0058758D01*
X0393795Y0058758D01*
X0393178Y0057524D02*
X0391943Y0057524D01*
X0391326Y0058141D01*
X0391326Y0056289D02*
X0393178Y0056289D01*
X0393795Y0056907D01*
X0393178Y0057524D01*
X0386429Y0058758D02*
X0384577Y0058758D01*
X0383960Y0058141D01*
X0383960Y0056907D01*
X0374145Y0059993D02*
X0374145Y0060610D01*
X0347128Y0058141D02*
X0347128Y0056907D01*
D12*
X0138824Y0094597D03*
D13*
X0138880Y0094569D03*
X0162512Y0094457D03*
D14*
X0138936Y0094541D03*
D15*
X0138992Y0094541D03*
X0148792Y0094541D03*
D16*
X0152544Y0094513D03*
X0162344Y0094513D03*
X0139048Y0094513D03*
D17*
X0139104Y0094541D03*
X0142632Y0094541D03*
X0148848Y0094541D03*
X0148904Y0094541D03*
X0158648Y0094541D03*
X0158704Y0094541D03*
X0162232Y0094541D03*
X0164640Y0095661D03*
D18*
X0152488Y0094541D03*
X0139160Y0094541D03*
D19*
X0139216Y0094569D03*
X0142576Y0094569D03*
X0152376Y0094569D03*
X0152432Y0094569D03*
X0157696Y0095409D03*
X0162176Y0094569D03*
X0167608Y0095353D03*
D20*
X0139272Y0094653D03*
D21*
X0139328Y0094709D03*
X0140000Y0095325D03*
X0142408Y0094653D03*
X0152264Y0094653D03*
X0158872Y0094653D03*
X0162008Y0094653D03*
D22*
X0158984Y0094709D03*
X0152152Y0094709D03*
X0149352Y0094765D03*
X0149184Y0094709D03*
X0142184Y0094765D03*
X0139552Y0094765D03*
X0139384Y0094709D03*
D23*
X0139440Y0094709D03*
X0139496Y0094765D03*
X0142240Y0094765D03*
X0142296Y0094709D03*
X0149296Y0094765D03*
X0161896Y0094709D03*
D24*
X0161840Y0094737D03*
X0161728Y0094793D03*
X0161672Y0094793D03*
X0159264Y0094793D03*
X0159096Y0094737D03*
X0159040Y0094737D03*
X0152096Y0094737D03*
X0152040Y0094737D03*
X0151928Y0094793D03*
X0149408Y0094793D03*
X0149240Y0094737D03*
X0142128Y0094793D03*
X0142072Y0094793D03*
X0139664Y0094793D03*
X0139608Y0094793D03*
D25*
X0139720Y0094849D03*
X0159320Y0094849D03*
D26*
X0159544Y0095073D03*
X0149744Y0095129D03*
X0139776Y0094961D03*
D27*
X0139832Y0094989D03*
X0141848Y0095045D03*
X0141904Y0094989D03*
X0149576Y0094989D03*
X0159376Y0094933D03*
X0159432Y0094989D03*
X0175896Y0095549D03*
D28*
X0151760Y0094933D03*
X0149688Y0095045D03*
X0141792Y0095101D03*
X0139888Y0095045D03*
D29*
X0139944Y0095101D03*
X0151536Y0095157D03*
X0161336Y0095157D03*
D30*
X0161224Y0097229D03*
X0145992Y0097677D03*
X0145992Y0094765D03*
X0141624Y0097229D03*
X0140056Y0097173D03*
D31*
X0140784Y0097677D03*
X0140952Y0097677D03*
X0141120Y0097677D03*
X0141120Y0094317D03*
X0140952Y0094317D03*
X0140784Y0094317D03*
X0140560Y0094317D03*
X0140392Y0094317D03*
X0140224Y0094317D03*
X0140056Y0094317D03*
X0141288Y0094317D03*
X0141456Y0094317D03*
X0141624Y0094317D03*
X0144984Y0094765D03*
X0145152Y0094765D03*
X0145320Y0094765D03*
X0145488Y0094765D03*
X0145656Y0094765D03*
X0145824Y0094765D03*
X0145488Y0097677D03*
X0145320Y0097677D03*
X0145152Y0097677D03*
X0144984Y0097677D03*
X0160384Y0097677D03*
X0160552Y0097677D03*
X0160720Y0097677D03*
X0169624Y0097677D03*
X0169792Y0097677D03*
X0169960Y0097677D03*
X0170184Y0097677D03*
X0170352Y0097677D03*
X0170520Y0097677D03*
X0170688Y0097677D03*
X0170856Y0097677D03*
X0171024Y0097677D03*
X0171192Y0097677D03*
X0171360Y0097677D03*
X0171584Y0097677D03*
X0171752Y0097677D03*
X0171920Y0097677D03*
X0173656Y0097677D03*
X0173824Y0097677D03*
X0173992Y0097677D03*
X0174160Y0097677D03*
X0174384Y0097677D03*
X0174552Y0097677D03*
X0175952Y0097677D03*
X0176120Y0097677D03*
X0176288Y0097677D03*
X0176456Y0097677D03*
X0176624Y0097677D03*
X0176792Y0097677D03*
X0176960Y0097677D03*
X0170688Y0095213D03*
X0170520Y0095213D03*
X0170352Y0095213D03*
X0170184Y0095213D03*
X0170856Y0092805D03*
X0171024Y0092805D03*
X0171192Y0092805D03*
X0171360Y0092805D03*
X0171584Y0092805D03*
X0171752Y0092805D03*
X0171920Y0092805D03*
D32*
X0170800Y0092777D03*
X0170744Y0092777D03*
X0170632Y0092777D03*
X0170576Y0092777D03*
X0170464Y0092777D03*
X0170408Y0092777D03*
X0170296Y0092777D03*
X0170240Y0092777D03*
X0170128Y0092777D03*
X0170072Y0092777D03*
X0170016Y0092777D03*
X0169904Y0092777D03*
X0169848Y0092777D03*
X0169736Y0092777D03*
X0169680Y0092777D03*
X0169568Y0092777D03*
X0169568Y0095241D03*
X0169680Y0095241D03*
X0169736Y0095241D03*
X0169848Y0095241D03*
X0169904Y0095241D03*
X0170016Y0095241D03*
X0170072Y0095241D03*
X0170128Y0095241D03*
X0161280Y0094289D03*
X0161168Y0094289D03*
X0161112Y0094289D03*
X0161000Y0094289D03*
X0160944Y0094289D03*
X0160832Y0094289D03*
X0160776Y0094289D03*
X0160664Y0094289D03*
X0160608Y0094289D03*
X0160496Y0094289D03*
X0160440Y0094289D03*
X0160328Y0094289D03*
X0160272Y0094289D03*
X0160216Y0094289D03*
X0160104Y0094289D03*
X0160048Y0094289D03*
X0159936Y0094289D03*
X0159880Y0094289D03*
X0159768Y0094289D03*
X0159712Y0094289D03*
X0161168Y0097257D03*
X0160776Y0097649D03*
X0150976Y0097649D03*
X0150808Y0097705D03*
X0150696Y0097705D03*
X0150640Y0097705D03*
X0150528Y0097705D03*
X0150472Y0097705D03*
X0150416Y0097649D03*
X0150416Y0094289D03*
X0150472Y0094289D03*
X0150528Y0094289D03*
X0150640Y0094289D03*
X0150696Y0094289D03*
X0150808Y0094289D03*
X0150864Y0094289D03*
X0150976Y0094289D03*
X0151032Y0094289D03*
X0151144Y0094289D03*
X0151200Y0094289D03*
X0151312Y0094289D03*
X0151368Y0094289D03*
X0151480Y0094289D03*
X0150304Y0094289D03*
X0150248Y0094289D03*
X0150136Y0094289D03*
X0150080Y0094289D03*
X0149968Y0094289D03*
X0149912Y0094289D03*
X0147840Y0093057D03*
X0145936Y0094793D03*
X0145880Y0094793D03*
X0146048Y0097649D03*
X0145936Y0097705D03*
X0145880Y0097705D03*
X0145768Y0097705D03*
X0145712Y0097705D03*
X0141568Y0097257D03*
X0141176Y0097649D03*
X0140504Y0097649D03*
X0140112Y0097257D03*
D33*
X0140616Y0097677D03*
X0140672Y0097677D03*
X0140728Y0097677D03*
X0140840Y0097677D03*
X0140896Y0097677D03*
X0141008Y0097677D03*
X0141064Y0097677D03*
X0141064Y0094317D03*
X0141008Y0094317D03*
X0140896Y0094317D03*
X0140840Y0094317D03*
X0140728Y0094317D03*
X0140672Y0094317D03*
X0140616Y0094317D03*
X0140504Y0094317D03*
X0140448Y0094317D03*
X0140336Y0094317D03*
X0140280Y0094317D03*
X0140168Y0094317D03*
X0140112Y0094317D03*
X0141176Y0094317D03*
X0141232Y0094317D03*
X0141344Y0094317D03*
X0141400Y0094317D03*
X0141512Y0094317D03*
X0141568Y0094317D03*
X0141680Y0094317D03*
X0144928Y0094765D03*
X0145040Y0094765D03*
X0145096Y0094765D03*
X0145208Y0094765D03*
X0145264Y0094765D03*
X0145376Y0094765D03*
X0145432Y0094765D03*
X0145544Y0094765D03*
X0145600Y0094765D03*
X0145712Y0094765D03*
X0145768Y0094765D03*
X0145600Y0097677D03*
X0145544Y0097677D03*
X0145432Y0097677D03*
X0145376Y0097677D03*
X0145264Y0097677D03*
X0145208Y0097677D03*
X0145096Y0097677D03*
X0145040Y0097677D03*
X0144928Y0097677D03*
X0160216Y0097677D03*
X0160272Y0097677D03*
X0160328Y0097677D03*
X0160440Y0097677D03*
X0160496Y0097677D03*
X0160608Y0097677D03*
X0160664Y0097677D03*
X0169568Y0097677D03*
X0169680Y0097677D03*
X0169736Y0097677D03*
X0169848Y0097677D03*
X0169904Y0097677D03*
X0170016Y0097677D03*
X0170072Y0097677D03*
X0170128Y0097677D03*
X0170240Y0097677D03*
X0170296Y0097677D03*
X0170408Y0097677D03*
X0170464Y0097677D03*
X0170576Y0097677D03*
X0170632Y0097677D03*
X0170744Y0097677D03*
X0170800Y0097677D03*
X0170912Y0097677D03*
X0170968Y0097677D03*
X0171080Y0097677D03*
X0171136Y0097677D03*
X0171248Y0097677D03*
X0171304Y0097677D03*
X0171416Y0097677D03*
X0171472Y0097677D03*
X0171528Y0097677D03*
X0171640Y0097677D03*
X0171696Y0097677D03*
X0171808Y0097677D03*
X0171864Y0097677D03*
X0173712Y0097677D03*
X0173768Y0097677D03*
X0173880Y0097677D03*
X0173936Y0097677D03*
X0174048Y0097677D03*
X0174104Y0097677D03*
X0174216Y0097677D03*
X0174272Y0097677D03*
X0174328Y0097677D03*
X0174440Y0097677D03*
X0174496Y0097677D03*
X0174608Y0097677D03*
X0176008Y0097677D03*
X0176064Y0097677D03*
X0176176Y0097677D03*
X0176232Y0097677D03*
X0176344Y0097677D03*
X0176400Y0097677D03*
X0176512Y0097677D03*
X0176568Y0097677D03*
X0176680Y0097677D03*
X0176736Y0097677D03*
X0176848Y0097677D03*
X0176904Y0097677D03*
X0170800Y0095213D03*
X0170744Y0095213D03*
X0170632Y0095213D03*
X0170576Y0095213D03*
X0170464Y0095213D03*
X0170408Y0095213D03*
X0170296Y0095213D03*
X0170240Y0095213D03*
X0170912Y0092805D03*
X0170968Y0092805D03*
X0171080Y0092805D03*
X0171136Y0092805D03*
X0171248Y0092805D03*
X0171304Y0092805D03*
X0171416Y0092805D03*
X0171472Y0092805D03*
X0171528Y0092805D03*
X0171640Y0092805D03*
X0171696Y0092805D03*
X0171808Y0092805D03*
X0171864Y0092805D03*
D34*
X0160832Y0097621D03*
X0160104Y0097621D03*
X0159768Y0097285D03*
X0159712Y0097229D03*
X0151368Y0097285D03*
X0150864Y0097677D03*
X0150304Y0097621D03*
X0147896Y0096165D03*
X0146104Y0097621D03*
X0146048Y0094765D03*
X0141512Y0097341D03*
X0141232Y0097621D03*
X0140168Y0097285D03*
D35*
X0140224Y0097369D03*
X0151424Y0097201D03*
X0152824Y0093897D03*
X0159656Y0097145D03*
X0162624Y0093897D03*
D36*
X0161280Y0097089D03*
X0160944Y0097481D03*
X0160048Y0097537D03*
X0159880Y0097425D03*
X0150248Y0097537D03*
X0141344Y0097481D03*
X0140336Y0097481D03*
X0140280Y0097425D03*
D37*
X0140392Y0097509D03*
X0150192Y0097509D03*
X0151088Y0097509D03*
X0151256Y0097397D03*
X0159992Y0097509D03*
D38*
X0146104Y0094765D03*
X0140448Y0097565D03*
D39*
X0140560Y0097649D03*
X0145656Y0097705D03*
X0145824Y0097705D03*
X0150360Y0097649D03*
X0150584Y0097705D03*
X0150752Y0097705D03*
X0150920Y0097649D03*
X0150920Y0094289D03*
X0150752Y0094289D03*
X0150584Y0094289D03*
X0150360Y0094289D03*
X0150192Y0094289D03*
X0150024Y0094289D03*
X0149856Y0094289D03*
X0151088Y0094289D03*
X0151256Y0094289D03*
X0151424Y0094289D03*
X0159656Y0094289D03*
X0159824Y0094289D03*
X0159992Y0094289D03*
X0160160Y0094289D03*
X0160384Y0094289D03*
X0160552Y0094289D03*
X0160720Y0094289D03*
X0160888Y0094289D03*
X0161056Y0094289D03*
X0161224Y0094289D03*
X0160160Y0097649D03*
X0169624Y0095241D03*
X0169792Y0095241D03*
X0169960Y0095241D03*
X0169960Y0092777D03*
X0169792Y0092777D03*
X0169624Y0092777D03*
X0170184Y0092777D03*
X0170352Y0092777D03*
X0170520Y0092777D03*
X0170688Y0092777D03*
D40*
X0161056Y0097425D03*
X0160888Y0097537D03*
X0150024Y0097369D03*
X0146160Y0097537D03*
X0141456Y0097425D03*
X0141288Y0097537D03*
X0147784Y0093057D03*
D41*
X0146216Y0097509D03*
X0150080Y0097453D03*
X0151200Y0097453D03*
X0151480Y0097117D03*
X0159936Y0097453D03*
X0161000Y0097453D03*
X0141400Y0097453D03*
D42*
X0141680Y0097145D03*
X0149912Y0097257D03*
X0151032Y0097593D03*
D43*
X0151816Y0094849D03*
X0142016Y0094849D03*
X0141736Y0095185D03*
X0161616Y0094849D03*
D44*
X0161560Y0094877D03*
X0141960Y0094877D03*
D45*
X0142352Y0094681D03*
X0161952Y0094681D03*
D46*
X0153496Y0095913D03*
X0142464Y0094625D03*
D47*
X0142520Y0094597D03*
D48*
X0142688Y0094513D03*
X0158592Y0094513D03*
X0162288Y0094513D03*
D49*
X0158536Y0094541D03*
X0154728Y0095773D03*
X0152600Y0094541D03*
X0142744Y0094541D03*
D50*
X0142800Y0094513D03*
X0148736Y0094569D03*
X0162400Y0094513D03*
D51*
X0142856Y0094541D03*
D52*
X0142912Y0094485D03*
D53*
X0142968Y0094401D03*
D54*
X0143752Y0095437D03*
D55*
X0143808Y0095325D03*
X0144816Y0095325D03*
X0146832Y0095213D03*
X0164528Y0095269D03*
D56*
X0164472Y0095269D03*
X0163576Y0095269D03*
X0168504Y0095269D03*
X0174832Y0095269D03*
X0175672Y0095269D03*
X0175728Y0095269D03*
X0156576Y0095269D03*
X0144704Y0095269D03*
X0143864Y0095269D03*
D57*
X0143920Y0095269D03*
X0144760Y0095269D03*
X0154560Y0095269D03*
X0166488Y0095269D03*
X0174888Y0095269D03*
D58*
X0174944Y0095241D03*
X0175000Y0095241D03*
X0175112Y0095241D03*
X0175168Y0095241D03*
X0175336Y0095241D03*
X0175448Y0095241D03*
X0175504Y0095241D03*
X0175616Y0095241D03*
X0169176Y0095241D03*
X0169064Y0095241D03*
X0169008Y0095241D03*
X0168896Y0095241D03*
X0168840Y0095241D03*
X0168728Y0095241D03*
X0168672Y0095241D03*
X0168616Y0095241D03*
X0167328Y0095241D03*
X0167272Y0095241D03*
X0167216Y0095241D03*
X0166712Y0095241D03*
X0166600Y0095241D03*
X0166544Y0095241D03*
X0164416Y0095241D03*
X0164304Y0095241D03*
X0164248Y0095241D03*
X0163800Y0095241D03*
X0163744Y0095241D03*
X0163632Y0095241D03*
X0157472Y0095241D03*
X0157416Y0095241D03*
X0157304Y0095241D03*
X0157248Y0095241D03*
X0156800Y0095241D03*
X0156744Y0095241D03*
X0156632Y0095241D03*
X0154504Y0095241D03*
X0154448Y0095241D03*
X0154336Y0095241D03*
X0153664Y0095297D03*
X0144648Y0095241D03*
X0144536Y0095241D03*
X0144480Y0095241D03*
X0144368Y0095241D03*
X0144200Y0095241D03*
X0144144Y0095241D03*
X0144032Y0095241D03*
X0143976Y0095241D03*
D59*
X0144088Y0095241D03*
X0144424Y0095241D03*
X0144592Y0095241D03*
X0154392Y0095241D03*
X0156688Y0095241D03*
X0157360Y0095241D03*
X0163688Y0095241D03*
X0164360Y0095241D03*
X0166656Y0095241D03*
X0167160Y0095241D03*
X0167384Y0095241D03*
X0168560Y0095241D03*
X0168784Y0095241D03*
X0168952Y0095241D03*
X0169120Y0095241D03*
X0175056Y0095241D03*
X0175224Y0095241D03*
X0175392Y0095241D03*
X0175560Y0095241D03*
D60*
X0169456Y0095213D03*
X0169288Y0095213D03*
X0166992Y0095213D03*
X0166824Y0095213D03*
X0164192Y0095213D03*
X0164024Y0095213D03*
X0163856Y0095213D03*
X0157192Y0095213D03*
X0157024Y0095213D03*
X0156856Y0095213D03*
X0153888Y0095269D03*
X0153720Y0095269D03*
X0144256Y0095213D03*
D61*
X0144312Y0095213D03*
X0153776Y0095269D03*
X0153832Y0095269D03*
X0156912Y0095213D03*
X0156968Y0095213D03*
X0157080Y0095213D03*
X0157136Y0095213D03*
X0163912Y0095213D03*
X0163968Y0095213D03*
X0164080Y0095213D03*
X0164136Y0095213D03*
X0166768Y0095213D03*
X0166880Y0095213D03*
X0166936Y0095213D03*
X0167048Y0095213D03*
X0167104Y0095213D03*
X0169232Y0095213D03*
X0169344Y0095213D03*
X0169400Y0095213D03*
X0169512Y0095213D03*
X0175280Y0095213D03*
D62*
X0163464Y0095409D03*
X0157640Y0095241D03*
X0144872Y0095409D03*
D63*
X0146160Y0094877D03*
X0147392Y0093085D03*
D64*
X0146216Y0094821D03*
D65*
X0147672Y0093057D03*
X0147728Y0093057D03*
X0146328Y0097481D03*
X0146272Y0097481D03*
X0150136Y0097481D03*
X0151144Y0097481D03*
D66*
X0146272Y0094793D03*
X0163408Y0094905D03*
D67*
X0147616Y0096249D03*
X0146440Y0094793D03*
X0146328Y0094793D03*
X0146944Y0093281D03*
X0147000Y0093281D03*
X0147112Y0093281D03*
X0147168Y0093281D03*
X0147280Y0093225D03*
D68*
X0147560Y0093029D03*
X0146384Y0097453D03*
D69*
X0146384Y0094793D03*
X0146888Y0093281D03*
X0147056Y0093281D03*
D70*
X0147504Y0093029D03*
X0147616Y0093029D03*
X0146440Y0097453D03*
D71*
X0146496Y0097425D03*
X0147448Y0093057D03*
D72*
X0146496Y0094765D03*
X0147504Y0096277D03*
D73*
X0146552Y0097397D03*
D74*
X0146552Y0094765D03*
X0165760Y0094765D03*
D75*
X0146608Y0095801D03*
D76*
X0146664Y0095353D03*
X0175840Y0095353D03*
D77*
X0174720Y0095325D03*
X0146720Y0095269D03*
D78*
X0146776Y0095241D03*
X0154616Y0095297D03*
X0156464Y0095297D03*
X0157528Y0095241D03*
X0166432Y0095241D03*
X0167440Y0095241D03*
X0167496Y0095241D03*
X0168448Y0095297D03*
X0174776Y0095297D03*
D79*
X0146888Y0096249D03*
D80*
X0146944Y0096249D03*
D81*
X0147000Y0096249D03*
D82*
X0147056Y0096221D03*
D83*
X0147112Y0096249D03*
X0147168Y0096249D03*
D84*
X0147224Y0096277D03*
D85*
X0147560Y0096277D03*
X0147224Y0093253D03*
D86*
X0147280Y0096277D03*
X0155512Y0095325D03*
X0155568Y0095269D03*
X0156128Y0094261D03*
X0164976Y0096221D03*
X0166040Y0094261D03*
D87*
X0166264Y0094037D03*
X0165312Y0095493D03*
X0154896Y0096445D03*
X0147336Y0096277D03*
D88*
X0147336Y0093197D03*
D89*
X0147392Y0096333D03*
D90*
X0147448Y0096305D03*
D91*
X0147672Y0096277D03*
D92*
X0147728Y0096249D03*
D93*
X0147784Y0096249D03*
D94*
X0147840Y0096221D03*
D95*
X0147896Y0093057D03*
X0172368Y0097705D03*
X0177296Y0097705D03*
D96*
X0148624Y0094681D03*
D97*
X0148680Y0094597D03*
X0156408Y0094597D03*
D98*
X0158760Y0094569D03*
X0148960Y0094569D03*
D99*
X0149016Y0094597D03*
X0158816Y0094597D03*
D100*
X0149072Y0094681D03*
D101*
X0149128Y0094737D03*
X0152208Y0094681D03*
X0158928Y0094681D03*
D102*
X0159600Y0095213D03*
X0151872Y0094821D03*
X0149800Y0095213D03*
X0149464Y0094821D03*
D103*
X0149520Y0094905D03*
D104*
X0149632Y0095017D03*
X0151704Y0095017D03*
X0161448Y0095017D03*
X0161504Y0094961D03*
D105*
X0149856Y0097173D03*
D106*
X0149968Y0097313D03*
X0161112Y0097313D03*
D107*
X0151312Y0097341D03*
D108*
X0151592Y0095073D03*
X0159488Y0095017D03*
X0161392Y0095073D03*
D109*
X0166376Y0095101D03*
X0174664Y0095493D03*
X0151648Y0095045D03*
D110*
X0151984Y0094737D03*
X0159152Y0094737D03*
X0161784Y0094737D03*
D111*
X0162120Y0094569D03*
X0152320Y0094569D03*
D112*
X0152656Y0094513D03*
X0162456Y0094513D03*
D113*
X0158480Y0094569D03*
X0152712Y0094513D03*
D114*
X0152768Y0094429D03*
D115*
X0153552Y0095409D03*
X0168392Y0095353D03*
D116*
X0153608Y0095325D03*
D117*
X0153944Y0095241D03*
X0154000Y0095241D03*
X0154112Y0095241D03*
X0154168Y0095241D03*
X0154280Y0095241D03*
D118*
X0154224Y0095241D03*
X0154056Y0095241D03*
D119*
X0154672Y0095381D03*
D120*
X0154784Y0096585D03*
D121*
X0154840Y0096585D03*
X0155344Y0095633D03*
X0156296Y0094009D03*
X0166208Y0094009D03*
D122*
X0165424Y0095353D03*
X0164920Y0096305D03*
X0156352Y0094121D03*
X0156184Y0094233D03*
X0155624Y0095241D03*
X0155456Y0095409D03*
X0154952Y0096361D03*
D123*
X0155008Y0096305D03*
X0155680Y0095185D03*
X0165032Y0096193D03*
X0165480Y0095297D03*
X0165536Y0095241D03*
X0165872Y0094345D03*
D124*
X0165928Y0094289D03*
X0156072Y0094289D03*
X0156016Y0094289D03*
X0155064Y0096249D03*
D125*
X0155120Y0096193D03*
D126*
X0155176Y0096053D03*
X0165368Y0095381D03*
X0166096Y0094205D03*
D127*
X0155232Y0095801D03*
D128*
X0155288Y0095717D03*
X0164752Y0096557D03*
X0165256Y0095605D03*
D129*
X0155400Y0095465D03*
D130*
X0155736Y0095073D03*
X0164808Y0096473D03*
D131*
X0155792Y0094849D03*
D132*
X0155848Y0094765D03*
X0165704Y0094821D03*
D133*
X0165816Y0094681D03*
X0155904Y0094681D03*
D134*
X0155960Y0094373D03*
X0165984Y0094261D03*
D135*
X0156240Y0094149D03*
D136*
X0156520Y0095241D03*
X0157584Y0095241D03*
X0163520Y0095297D03*
X0175784Y0095297D03*
D137*
X0158424Y0094569D03*
D138*
X0159208Y0094765D03*
X0168336Y0095661D03*
D139*
X0159824Y0097341D03*
D140*
X0162064Y0094597D03*
D141*
X0162568Y0094345D03*
D142*
X0164584Y0095353D03*
D143*
X0164696Y0096557D03*
D144*
X0164864Y0096361D03*
D145*
X0165088Y0095969D03*
D146*
X0165144Y0095773D03*
D147*
X0165200Y0095717D03*
D148*
X0165592Y0095157D03*
D149*
X0165648Y0094989D03*
D150*
X0166152Y0094093D03*
D151*
X0166320Y0094373D03*
D152*
X0167552Y0095269D03*
D153*
X0170856Y0095241D03*
X0171024Y0095241D03*
X0171192Y0095241D03*
X0172088Y0097705D03*
X0173488Y0097705D03*
D154*
X0173432Y0097705D03*
X0173544Y0097705D03*
X0173600Y0097705D03*
X0172144Y0097705D03*
X0172032Y0097705D03*
X0171976Y0097705D03*
X0171248Y0095241D03*
X0171136Y0095241D03*
X0171080Y0095241D03*
X0170968Y0095241D03*
X0170912Y0095241D03*
X0171976Y0092833D03*
X0172032Y0092833D03*
X0177016Y0097705D03*
D155*
X0173376Y0097733D03*
X0171304Y0095269D03*
X0172144Y0092805D03*
X0172200Y0092805D03*
X0172312Y0092805D03*
D156*
X0172256Y0092805D03*
X0172088Y0092805D03*
X0171360Y0095269D03*
D157*
X0171416Y0095297D03*
X0172312Y0097705D03*
X0177240Y0097705D03*
D158*
X0171472Y0095157D03*
D159*
X0172200Y0097677D03*
X0177072Y0097677D03*
X0177128Y0097677D03*
D160*
X0173320Y0097761D03*
X0172256Y0097705D03*
D161*
X0173264Y0097789D03*
X0172368Y0092805D03*
D162*
X0172424Y0092777D03*
X0172424Y0097705D03*
D163*
X0172480Y0097733D03*
D164*
X0172480Y0092805D03*
D165*
X0172536Y0097705D03*
D166*
X0172536Y0092833D03*
D167*
X0177184Y0097677D03*
D168*
X0177352Y0097705D03*
D169*
X0177408Y0097733D03*
D170*
X0162159Y0105907D03*
X0162159Y0106007D03*
X0159759Y0105607D03*
X0158259Y0105707D03*
X0156859Y0106307D03*
X0156859Y0106407D03*
X0157859Y0102107D03*
X0157859Y0102007D03*
X0159459Y0101907D03*
X0158159Y0113007D03*
X0159159Y0114507D03*
X0161459Y0114407D03*
X0161559Y0114207D03*
X0161559Y0114107D03*
X0160159Y0118407D03*
X0156259Y0117807D03*
X0167359Y0116107D03*
X0167759Y0118007D03*
X0177159Y0113107D03*
X0177159Y0112707D03*
X0174259Y0109707D03*
X0130159Y0095207D03*
D171*
X0130159Y0095307D03*
X0131359Y0097007D03*
X0131459Y0097107D03*
X0156159Y0102507D03*
X0161659Y0113307D03*
X0161559Y0113707D03*
X0161459Y0113807D03*
X0162659Y0116807D03*
X0161559Y0118407D03*
X0158759Y0117807D03*
X0158059Y0115607D03*
X0157059Y0116107D03*
X0167259Y0115607D03*
X0167259Y0115507D03*
X0173659Y0116107D03*
X0176059Y0108007D03*
D172*
X0174809Y0109607D03*
X0176209Y0113407D03*
X0173809Y0115007D03*
X0167209Y0115007D03*
X0167209Y0115107D03*
X0164609Y0114507D03*
X0164609Y0114407D03*
X0164509Y0114707D03*
X0164509Y0114807D03*
X0164409Y0115007D03*
X0162409Y0117207D03*
X0159609Y0114907D03*
X0157909Y0122707D03*
X0161609Y0105607D03*
X0130109Y0095407D03*
X0128409Y0096807D03*
X0128009Y0097207D03*
X0127909Y0097407D03*
X0127809Y0097507D03*
X0127809Y0097607D03*
D173*
X0127559Y0098207D03*
X0127559Y0098307D03*
X0127559Y0098907D03*
X0127559Y0099107D03*
X0127759Y0099807D03*
X0127759Y0099907D03*
X0127859Y0100207D03*
X0128059Y0100507D03*
X0128059Y0100607D03*
X0128459Y0101307D03*
X0130059Y0095507D03*
X0134759Y0100807D03*
X0155559Y0116607D03*
X0159359Y0115107D03*
X0161759Y0118007D03*
X0167059Y0114707D03*
X0167059Y0114607D03*
X0172759Y0113807D03*
X0172859Y0113907D03*
X0173159Y0114107D03*
X0173259Y0114207D03*
X0173459Y0114507D03*
X0176159Y0113307D03*
X0175859Y0108307D03*
D174*
X0171759Y0113307D03*
X0161759Y0117807D03*
X0159159Y0115307D03*
X0155559Y0116507D03*
X0159459Y0111507D03*
X0132459Y0108907D03*
X0132459Y0108807D03*
X0132459Y0108707D03*
X0132459Y0108607D03*
X0132459Y0108507D03*
X0128759Y0101807D03*
X0128659Y0101707D03*
X0127359Y0099007D03*
X0130059Y0095607D03*
D175*
X0130059Y0095707D03*
X0133459Y0112507D03*
X0133459Y0112607D03*
X0133559Y0112807D03*
X0158959Y0115507D03*
X0159059Y0115407D03*
X0161759Y0117707D03*
X0157859Y0122607D03*
X0159359Y0111307D03*
X0167859Y0112407D03*
X0167959Y0112307D03*
X0167959Y0112207D03*
X0168059Y0112007D03*
D176*
X0167659Y0112607D03*
X0175359Y0109207D03*
X0155659Y0116407D03*
X0133459Y0112307D03*
X0129059Y0102207D03*
X0129959Y0095807D03*
D177*
X0129959Y0095907D03*
X0134659Y0101107D03*
X0159559Y0117107D03*
D178*
X0167459Y0112807D03*
X0168959Y0111807D03*
X0160759Y0105307D03*
X0159859Y0106407D03*
X0129959Y0096007D03*
D179*
X0129909Y0096107D03*
X0155709Y0116207D03*
D180*
X0150159Y0114007D03*
X0137759Y0109307D03*
X0134559Y0101307D03*
X0129859Y0096207D03*
X0159359Y0102507D03*
X0167259Y0112907D03*
X0167259Y0113007D03*
X0169159Y0111507D03*
X0169459Y0111407D03*
D181*
X0167159Y0113107D03*
X0159859Y0111107D03*
X0150059Y0114207D03*
X0157759Y0122407D03*
X0174859Y0111407D03*
X0159359Y0102707D03*
X0137859Y0109207D03*
X0133859Y0112107D03*
X0134559Y0101407D03*
X0129859Y0096307D03*
D182*
X0129809Y0096407D03*
X0165909Y0113707D03*
X0165909Y0113807D03*
X0169609Y0111307D03*
D183*
X0166159Y0113307D03*
X0165959Y0113907D03*
X0165959Y0114007D03*
X0165959Y0114107D03*
X0143159Y0124107D03*
X0134459Y0101507D03*
X0129759Y0096507D03*
D184*
X0129759Y0096607D03*
X0150059Y0114307D03*
X0165059Y0109007D03*
X0166959Y0113207D03*
X0165959Y0114207D03*
X0169759Y0111107D03*
X0174959Y0111607D03*
X0175359Y0112207D03*
D185*
X0176509Y0112407D03*
X0173609Y0114607D03*
X0173709Y0114807D03*
X0173009Y0114007D03*
X0159809Y0116807D03*
X0159509Y0115007D03*
X0159609Y0111807D03*
X0160409Y0106307D03*
X0156409Y0117607D03*
X0128509Y0101207D03*
X0128309Y0101007D03*
X0127609Y0098107D03*
X0127609Y0098007D03*
X0128509Y0096707D03*
D186*
X0131109Y0096707D03*
X0131209Y0096807D03*
X0134809Y0100707D03*
X0141509Y0109107D03*
X0141509Y0109207D03*
X0161709Y0118207D03*
X0162509Y0117107D03*
X0167209Y0115307D03*
X0167209Y0115207D03*
X0173609Y0116007D03*
X0173909Y0115107D03*
X0176009Y0108107D03*
D187*
X0176659Y0112507D03*
X0164559Y0114607D03*
X0159859Y0116607D03*
X0155459Y0116707D03*
X0128259Y0096907D03*
X0128159Y0097007D03*
X0128059Y0097107D03*
X0127959Y0097307D03*
D188*
X0131259Y0096907D03*
X0139259Y0105607D03*
X0156159Y0102707D03*
X0159859Y0116507D03*
X0161659Y0118307D03*
X0162559Y0117007D03*
X0167259Y0115407D03*
X0173959Y0115207D03*
X0176759Y0112607D03*
X0173959Y0111107D03*
X0156259Y0117707D03*
D189*
X0157209Y0116007D03*
X0157409Y0115907D03*
X0157609Y0115807D03*
X0157809Y0115707D03*
X0159709Y0115607D03*
X0159909Y0116307D03*
X0162709Y0116707D03*
X0167309Y0115707D03*
X0174209Y0112407D03*
X0173909Y0111007D03*
X0156109Y0102407D03*
X0156109Y0102307D03*
X0131909Y0097607D03*
X0131809Y0097507D03*
X0131709Y0097407D03*
X0131609Y0097307D03*
X0131509Y0097207D03*
D190*
X0127759Y0097707D03*
X0127659Y0097807D03*
X0127659Y0097907D03*
X0128059Y0100407D03*
X0159659Y0114707D03*
X0159659Y0114807D03*
X0159859Y0116707D03*
X0158659Y0117907D03*
X0161759Y0118107D03*
X0164359Y0115107D03*
X0164459Y0114907D03*
X0167159Y0114907D03*
X0167159Y0114807D03*
X0173659Y0114707D03*
X0173759Y0114907D03*
X0175959Y0108207D03*
X0161559Y0105507D03*
X0161459Y0105407D03*
D191*
X0156859Y0105807D03*
X0156859Y0105907D03*
X0159859Y0116207D03*
X0158059Y0117307D03*
X0162759Y0116607D03*
X0162859Y0116507D03*
X0163159Y0116207D03*
X0167259Y0115807D03*
X0171859Y0112207D03*
X0132059Y0097707D03*
D192*
X0132109Y0097807D03*
X0134809Y0100607D03*
X0158009Y0102407D03*
X0159409Y0102307D03*
X0159709Y0105407D03*
X0158109Y0110707D03*
X0159909Y0116107D03*
X0162909Y0116407D03*
X0163009Y0116307D03*
X0163209Y0116107D03*
X0163309Y0116007D03*
X0163409Y0115907D03*
X0163509Y0115707D03*
X0163609Y0115607D03*
X0163709Y0115507D03*
X0163709Y0115407D03*
X0163809Y0115307D03*
X0163909Y0115207D03*
X0155409Y0116807D03*
X0173709Y0116207D03*
X0174009Y0115907D03*
X0174309Y0112507D03*
D193*
X0173959Y0110507D03*
X0174159Y0109807D03*
X0176859Y0108707D03*
X0174459Y0115307D03*
X0174459Y0115407D03*
X0174459Y0115507D03*
X0174459Y0115607D03*
X0174359Y0115807D03*
X0168859Y0113307D03*
X0165059Y0115207D03*
X0161259Y0114807D03*
X0159059Y0114307D03*
X0159059Y0114207D03*
X0159459Y0118007D03*
X0159659Y0118107D03*
X0159859Y0118207D03*
X0160059Y0118307D03*
X0167859Y0118107D03*
X0162259Y0106207D03*
X0161059Y0105807D03*
X0161059Y0105707D03*
X0159759Y0105807D03*
X0159759Y0105907D03*
X0159759Y0106007D03*
X0159759Y0106107D03*
X0158359Y0106007D03*
X0158359Y0105907D03*
X0156959Y0106707D03*
X0156959Y0106807D03*
X0157759Y0101707D03*
X0157759Y0101607D03*
X0157759Y0101507D03*
X0159359Y0101507D03*
X0159359Y0101407D03*
X0160759Y0101807D03*
X0160759Y0101907D03*
X0139259Y0105507D03*
X0132159Y0097907D03*
D194*
X0127509Y0098407D03*
X0127509Y0098507D03*
X0127509Y0098707D03*
X0127509Y0098807D03*
X0127709Y0100007D03*
X0127909Y0100307D03*
X0128109Y0100807D03*
X0128509Y0101407D03*
X0128609Y0101507D03*
X0143109Y0124307D03*
X0167109Y0114507D03*
X0167109Y0114407D03*
X0171309Y0112707D03*
X0173309Y0114307D03*
X0173409Y0114407D03*
X0174209Y0111207D03*
X0176409Y0112307D03*
D195*
X0175859Y0108407D03*
X0171159Y0112407D03*
X0171159Y0112507D03*
X0171259Y0112607D03*
X0171359Y0112807D03*
X0171459Y0112907D03*
X0162259Y0107307D03*
X0159259Y0115207D03*
X0159759Y0116907D03*
X0161759Y0117907D03*
X0128259Y0101107D03*
X0128159Y0100907D03*
X0128059Y0100707D03*
X0127759Y0100107D03*
X0127659Y0099707D03*
X0127559Y0099607D03*
X0127559Y0099507D03*
X0127559Y0099307D03*
X0127459Y0098607D03*
D196*
X0157959Y0098807D03*
X0157959Y0098907D03*
D197*
X0165559Y0110107D03*
X0160759Y0112907D03*
X0160559Y0112807D03*
X0160259Y0113707D03*
X0160259Y0113807D03*
X0160159Y0114007D03*
X0160159Y0114107D03*
X0160159Y0114207D03*
X0160659Y0114407D03*
X0160759Y0114207D03*
X0160759Y0114107D03*
X0161059Y0115207D03*
X0158959Y0113307D03*
X0158959Y0113207D03*
X0158859Y0112507D03*
X0158859Y0112407D03*
X0158859Y0112307D03*
X0158859Y0112207D03*
X0154359Y0113807D03*
X0154359Y0113907D03*
X0154459Y0114107D03*
X0154459Y0114207D03*
X0154659Y0114507D03*
X0154659Y0114607D03*
X0154759Y0114707D03*
X0154859Y0114907D03*
X0154959Y0115007D03*
X0154959Y0115107D03*
X0155159Y0115307D03*
X0155359Y0115607D03*
X0153759Y0115607D03*
X0153759Y0115707D03*
X0152859Y0115707D03*
X0153459Y0114607D03*
X0153459Y0114507D03*
X0153259Y0114207D03*
X0153259Y0114107D03*
X0153259Y0114007D03*
X0154259Y0113607D03*
X0165659Y0116307D03*
X0165759Y0116407D03*
X0165859Y0116507D03*
X0166659Y0117307D03*
X0166759Y0117407D03*
X0167459Y0116407D03*
X0167459Y0116307D03*
X0168659Y0116907D03*
X0168859Y0116407D03*
X0168959Y0116007D03*
X0168359Y0117507D03*
X0171459Y0114607D03*
X0171559Y0114707D03*
X0171959Y0115207D03*
X0172059Y0115307D03*
X0172159Y0115407D03*
X0172259Y0115507D03*
X0173859Y0116307D03*
X0131559Y0110907D03*
X0128559Y0104107D03*
X0128159Y0103707D03*
X0128259Y0103507D03*
X0128259Y0103307D03*
X0128059Y0103207D03*
X0128059Y0103007D03*
X0127859Y0102907D03*
X0127959Y0102607D03*
X0127759Y0102607D03*
X0127559Y0102107D03*
X0127159Y0101507D03*
X0127259Y0101407D03*
X0127259Y0101307D03*
X0127359Y0101207D03*
X0127159Y0101007D03*
X0126859Y0100607D03*
X0126859Y0100507D03*
X0126859Y0100407D03*
X0126759Y0100707D03*
X0126459Y0100007D03*
X0126259Y0098907D03*
D198*
X0140109Y0113607D03*
X0148409Y0105807D03*
X0158009Y0099007D03*
D199*
X0158809Y0112007D03*
X0158809Y0112107D03*
X0158909Y0112607D03*
X0158909Y0112707D03*
X0158909Y0112807D03*
X0158909Y0112907D03*
X0158909Y0113007D03*
X0158909Y0113107D03*
X0159009Y0113407D03*
X0159009Y0113507D03*
X0159009Y0113607D03*
X0158109Y0114607D03*
X0160509Y0114607D03*
X0160609Y0114507D03*
X0160809Y0114007D03*
X0160809Y0113907D03*
X0161109Y0113607D03*
X0160909Y0113007D03*
X0165209Y0115607D03*
X0165309Y0115807D03*
X0165409Y0115907D03*
X0165509Y0116107D03*
X0165609Y0116207D03*
X0165909Y0116607D03*
X0166009Y0116707D03*
X0166109Y0116807D03*
X0166209Y0116907D03*
X0166309Y0117007D03*
X0166409Y0117107D03*
X0166509Y0117207D03*
X0166909Y0117507D03*
X0167009Y0117607D03*
X0167109Y0117707D03*
X0167409Y0117907D03*
X0168409Y0117407D03*
X0168609Y0117107D03*
X0168609Y0117007D03*
X0168709Y0116807D03*
X0168709Y0116707D03*
X0168909Y0116307D03*
X0168909Y0116207D03*
X0168909Y0116107D03*
X0169009Y0115907D03*
X0169009Y0115807D03*
X0169009Y0115707D03*
X0169009Y0115607D03*
X0169009Y0115507D03*
X0169109Y0115407D03*
X0169109Y0115307D03*
X0169109Y0115207D03*
X0169109Y0115107D03*
X0169109Y0115007D03*
X0169109Y0114907D03*
X0169109Y0114807D03*
X0169109Y0114707D03*
X0169109Y0114607D03*
X0169109Y0114507D03*
X0169109Y0114207D03*
X0169109Y0114107D03*
X0169109Y0114007D03*
X0169109Y0113907D03*
X0169109Y0113807D03*
X0171409Y0114407D03*
X0171409Y0114507D03*
X0171609Y0114807D03*
X0171709Y0114907D03*
X0171809Y0115007D03*
X0171909Y0115107D03*
X0172409Y0115607D03*
X0172509Y0115707D03*
X0167409Y0116207D03*
X0155209Y0115407D03*
X0155009Y0115207D03*
X0154509Y0114307D03*
X0154409Y0114007D03*
X0154309Y0113707D03*
X0153509Y0114407D03*
X0153909Y0115807D03*
X0154009Y0116007D03*
X0126309Y0099107D03*
D200*
X0140209Y0113407D03*
X0158109Y0099107D03*
D201*
X0160009Y0102407D03*
X0162509Y0107507D03*
X0159709Y0111707D03*
X0171109Y0112307D03*
X0171509Y0113007D03*
X0171609Y0113107D03*
X0171709Y0113207D03*
X0176109Y0113207D03*
X0175109Y0109507D03*
X0134709Y0100907D03*
X0129009Y0102007D03*
X0128609Y0101607D03*
X0127509Y0099407D03*
X0127409Y0099207D03*
D202*
X0140259Y0113307D03*
X0157959Y0099207D03*
D203*
X0157859Y0099307D03*
X0140359Y0113107D03*
D204*
X0147709Y0110207D03*
X0157809Y0099407D03*
D205*
X0157809Y0099507D03*
X0145809Y0112107D03*
D206*
X0157709Y0099607D03*
D207*
X0157659Y0099707D03*
X0150059Y0105307D03*
X0149959Y0105407D03*
X0145459Y0112507D03*
D208*
X0145309Y0112707D03*
X0157609Y0099807D03*
X0164809Y0107807D03*
D209*
X0164809Y0107907D03*
X0157609Y0099907D03*
D210*
X0157559Y0100007D03*
X0153359Y0103107D03*
D211*
X0153209Y0103307D03*
X0157509Y0100107D03*
X0143609Y0116507D03*
X0143809Y0116907D03*
X0143909Y0117107D03*
X0144009Y0117207D03*
D212*
X0144359Y0117607D03*
X0144459Y0117707D03*
X0144559Y0117807D03*
X0142959Y0115307D03*
X0153059Y0103507D03*
X0157459Y0100207D03*
D213*
X0157459Y0100307D03*
X0152959Y0103607D03*
X0143359Y0115807D03*
X0143459Y0115907D03*
D214*
X0152909Y0103807D03*
X0157409Y0100407D03*
D215*
X0157409Y0100507D03*
X0152809Y0103907D03*
X0153009Y0109007D03*
D216*
X0157359Y0100607D03*
X0145459Y0118407D03*
D217*
X0157309Y0100707D03*
D218*
X0157309Y0100807D03*
D219*
X0157259Y0100907D03*
D220*
X0168009Y0112107D03*
X0167809Y0112507D03*
X0172109Y0113607D03*
X0172209Y0113707D03*
X0175309Y0109307D03*
X0161709Y0117607D03*
X0160809Y0118507D03*
X0159609Y0117007D03*
X0133409Y0112407D03*
X0132609Y0109207D03*
X0134709Y0101007D03*
D221*
X0157259Y0101007D03*
D222*
X0152309Y0101107D03*
X0151009Y0102207D03*
D223*
X0163459Y0101107D03*
X0136259Y0105807D03*
X0132459Y0103407D03*
D224*
X0134609Y0101207D03*
X0133609Y0112207D03*
X0150309Y0113807D03*
X0159609Y0111207D03*
X0159509Y0117207D03*
X0157809Y0122507D03*
X0169009Y0111707D03*
X0174709Y0111307D03*
D225*
X0152259Y0101207D03*
D226*
X0159409Y0101207D03*
X0159409Y0101307D03*
X0158409Y0106107D03*
X0158409Y0106207D03*
X0158409Y0106307D03*
X0161109Y0106207D03*
X0161109Y0106107D03*
X0161109Y0106007D03*
X0161109Y0105907D03*
X0166909Y0109207D03*
X0166909Y0109307D03*
X0166909Y0109407D03*
X0168909Y0113407D03*
X0171109Y0113807D03*
X0171109Y0113907D03*
X0172709Y0115807D03*
X0173709Y0115307D03*
X0174409Y0115707D03*
X0173909Y0110407D03*
X0176709Y0109107D03*
X0176809Y0109007D03*
X0176809Y0108907D03*
X0176809Y0108807D03*
X0168709Y0116507D03*
X0168209Y0117607D03*
X0168109Y0117707D03*
X0168109Y0117807D03*
X0167309Y0117807D03*
X0165109Y0115407D03*
X0165109Y0115307D03*
X0161209Y0115007D03*
X0161209Y0114907D03*
X0159009Y0114107D03*
X0159009Y0114007D03*
X0159009Y0113907D03*
X0158109Y0114407D03*
X0158109Y0114507D03*
X0158109Y0112507D03*
X0155509Y0115807D03*
X0153409Y0113807D03*
D227*
X0148459Y0115207D03*
X0137259Y0114907D03*
X0137259Y0114807D03*
X0135159Y0109907D03*
X0135159Y0109807D03*
X0138359Y0108607D03*
X0132759Y0104007D03*
X0163859Y0101207D03*
D228*
X0151759Y0101307D03*
D229*
X0157609Y0101307D03*
X0157709Y0101407D03*
X0157809Y0101807D03*
X0157809Y0101907D03*
X0159409Y0101807D03*
X0159409Y0101707D03*
X0159409Y0101607D03*
X0160709Y0102007D03*
X0160709Y0102107D03*
X0159709Y0105707D03*
X0159809Y0106207D03*
X0158309Y0105807D03*
X0156909Y0106507D03*
X0156909Y0106607D03*
X0162209Y0106107D03*
X0162309Y0106307D03*
X0162309Y0106407D03*
X0161109Y0113107D03*
X0161509Y0114307D03*
X0161409Y0114507D03*
X0161409Y0114607D03*
X0161309Y0114707D03*
X0159109Y0114407D03*
X0158109Y0114307D03*
X0158109Y0114207D03*
X0158109Y0114107D03*
X0158109Y0114007D03*
X0158109Y0112907D03*
X0158109Y0112807D03*
X0158109Y0112707D03*
X0158109Y0112607D03*
X0155509Y0115907D03*
X0158909Y0117707D03*
X0172909Y0115907D03*
X0177209Y0113007D03*
X0177209Y0112907D03*
X0177209Y0112807D03*
X0173909Y0110807D03*
X0173909Y0110707D03*
X0173909Y0110607D03*
D230*
X0167709Y0106907D03*
X0167709Y0106807D03*
X0167709Y0106707D03*
X0167109Y0105407D03*
X0167009Y0105307D03*
X0164309Y0101507D03*
X0164209Y0101407D03*
X0164109Y0101307D03*
D231*
X0151509Y0101407D03*
X0151309Y0101607D03*
D232*
X0151359Y0101507D03*
X0143959Y0122707D03*
D233*
X0160009Y0111007D03*
X0158809Y0107307D03*
X0160409Y0106607D03*
X0160409Y0106507D03*
X0166009Y0114307D03*
X0175209Y0112107D03*
X0134409Y0101607D03*
D234*
X0159259Y0108207D03*
X0164359Y0101607D03*
X0143459Y0123407D03*
D235*
X0160259Y0106707D03*
X0170159Y0110707D03*
X0170259Y0110607D03*
X0134359Y0101707D03*
D236*
X0151209Y0101707D03*
D237*
X0164409Y0101707D03*
X0166909Y0105207D03*
X0138409Y0108707D03*
X0135209Y0110007D03*
X0135209Y0110107D03*
X0135209Y0110207D03*
X0137309Y0115007D03*
X0133009Y0104307D03*
D238*
X0134309Y0101807D03*
X0151209Y0113607D03*
X0149709Y0114607D03*
X0149709Y0114707D03*
X0157709Y0122207D03*
X0143209Y0124007D03*
X0158509Y0107707D03*
X0170309Y0110507D03*
X0174909Y0111807D03*
D239*
X0151159Y0101807D03*
X0144059Y0122607D03*
D240*
X0160909Y0110307D03*
X0165309Y0102407D03*
X0165309Y0102307D03*
X0164909Y0101807D03*
D241*
X0175209Y0109407D03*
X0171909Y0113407D03*
X0172009Y0113507D03*
X0159609Y0111607D03*
X0159409Y0111407D03*
X0133509Y0112707D03*
X0132609Y0109107D03*
X0132509Y0109007D03*
X0129009Y0102107D03*
X0128809Y0101907D03*
D242*
X0134209Y0101907D03*
X0160209Y0110907D03*
X0170509Y0110207D03*
X0170609Y0110007D03*
X0170709Y0109907D03*
D243*
X0151109Y0101907D03*
D244*
X0165059Y0101907D03*
X0165159Y0102107D03*
X0165259Y0102207D03*
X0166559Y0103907D03*
X0164459Y0113407D03*
X0164459Y0113507D03*
X0149259Y0115107D03*
X0143359Y0123607D03*
D245*
X0151659Y0113407D03*
X0157659Y0122107D03*
X0170759Y0109607D03*
X0170859Y0109507D03*
X0170859Y0109407D03*
X0134359Y0111707D03*
X0134159Y0102007D03*
D246*
X0151109Y0102007D03*
X0144109Y0122507D03*
D247*
X0157509Y0118107D03*
X0159209Y0114607D03*
X0158109Y0113907D03*
X0158109Y0113807D03*
X0158109Y0113707D03*
X0158109Y0113607D03*
X0158109Y0113507D03*
X0158109Y0113407D03*
X0158109Y0113307D03*
X0158109Y0113207D03*
X0158109Y0113107D03*
X0161609Y0113907D03*
X0161609Y0114007D03*
X0167409Y0116007D03*
X0170109Y0112107D03*
X0170109Y0112007D03*
X0172109Y0112107D03*
X0174509Y0112707D03*
X0174609Y0112807D03*
X0174809Y0112907D03*
X0176209Y0107907D03*
X0162109Y0105807D03*
X0159709Y0105507D03*
X0156909Y0106207D03*
X0157909Y0102307D03*
X0157909Y0102207D03*
X0159409Y0102107D03*
X0159409Y0102007D03*
X0160709Y0102207D03*
X0160709Y0102307D03*
D248*
X0165109Y0102007D03*
X0138909Y0109007D03*
D249*
X0134809Y0105407D03*
X0134809Y0105307D03*
X0134709Y0105207D03*
X0134609Y0105007D03*
X0134509Y0104907D03*
X0134009Y0102107D03*
X0160409Y0110807D03*
D250*
X0151059Y0102107D03*
D251*
X0134909Y0105507D03*
X0134409Y0104807D03*
X0133909Y0102207D03*
D252*
X0156859Y0106007D03*
X0156859Y0106107D03*
X0159359Y0102207D03*
X0162059Y0105707D03*
X0161259Y0113207D03*
X0161759Y0113607D03*
X0163459Y0115807D03*
X0159859Y0115807D03*
X0159859Y0115707D03*
X0159859Y0115907D03*
X0159859Y0116007D03*
X0157659Y0117407D03*
X0157259Y0117507D03*
X0157859Y0118007D03*
X0155459Y0116007D03*
X0167359Y0115907D03*
X0170259Y0112207D03*
X0173859Y0110907D03*
X0174359Y0112607D03*
X0174959Y0113007D03*
X0175159Y0113107D03*
X0176259Y0113607D03*
D253*
X0132259Y0102407D03*
X0132259Y0102307D03*
D254*
X0150059Y0102507D03*
X0150159Y0102407D03*
X0150259Y0102307D03*
D255*
X0168509Y0107307D03*
X0132309Y0102507D03*
D256*
X0158959Y0102807D03*
X0160059Y0107407D03*
X0165359Y0102507D03*
X0166559Y0104007D03*
D257*
X0168359Y0107207D03*
X0132459Y0103107D03*
X0132459Y0102807D03*
X0132459Y0102607D03*
D258*
X0149809Y0102707D03*
X0149909Y0102607D03*
D259*
X0156209Y0102607D03*
X0159409Y0111907D03*
X0159909Y0116407D03*
X0162609Y0116907D03*
X0155309Y0116107D03*
X0174109Y0112307D03*
X0176209Y0113507D03*
D260*
X0159409Y0102607D03*
X0150109Y0114107D03*
D261*
X0143459Y0123507D03*
X0165359Y0102707D03*
X0165359Y0102607D03*
D262*
X0132409Y0102707D03*
X0132409Y0102907D03*
D263*
X0149709Y0102807D03*
X0143909Y0122807D03*
D264*
X0159859Y0107007D03*
X0165959Y0102807D03*
X0166059Y0102907D03*
X0166359Y0103307D03*
X0166459Y0103407D03*
D265*
X0149659Y0102907D03*
D266*
X0158909Y0102907D03*
X0138709Y0108907D03*
X0133409Y0104407D03*
D267*
X0132509Y0103207D03*
X0132509Y0103007D03*
X0143609Y0123207D03*
D268*
X0153459Y0103007D03*
D269*
X0166109Y0103007D03*
X0166209Y0103107D03*
X0166309Y0103207D03*
X0134009Y0104607D03*
D270*
X0144959Y0112807D03*
X0143859Y0117007D03*
X0144059Y0117307D03*
X0153259Y0103207D03*
D271*
X0138409Y0108507D03*
X0132609Y0103307D03*
X0168209Y0107107D03*
D272*
X0153109Y0103407D03*
X0143009Y0115407D03*
X0143109Y0115607D03*
X0143409Y0116107D03*
D273*
X0135309Y0109407D03*
X0132609Y0103907D03*
X0132609Y0103507D03*
D274*
X0143309Y0123707D03*
X0160709Y0110507D03*
X0159909Y0107107D03*
X0166509Y0103507D03*
D275*
X0172159Y0108707D03*
X0136159Y0105707D03*
X0132559Y0103707D03*
X0132559Y0103607D03*
D276*
X0133759Y0104507D03*
X0166559Y0103607D03*
D277*
X0152909Y0103707D03*
X0144809Y0118007D03*
D278*
X0160009Y0107207D03*
X0166509Y0103707D03*
D279*
X0172059Y0108807D03*
X0171959Y0109107D03*
X0143559Y0123307D03*
X0137459Y0115107D03*
X0137259Y0114707D03*
X0135259Y0109607D03*
X0135259Y0109507D03*
X0132759Y0104107D03*
X0132659Y0103807D03*
D280*
X0149459Y0115007D03*
X0157359Y0121807D03*
X0160759Y0110407D03*
X0166559Y0103807D03*
D281*
X0152759Y0104007D03*
X0145259Y0118307D03*
D282*
X0156409Y0104107D03*
D283*
X0166709Y0105107D03*
X0168009Y0107007D03*
X0172009Y0108907D03*
X0172009Y0109007D03*
X0135209Y0109707D03*
X0132809Y0104207D03*
D284*
X0156409Y0104207D03*
D285*
X0156409Y0104307D03*
D286*
X0156359Y0104407D03*
D287*
X0156309Y0104507D03*
D288*
X0156259Y0104607D03*
D289*
X0134959Y0105607D03*
X0134259Y0104707D03*
X0143259Y0123807D03*
D290*
X0156259Y0104707D03*
D291*
X0156209Y0104807D03*
D292*
X0156209Y0104907D03*
D293*
X0156159Y0105007D03*
D294*
X0170859Y0109207D03*
X0134659Y0105107D03*
X0134459Y0111607D03*
D295*
X0151959Y0105107D03*
D296*
X0151909Y0105207D03*
D297*
X0149909Y0105507D03*
X0149809Y0105607D03*
X0145409Y0112607D03*
D298*
X0138559Y0108807D03*
X0167159Y0105607D03*
X0167159Y0105507D03*
X0167259Y0105707D03*
X0167359Y0105907D03*
X0167459Y0106107D03*
X0167559Y0106307D03*
X0167559Y0106407D03*
X0167659Y0106507D03*
X0167659Y0106607D03*
D299*
X0149309Y0105707D03*
X0146009Y0111607D03*
X0146009Y0111707D03*
X0146009Y0111807D03*
X0145909Y0111907D03*
D300*
X0160909Y0110207D03*
X0167509Y0106207D03*
X0167409Y0106007D03*
X0167309Y0105807D03*
D301*
X0143909Y0105907D03*
X0143209Y0108007D03*
X0143209Y0108107D03*
X0143209Y0108207D03*
X0143409Y0110707D03*
X0143309Y0110807D03*
D302*
X0143259Y0107907D03*
X0143259Y0107807D03*
X0143259Y0107707D03*
X0143259Y0107607D03*
X0143859Y0106007D03*
X0149359Y0121307D03*
D303*
X0154609Y0109207D03*
X0143809Y0106207D03*
X0143809Y0106107D03*
X0143709Y0106307D03*
X0143709Y0106407D03*
X0143609Y0106607D03*
X0143509Y0106907D03*
X0143409Y0107107D03*
X0143409Y0107207D03*
X0143409Y0107307D03*
X0143309Y0107407D03*
X0143309Y0107507D03*
D304*
X0143459Y0107007D03*
X0143559Y0106807D03*
X0143559Y0106707D03*
X0143659Y0106507D03*
X0143259Y0111007D03*
X0149359Y0121407D03*
D305*
X0165359Y0113607D03*
X0170759Y0109807D03*
X0170759Y0109707D03*
X0174859Y0111907D03*
X0160159Y0106807D03*
D306*
X0159759Y0106907D03*
X0160559Y0110607D03*
X0157559Y0121907D03*
D307*
X0168609Y0107407D03*
X0138109Y0115207D03*
D308*
X0134259Y0111807D03*
X0151159Y0113707D03*
X0158759Y0107507D03*
X0170359Y0110407D03*
X0170459Y0110307D03*
X0170559Y0110107D03*
D309*
X0168659Y0107507D03*
X0143759Y0123007D03*
X0137759Y0114607D03*
D310*
X0145559Y0112407D03*
X0164859Y0107607D03*
D311*
X0167309Y0107707D03*
X0144509Y0122107D03*
D312*
X0164809Y0108007D03*
D313*
X0164809Y0108107D03*
D314*
X0168659Y0108207D03*
D315*
X0152759Y0108307D03*
D316*
X0137109Y0108407D03*
X0144309Y0122307D03*
D317*
X0159009Y0108407D03*
D318*
X0160309Y0108507D03*
X0160309Y0108607D03*
D319*
X0155559Y0108707D03*
X0143459Y0110607D03*
X0149359Y0121007D03*
D320*
X0149359Y0121207D03*
X0155259Y0108907D03*
X0155459Y0108807D03*
D321*
X0169709Y0111207D03*
X0174909Y0111507D03*
X0138009Y0109107D03*
X0134009Y0112007D03*
D322*
X0143509Y0110507D03*
X0155109Y0109107D03*
D323*
X0161709Y0117507D03*
X0132709Y0109307D03*
D324*
X0149209Y0119807D03*
X0152909Y0109707D03*
X0153009Y0109607D03*
X0153509Y0109307D03*
D325*
X0151609Y0113507D03*
X0149409Y0114807D03*
X0143209Y0123907D03*
X0170909Y0109307D03*
X0174709Y0112007D03*
D326*
X0153409Y0109407D03*
D327*
X0153259Y0109507D03*
X0149159Y0119507D03*
D328*
X0152759Y0109807D03*
D329*
X0152659Y0109907D03*
X0149159Y0119607D03*
X0149159Y0119707D03*
D330*
X0154059Y0116107D03*
X0153959Y0115907D03*
X0155259Y0115507D03*
X0155459Y0115707D03*
X0154459Y0114407D03*
X0153459Y0114307D03*
X0153359Y0113907D03*
X0152459Y0113807D03*
X0158059Y0112407D03*
X0158959Y0113707D03*
X0158959Y0113807D03*
X0161159Y0115107D03*
X0165159Y0115507D03*
X0165259Y0115707D03*
X0165459Y0116007D03*
X0168059Y0117907D03*
X0167859Y0118207D03*
X0168459Y0117307D03*
X0168459Y0117207D03*
X0168759Y0116607D03*
X0169159Y0114407D03*
X0169159Y0114307D03*
X0169059Y0113707D03*
X0169059Y0113607D03*
X0169059Y0113507D03*
X0171159Y0114007D03*
X0171259Y0114107D03*
X0171259Y0114207D03*
X0171359Y0114307D03*
X0173959Y0110307D03*
X0173959Y0110207D03*
X0174059Y0110107D03*
X0174059Y0110007D03*
X0174059Y0109907D03*
D331*
X0152409Y0110007D03*
X0149209Y0119907D03*
X0149209Y0120007D03*
D332*
X0149259Y0120107D03*
X0152259Y0110107D03*
D333*
X0143509Y0110307D03*
X0143509Y0110407D03*
D334*
X0134109Y0111907D03*
X0161009Y0110707D03*
X0170009Y0110807D03*
D335*
X0143409Y0110907D03*
X0143209Y0111107D03*
D336*
X0149859Y0114507D03*
X0149959Y0114407D03*
X0157759Y0122307D03*
X0169859Y0111007D03*
X0169959Y0110907D03*
X0174959Y0111707D03*
D337*
X0143159Y0111207D03*
D338*
X0143109Y0111307D03*
X0149309Y0121707D03*
D339*
X0143059Y0111407D03*
D340*
X0143059Y0111507D03*
D341*
X0150259Y0113907D03*
X0161559Y0117307D03*
X0168759Y0111907D03*
X0169059Y0111607D03*
D342*
X0145859Y0112007D03*
D343*
X0145709Y0112207D03*
D344*
X0145659Y0112307D03*
D345*
X0155709Y0116307D03*
X0161609Y0117407D03*
X0167509Y0112707D03*
X0143109Y0124207D03*
D346*
X0143259Y0112907D03*
D347*
X0143309Y0113007D03*
D348*
X0151709Y0113107D03*
X0151709Y0113207D03*
X0151709Y0113307D03*
D349*
X0140359Y0113207D03*
D350*
X0140159Y0113507D03*
D351*
X0140059Y0113707D03*
X0145259Y0121807D03*
D352*
X0139959Y0113807D03*
D353*
X0139859Y0113907D03*
D354*
X0139759Y0114007D03*
D355*
X0139659Y0114107D03*
D356*
X0139509Y0114207D03*
D357*
X0139409Y0114307D03*
D358*
X0139159Y0114407D03*
D359*
X0138809Y0114507D03*
X0144209Y0122407D03*
D360*
X0149509Y0114907D03*
D361*
X0144259Y0117507D03*
X0144159Y0117407D03*
X0143759Y0116807D03*
X0143759Y0116707D03*
X0143659Y0116607D03*
X0143559Y0116407D03*
X0143459Y0116307D03*
X0143459Y0116207D03*
X0143159Y0115707D03*
X0143059Y0115507D03*
D362*
X0143509Y0116007D03*
D363*
X0144759Y0117907D03*
X0144959Y0118107D03*
D364*
X0145059Y0118207D03*
D365*
X0145659Y0118507D03*
D366*
X0148859Y0118607D03*
X0148859Y0118707D03*
D367*
X0148909Y0118807D03*
D368*
X0148959Y0118907D03*
X0148959Y0119007D03*
D369*
X0149009Y0119107D03*
D370*
X0149059Y0119207D03*
D371*
X0149109Y0119307D03*
X0149109Y0119407D03*
D372*
X0149309Y0120207D03*
D373*
X0149309Y0120307D03*
X0149309Y0120407D03*
D374*
X0149309Y0120507D03*
D375*
X0149359Y0120607D03*
D376*
X0149309Y0120707D03*
D377*
X0149359Y0120807D03*
D378*
X0149359Y0120907D03*
D379*
X0149409Y0121107D03*
D380*
X0149359Y0121507D03*
D381*
X0149309Y0121607D03*
D382*
X0144809Y0121907D03*
D383*
X0144659Y0122007D03*
D384*
X0157659Y0122007D03*
D385*
X0144409Y0122207D03*
D386*
X0143809Y0122907D03*
D387*
X0143659Y0123107D03*
D388*
X0096040Y0123269D02*
X0091436Y0120200D01*
X0091436Y0123269D02*
X0096040Y0120200D01*
X0096040Y0124804D02*
X0096040Y0127873D01*
X0096040Y0126339D02*
X0091436Y0126339D01*
X0092971Y0124804D01*
X0179944Y0190796D02*
X0181479Y0190796D01*
X0180711Y0190796D02*
X0180711Y0195400D01*
X0179944Y0195400D02*
X0181479Y0195400D01*
X0183013Y0194633D02*
X0183013Y0191563D01*
X0183781Y0190796D01*
X0185315Y0190796D01*
X0186083Y0191563D01*
X0187617Y0191563D02*
X0188385Y0190796D01*
X0189919Y0190796D01*
X0190687Y0191563D01*
X0190687Y0192331D01*
X0189919Y0193098D01*
X0189152Y0193098D01*
X0189919Y0193098D02*
X0190687Y0193865D01*
X0190687Y0194633D01*
X0189919Y0195400D01*
X0188385Y0195400D01*
X0187617Y0194633D01*
X0186083Y0194633D02*
X0185315Y0195400D01*
X0183781Y0195400D01*
X0183013Y0194633D01*
X0173936Y0242700D02*
X0173936Y0245769D01*
X0173936Y0244235D02*
X0178540Y0244235D01*
X0178540Y0247304D02*
X0178540Y0250373D01*
X0178540Y0248839D02*
X0173936Y0248839D01*
X0175471Y0247304D01*
X0156040Y0247502D02*
X0156040Y0245200D01*
X0151436Y0245200D01*
X0151436Y0247502D01*
X0152204Y0248269D01*
X0155273Y0248269D01*
X0156040Y0247502D01*
X0156040Y0249804D02*
X0156040Y0252873D01*
X0156040Y0251339D02*
X0151436Y0251339D01*
X0152971Y0249804D01*
X0273936Y0187675D02*
X0273936Y0186141D01*
X0274704Y0185373D01*
X0274704Y0183839D02*
X0273936Y0183071D01*
X0273936Y0181537D01*
X0274704Y0180769D01*
X0277773Y0180769D01*
X0278540Y0181537D01*
X0278540Y0183071D01*
X0277773Y0183839D01*
X0278540Y0185373D02*
X0275471Y0188442D01*
X0274704Y0188442D01*
X0273936Y0187675D01*
X0278540Y0188442D02*
X0278540Y0185373D01*
X0278540Y0179235D02*
X0278540Y0177700D01*
X0278540Y0178467D02*
X0273936Y0178467D01*
X0273936Y0177700D02*
X0273936Y0179235D01*
X0286436Y0179766D02*
X0291040Y0179766D01*
X0291040Y0181300D02*
X0291040Y0178231D01*
X0287971Y0178231D02*
X0286436Y0179766D01*
X0291440Y0129804D02*
X0292975Y0129804D01*
X0292208Y0129804D02*
X0292208Y0125200D01*
X0292975Y0125200D02*
X0291440Y0125200D01*
X0294510Y0125967D02*
X0295277Y0125200D01*
X0296811Y0125200D01*
X0297579Y0125967D01*
X0299113Y0125200D02*
X0302183Y0125200D01*
X0300648Y0125200D02*
X0300648Y0129804D01*
X0299113Y0128269D01*
X0297579Y0129037D02*
X0296811Y0129804D01*
X0295277Y0129804D01*
X0294510Y0129037D01*
X0294510Y0125967D01*
D389*
X0163602Y0250591D03*
X0158878Y0250591D03*
D390*
X0161240Y0250591D03*
D391*
X0290807Y0122854D02*
X0290807Y0092146D01*
X0361673Y0092146D01*
X0361673Y0122854D01*
X0290807Y0122854D01*
X0292342Y0119311D02*
X0292344Y0119390D01*
X0292350Y0119469D01*
X0292360Y0119548D01*
X0292374Y0119626D01*
X0292391Y0119703D01*
X0292413Y0119779D01*
X0292438Y0119854D01*
X0292468Y0119927D01*
X0292500Y0119999D01*
X0292537Y0120070D01*
X0292577Y0120138D01*
X0292620Y0120204D01*
X0292666Y0120268D01*
X0292716Y0120330D01*
X0292769Y0120389D01*
X0292824Y0120445D01*
X0292883Y0120499D01*
X0292944Y0120549D01*
X0293007Y0120597D01*
X0293073Y0120641D01*
X0293141Y0120682D01*
X0293211Y0120719D01*
X0293282Y0120753D01*
X0293356Y0120783D01*
X0293430Y0120809D01*
X0293506Y0120831D01*
X0293583Y0120850D01*
X0293661Y0120865D01*
X0293739Y0120876D01*
X0293818Y0120883D01*
X0293897Y0120886D01*
X0293976Y0120885D01*
X0294055Y0120880D01*
X0294134Y0120871D01*
X0294212Y0120858D01*
X0294289Y0120841D01*
X0294366Y0120821D01*
X0294441Y0120796D01*
X0294515Y0120768D01*
X0294588Y0120736D01*
X0294658Y0120701D01*
X0294727Y0120662D01*
X0294794Y0120619D01*
X0294859Y0120573D01*
X0294921Y0120525D01*
X0294981Y0120473D01*
X0295038Y0120418D01*
X0295092Y0120360D01*
X0295143Y0120300D01*
X0295191Y0120237D01*
X0295236Y0120172D01*
X0295278Y0120104D01*
X0295316Y0120035D01*
X0295350Y0119964D01*
X0295381Y0119891D01*
X0295409Y0119816D01*
X0295432Y0119741D01*
X0295452Y0119664D01*
X0295468Y0119587D01*
X0295480Y0119508D01*
X0295488Y0119430D01*
X0295492Y0119351D01*
X0295492Y0119271D01*
X0295488Y0119192D01*
X0295480Y0119114D01*
X0295468Y0119035D01*
X0295452Y0118958D01*
X0295432Y0118881D01*
X0295409Y0118806D01*
X0295381Y0118731D01*
X0295350Y0118658D01*
X0295316Y0118587D01*
X0295278Y0118518D01*
X0295236Y0118450D01*
X0295191Y0118385D01*
X0295143Y0118322D01*
X0295092Y0118262D01*
X0295038Y0118204D01*
X0294981Y0118149D01*
X0294921Y0118097D01*
X0294859Y0118049D01*
X0294794Y0118003D01*
X0294727Y0117960D01*
X0294658Y0117921D01*
X0294588Y0117886D01*
X0294515Y0117854D01*
X0294441Y0117826D01*
X0294366Y0117801D01*
X0294289Y0117781D01*
X0294212Y0117764D01*
X0294134Y0117751D01*
X0294055Y0117742D01*
X0293976Y0117737D01*
X0293897Y0117736D01*
X0293818Y0117739D01*
X0293739Y0117746D01*
X0293661Y0117757D01*
X0293583Y0117772D01*
X0293506Y0117791D01*
X0293430Y0117813D01*
X0293356Y0117839D01*
X0293282Y0117869D01*
X0293211Y0117903D01*
X0293141Y0117940D01*
X0293073Y0117981D01*
X0293007Y0118025D01*
X0292944Y0118073D01*
X0292883Y0118123D01*
X0292824Y0118177D01*
X0292769Y0118233D01*
X0292716Y0118292D01*
X0292666Y0118354D01*
X0292620Y0118418D01*
X0292577Y0118484D01*
X0292537Y0118552D01*
X0292500Y0118623D01*
X0292468Y0118695D01*
X0292438Y0118768D01*
X0292413Y0118843D01*
X0292391Y0118919D01*
X0292374Y0118996D01*
X0292360Y0119074D01*
X0292350Y0119153D01*
X0292344Y0119232D01*
X0292342Y0119311D01*
D392*
X0238399Y0127841D02*
X0238399Y0182159D01*
X0184081Y0182159D01*
X0184081Y0127841D01*
X0238399Y0127841D01*
X0184081Y0180197D02*
X0186043Y0182159D01*
X0124626Y0133449D02*
X0124626Y0126551D01*
X0116626Y0120551D02*
X0105854Y0120551D01*
X0097854Y0126551D02*
X0097854Y0133449D01*
X0105854Y0139449D02*
X0116626Y0139449D01*
X0079140Y0091500D02*
X0053340Y0091500D01*
X0053340Y0078500D01*
X0079140Y0078500D01*
X0079140Y0091500D01*
X0096725Y0194883D02*
X0096725Y0240159D01*
X0096725Y0247639D02*
X0096725Y0251576D01*
X0089934Y0257875D02*
X0085997Y0257875D01*
X0085997Y0255316D01*
X0085441Y0254941D01*
X0084877Y0254580D01*
X0084304Y0254232D01*
X0083723Y0253899D01*
X0083134Y0253580D01*
X0082537Y0253275D01*
X0081933Y0252984D01*
X0081322Y0252708D01*
X0080705Y0252448D01*
X0080081Y0252202D01*
X0079452Y0251971D01*
X0078818Y0251756D01*
X0078178Y0251556D01*
X0077534Y0251372D01*
X0076885Y0251203D01*
X0076233Y0251050D01*
X0075577Y0250913D01*
X0074918Y0250792D01*
X0074256Y0250687D01*
X0073592Y0250598D01*
X0072925Y0250525D01*
X0072258Y0250468D01*
X0071589Y0250427D01*
X0070919Y0250403D01*
X0070249Y0250395D01*
X0069579Y0250403D01*
X0068909Y0250427D01*
X0068240Y0250468D01*
X0067573Y0250525D01*
X0066906Y0250598D01*
X0066242Y0250687D01*
X0065580Y0250792D01*
X0064921Y0250913D01*
X0064265Y0251050D01*
X0063613Y0251203D01*
X0062964Y0251372D01*
X0062320Y0251556D01*
X0061680Y0251756D01*
X0061046Y0251971D01*
X0060417Y0252202D01*
X0059793Y0252448D01*
X0059176Y0252708D01*
X0058565Y0252984D01*
X0057961Y0253275D01*
X0057364Y0253580D01*
X0056775Y0253899D01*
X0056194Y0254232D01*
X0055621Y0254580D01*
X0055057Y0254941D01*
X0054501Y0255316D01*
X0054501Y0261812D01*
X0046627Y0261812D01*
X0039442Y0255119D02*
X0039442Y0194883D01*
X0054501Y0194883D01*
X0246240Y0240000D02*
X0246240Y0245000D01*
X0246240Y0240000D02*
X0286240Y0240000D01*
X0286240Y0245000D01*
X0286240Y0255000D02*
X0286240Y0260000D01*
X0246240Y0260000D01*
X0246240Y0255000D01*
X0306240Y0255000D02*
X0306240Y0260000D01*
X0346240Y0260000D01*
X0346240Y0255000D01*
X0346240Y0245000D02*
X0346240Y0240000D01*
X0306240Y0240000D01*
X0306240Y0245000D01*
D393*
X0089827Y0230262D02*
X0088826Y0230262D01*
X0089326Y0230262D02*
X0089326Y0231764D01*
X0088826Y0231263D01*
X0088353Y0231764D02*
X0088353Y0230512D01*
X0088103Y0230262D01*
X0087603Y0230262D01*
X0087352Y0230512D01*
X0087352Y0231764D01*
X0066246Y0104301D02*
X0065496Y0103551D01*
X0066497Y0103551D01*
X0066246Y0104301D02*
X0066246Y0102800D01*
X0065023Y0103050D02*
X0064773Y0102800D01*
X0064273Y0102800D01*
X0064022Y0103050D01*
X0064022Y0104051D01*
X0064273Y0104301D01*
X0064773Y0104301D01*
X0065023Y0104051D01*
X0063541Y0104301D02*
X0063040Y0104301D01*
X0063290Y0104301D02*
X0063290Y0102800D01*
X0063040Y0102800D02*
X0063541Y0102800D01*
D394*
X0043740Y0050000D02*
X0093740Y0050000D01*
X0093740Y0008750D01*
X0348740Y0008750D01*
X0348740Y0050000D01*
X0399803Y0050000D01*
X0399803Y0263157D01*
X0002165Y0263157D01*
X0002165Y0100000D01*
X0043740Y0100000D01*
X0043740Y0050000D01*
X0102453Y0096398D02*
X0102455Y0096594D01*
X0102463Y0096791D01*
X0102475Y0096987D01*
X0102492Y0097182D01*
X0102513Y0097377D01*
X0102540Y0097572D01*
X0102571Y0097766D01*
X0102607Y0097959D01*
X0102647Y0098151D01*
X0102693Y0098342D01*
X0102743Y0098532D01*
X0102797Y0098720D01*
X0102857Y0098907D01*
X0102921Y0099093D01*
X0102989Y0099277D01*
X0103062Y0099459D01*
X0103139Y0099640D01*
X0103221Y0099818D01*
X0103307Y0099995D01*
X0103398Y0100169D01*
X0103492Y0100341D01*
X0103591Y0100511D01*
X0103694Y0100678D01*
X0103801Y0100843D01*
X0103912Y0101004D01*
X0104027Y0101164D01*
X0104146Y0101320D01*
X0104269Y0101473D01*
X0104395Y0101623D01*
X0104525Y0101770D01*
X0104659Y0101914D01*
X0104796Y0102055D01*
X0104937Y0102192D01*
X0105081Y0102326D01*
X0105228Y0102456D01*
X0105378Y0102582D01*
X0105531Y0102705D01*
X0105687Y0102824D01*
X0105847Y0102939D01*
X0106008Y0103050D01*
X0106173Y0103157D01*
X0106340Y0103260D01*
X0106510Y0103359D01*
X0106682Y0103453D01*
X0106856Y0103544D01*
X0107033Y0103630D01*
X0107211Y0103712D01*
X0107392Y0103789D01*
X0107574Y0103862D01*
X0107758Y0103930D01*
X0107944Y0103994D01*
X0108131Y0104054D01*
X0108319Y0104108D01*
X0108509Y0104158D01*
X0108700Y0104204D01*
X0108892Y0104244D01*
X0109085Y0104280D01*
X0109279Y0104311D01*
X0109474Y0104338D01*
X0109669Y0104359D01*
X0109864Y0104376D01*
X0110060Y0104388D01*
X0110257Y0104396D01*
X0110453Y0104398D01*
X0110649Y0104396D01*
X0110846Y0104388D01*
X0111042Y0104376D01*
X0111237Y0104359D01*
X0111432Y0104338D01*
X0111627Y0104311D01*
X0111821Y0104280D01*
X0112014Y0104244D01*
X0112206Y0104204D01*
X0112397Y0104158D01*
X0112587Y0104108D01*
X0112775Y0104054D01*
X0112962Y0103994D01*
X0113148Y0103930D01*
X0113332Y0103862D01*
X0113514Y0103789D01*
X0113695Y0103712D01*
X0113873Y0103630D01*
X0114050Y0103544D01*
X0114224Y0103453D01*
X0114396Y0103359D01*
X0114566Y0103260D01*
X0114733Y0103157D01*
X0114898Y0103050D01*
X0115059Y0102939D01*
X0115219Y0102824D01*
X0115375Y0102705D01*
X0115528Y0102582D01*
X0115678Y0102456D01*
X0115825Y0102326D01*
X0115969Y0102192D01*
X0116110Y0102055D01*
X0116247Y0101914D01*
X0116381Y0101770D01*
X0116511Y0101623D01*
X0116637Y0101473D01*
X0116760Y0101320D01*
X0116879Y0101164D01*
X0116994Y0101004D01*
X0117105Y0100843D01*
X0117212Y0100678D01*
X0117315Y0100511D01*
X0117414Y0100341D01*
X0117508Y0100169D01*
X0117599Y0099995D01*
X0117685Y0099818D01*
X0117767Y0099640D01*
X0117844Y0099459D01*
X0117917Y0099277D01*
X0117985Y0099093D01*
X0118049Y0098907D01*
X0118109Y0098720D01*
X0118163Y0098532D01*
X0118213Y0098342D01*
X0118259Y0098151D01*
X0118299Y0097959D01*
X0118335Y0097766D01*
X0118366Y0097572D01*
X0118393Y0097377D01*
X0118414Y0097182D01*
X0118431Y0096987D01*
X0118443Y0096791D01*
X0118451Y0096594D01*
X0118453Y0096398D01*
X0118451Y0096202D01*
X0118443Y0096005D01*
X0118431Y0095809D01*
X0118414Y0095614D01*
X0118393Y0095419D01*
X0118366Y0095224D01*
X0118335Y0095030D01*
X0118299Y0094837D01*
X0118259Y0094645D01*
X0118213Y0094454D01*
X0118163Y0094264D01*
X0118109Y0094076D01*
X0118049Y0093889D01*
X0117985Y0093703D01*
X0117917Y0093519D01*
X0117844Y0093337D01*
X0117767Y0093156D01*
X0117685Y0092978D01*
X0117599Y0092801D01*
X0117508Y0092627D01*
X0117414Y0092455D01*
X0117315Y0092285D01*
X0117212Y0092118D01*
X0117105Y0091953D01*
X0116994Y0091792D01*
X0116879Y0091632D01*
X0116760Y0091476D01*
X0116637Y0091323D01*
X0116511Y0091173D01*
X0116381Y0091026D01*
X0116247Y0090882D01*
X0116110Y0090741D01*
X0115969Y0090604D01*
X0115825Y0090470D01*
X0115678Y0090340D01*
X0115528Y0090214D01*
X0115375Y0090091D01*
X0115219Y0089972D01*
X0115059Y0089857D01*
X0114898Y0089746D01*
X0114733Y0089639D01*
X0114566Y0089536D01*
X0114396Y0089437D01*
X0114224Y0089343D01*
X0114050Y0089252D01*
X0113873Y0089166D01*
X0113695Y0089084D01*
X0113514Y0089007D01*
X0113332Y0088934D01*
X0113148Y0088866D01*
X0112962Y0088802D01*
X0112775Y0088742D01*
X0112587Y0088688D01*
X0112397Y0088638D01*
X0112206Y0088592D01*
X0112014Y0088552D01*
X0111821Y0088516D01*
X0111627Y0088485D01*
X0111432Y0088458D01*
X0111237Y0088437D01*
X0111042Y0088420D01*
X0110846Y0088408D01*
X0110649Y0088400D01*
X0110453Y0088398D01*
X0110257Y0088400D01*
X0110060Y0088408D01*
X0109864Y0088420D01*
X0109669Y0088437D01*
X0109474Y0088458D01*
X0109279Y0088485D01*
X0109085Y0088516D01*
X0108892Y0088552D01*
X0108700Y0088592D01*
X0108509Y0088638D01*
X0108319Y0088688D01*
X0108131Y0088742D01*
X0107944Y0088802D01*
X0107758Y0088866D01*
X0107574Y0088934D01*
X0107392Y0089007D01*
X0107211Y0089084D01*
X0107033Y0089166D01*
X0106856Y0089252D01*
X0106682Y0089343D01*
X0106510Y0089437D01*
X0106340Y0089536D01*
X0106173Y0089639D01*
X0106008Y0089746D01*
X0105847Y0089857D01*
X0105687Y0089972D01*
X0105531Y0090091D01*
X0105378Y0090214D01*
X0105228Y0090340D01*
X0105081Y0090470D01*
X0104937Y0090604D01*
X0104796Y0090741D01*
X0104659Y0090882D01*
X0104525Y0091026D01*
X0104395Y0091173D01*
X0104269Y0091323D01*
X0104146Y0091476D01*
X0104027Y0091632D01*
X0103912Y0091792D01*
X0103801Y0091953D01*
X0103694Y0092118D01*
X0103591Y0092285D01*
X0103492Y0092455D01*
X0103398Y0092627D01*
X0103307Y0092801D01*
X0103221Y0092978D01*
X0103139Y0093156D01*
X0103062Y0093337D01*
X0102989Y0093519D01*
X0102921Y0093703D01*
X0102857Y0093889D01*
X0102797Y0094076D01*
X0102743Y0094264D01*
X0102693Y0094454D01*
X0102647Y0094645D01*
X0102607Y0094837D01*
X0102571Y0095030D01*
X0102540Y0095224D01*
X0102513Y0095419D01*
X0102492Y0095614D01*
X0102475Y0095809D01*
X0102463Y0096005D01*
X0102455Y0096202D01*
X0102453Y0096398D01*
X0019819Y0138886D02*
X0019823Y0139205D01*
X0019835Y0139524D01*
X0019854Y0139842D01*
X0019882Y0140160D01*
X0019917Y0140477D01*
X0019960Y0140793D01*
X0020010Y0141109D01*
X0020069Y0141422D01*
X0020135Y0141734D01*
X0020209Y0142045D01*
X0020290Y0142353D01*
X0020379Y0142660D01*
X0020475Y0142964D01*
X0020579Y0143266D01*
X0020690Y0143565D01*
X0020809Y0143861D01*
X0020934Y0144154D01*
X0021067Y0144444D01*
X0021207Y0144731D01*
X0021354Y0145014D01*
X0021508Y0145294D01*
X0021669Y0145569D01*
X0021836Y0145841D01*
X0022010Y0146108D01*
X0022190Y0146372D01*
X0022377Y0146630D01*
X0022570Y0146884D01*
X0022770Y0147133D01*
X0022975Y0147377D01*
X0023187Y0147616D01*
X0023404Y0147850D01*
X0023627Y0148078D01*
X0023855Y0148301D01*
X0024089Y0148518D01*
X0024328Y0148730D01*
X0024572Y0148935D01*
X0024821Y0149135D01*
X0025075Y0149328D01*
X0025333Y0149515D01*
X0025597Y0149695D01*
X0025864Y0149869D01*
X0026136Y0150036D01*
X0026411Y0150197D01*
X0026691Y0150351D01*
X0026974Y0150498D01*
X0027261Y0150638D01*
X0027551Y0150771D01*
X0027844Y0150896D01*
X0028140Y0151015D01*
X0028439Y0151126D01*
X0028741Y0151230D01*
X0029045Y0151326D01*
X0029352Y0151415D01*
X0029660Y0151496D01*
X0029971Y0151570D01*
X0030283Y0151636D01*
X0030596Y0151695D01*
X0030912Y0151745D01*
X0031228Y0151788D01*
X0031545Y0151823D01*
X0031863Y0151851D01*
X0032181Y0151870D01*
X0032500Y0151882D01*
X0032819Y0151886D01*
X0033138Y0151882D01*
X0033457Y0151870D01*
X0033775Y0151851D01*
X0034093Y0151823D01*
X0034410Y0151788D01*
X0034726Y0151745D01*
X0035042Y0151695D01*
X0035355Y0151636D01*
X0035667Y0151570D01*
X0035978Y0151496D01*
X0036286Y0151415D01*
X0036593Y0151326D01*
X0036897Y0151230D01*
X0037199Y0151126D01*
X0037498Y0151015D01*
X0037794Y0150896D01*
X0038087Y0150771D01*
X0038377Y0150638D01*
X0038664Y0150498D01*
X0038947Y0150351D01*
X0039227Y0150197D01*
X0039502Y0150036D01*
X0039774Y0149869D01*
X0040041Y0149695D01*
X0040305Y0149515D01*
X0040563Y0149328D01*
X0040817Y0149135D01*
X0041066Y0148935D01*
X0041310Y0148730D01*
X0041549Y0148518D01*
X0041783Y0148301D01*
X0042011Y0148078D01*
X0042234Y0147850D01*
X0042451Y0147616D01*
X0042663Y0147377D01*
X0042868Y0147133D01*
X0043068Y0146884D01*
X0043261Y0146630D01*
X0043448Y0146372D01*
X0043628Y0146108D01*
X0043802Y0145841D01*
X0043969Y0145569D01*
X0044130Y0145294D01*
X0044284Y0145014D01*
X0044431Y0144731D01*
X0044571Y0144444D01*
X0044704Y0144154D01*
X0044829Y0143861D01*
X0044948Y0143565D01*
X0045059Y0143266D01*
X0045163Y0142964D01*
X0045259Y0142660D01*
X0045348Y0142353D01*
X0045429Y0142045D01*
X0045503Y0141734D01*
X0045569Y0141422D01*
X0045628Y0141109D01*
X0045678Y0140793D01*
X0045721Y0140477D01*
X0045756Y0140160D01*
X0045784Y0139842D01*
X0045803Y0139524D01*
X0045815Y0139205D01*
X0045819Y0138886D01*
X0045815Y0138567D01*
X0045803Y0138248D01*
X0045784Y0137930D01*
X0045756Y0137612D01*
X0045721Y0137295D01*
X0045678Y0136979D01*
X0045628Y0136663D01*
X0045569Y0136350D01*
X0045503Y0136038D01*
X0045429Y0135727D01*
X0045348Y0135419D01*
X0045259Y0135112D01*
X0045163Y0134808D01*
X0045059Y0134506D01*
X0044948Y0134207D01*
X0044829Y0133911D01*
X0044704Y0133618D01*
X0044571Y0133328D01*
X0044431Y0133041D01*
X0044284Y0132758D01*
X0044130Y0132478D01*
X0043969Y0132203D01*
X0043802Y0131931D01*
X0043628Y0131664D01*
X0043448Y0131400D01*
X0043261Y0131142D01*
X0043068Y0130888D01*
X0042868Y0130639D01*
X0042663Y0130395D01*
X0042451Y0130156D01*
X0042234Y0129922D01*
X0042011Y0129694D01*
X0041783Y0129471D01*
X0041549Y0129254D01*
X0041310Y0129042D01*
X0041066Y0128837D01*
X0040817Y0128637D01*
X0040563Y0128444D01*
X0040305Y0128257D01*
X0040041Y0128077D01*
X0039774Y0127903D01*
X0039502Y0127736D01*
X0039227Y0127575D01*
X0038947Y0127421D01*
X0038664Y0127274D01*
X0038377Y0127134D01*
X0038087Y0127001D01*
X0037794Y0126876D01*
X0037498Y0126757D01*
X0037199Y0126646D01*
X0036897Y0126542D01*
X0036593Y0126446D01*
X0036286Y0126357D01*
X0035978Y0126276D01*
X0035667Y0126202D01*
X0035355Y0126136D01*
X0035042Y0126077D01*
X0034726Y0126027D01*
X0034410Y0125984D01*
X0034093Y0125949D01*
X0033775Y0125921D01*
X0033457Y0125902D01*
X0033138Y0125890D01*
X0032819Y0125886D01*
X0032500Y0125890D01*
X0032181Y0125902D01*
X0031863Y0125921D01*
X0031545Y0125949D01*
X0031228Y0125984D01*
X0030912Y0126027D01*
X0030596Y0126077D01*
X0030283Y0126136D01*
X0029971Y0126202D01*
X0029660Y0126276D01*
X0029352Y0126357D01*
X0029045Y0126446D01*
X0028741Y0126542D01*
X0028439Y0126646D01*
X0028140Y0126757D01*
X0027844Y0126876D01*
X0027551Y0127001D01*
X0027261Y0127134D01*
X0026974Y0127274D01*
X0026691Y0127421D01*
X0026411Y0127575D01*
X0026136Y0127736D01*
X0025864Y0127903D01*
X0025597Y0128077D01*
X0025333Y0128257D01*
X0025075Y0128444D01*
X0024821Y0128637D01*
X0024572Y0128837D01*
X0024328Y0129042D01*
X0024089Y0129254D01*
X0023855Y0129471D01*
X0023627Y0129694D01*
X0023404Y0129922D01*
X0023187Y0130156D01*
X0022975Y0130395D01*
X0022770Y0130639D01*
X0022570Y0130888D01*
X0022377Y0131142D01*
X0022190Y0131400D01*
X0022010Y0131664D01*
X0021836Y0131931D01*
X0021669Y0132203D01*
X0021508Y0132478D01*
X0021354Y0132758D01*
X0021207Y0133041D01*
X0021067Y0133328D01*
X0020934Y0133618D01*
X0020809Y0133911D01*
X0020690Y0134207D01*
X0020579Y0134506D01*
X0020475Y0134808D01*
X0020379Y0135112D01*
X0020290Y0135419D01*
X0020209Y0135727D01*
X0020135Y0136038D01*
X0020069Y0136350D01*
X0020010Y0136663D01*
X0019960Y0136979D01*
X0019917Y0137295D01*
X0019882Y0137612D01*
X0019854Y0137930D01*
X0019835Y0138248D01*
X0019823Y0138567D01*
X0019819Y0138886D01*
X0323197Y0077500D02*
X0323199Y0077696D01*
X0323207Y0077893D01*
X0323219Y0078089D01*
X0323236Y0078284D01*
X0323257Y0078479D01*
X0323284Y0078674D01*
X0323315Y0078868D01*
X0323351Y0079061D01*
X0323391Y0079253D01*
X0323437Y0079444D01*
X0323487Y0079634D01*
X0323541Y0079822D01*
X0323601Y0080009D01*
X0323665Y0080195D01*
X0323733Y0080379D01*
X0323806Y0080561D01*
X0323883Y0080742D01*
X0323965Y0080920D01*
X0324051Y0081097D01*
X0324142Y0081271D01*
X0324236Y0081443D01*
X0324335Y0081613D01*
X0324438Y0081780D01*
X0324545Y0081945D01*
X0324656Y0082106D01*
X0324771Y0082266D01*
X0324890Y0082422D01*
X0325013Y0082575D01*
X0325139Y0082725D01*
X0325269Y0082872D01*
X0325403Y0083016D01*
X0325540Y0083157D01*
X0325681Y0083294D01*
X0325825Y0083428D01*
X0325972Y0083558D01*
X0326122Y0083684D01*
X0326275Y0083807D01*
X0326431Y0083926D01*
X0326591Y0084041D01*
X0326752Y0084152D01*
X0326917Y0084259D01*
X0327084Y0084362D01*
X0327254Y0084461D01*
X0327426Y0084555D01*
X0327600Y0084646D01*
X0327777Y0084732D01*
X0327955Y0084814D01*
X0328136Y0084891D01*
X0328318Y0084964D01*
X0328502Y0085032D01*
X0328688Y0085096D01*
X0328875Y0085156D01*
X0329063Y0085210D01*
X0329253Y0085260D01*
X0329444Y0085306D01*
X0329636Y0085346D01*
X0329829Y0085382D01*
X0330023Y0085413D01*
X0330218Y0085440D01*
X0330413Y0085461D01*
X0330608Y0085478D01*
X0330804Y0085490D01*
X0331001Y0085498D01*
X0331197Y0085500D01*
X0331393Y0085498D01*
X0331590Y0085490D01*
X0331786Y0085478D01*
X0331981Y0085461D01*
X0332176Y0085440D01*
X0332371Y0085413D01*
X0332565Y0085382D01*
X0332758Y0085346D01*
X0332950Y0085306D01*
X0333141Y0085260D01*
X0333331Y0085210D01*
X0333519Y0085156D01*
X0333706Y0085096D01*
X0333892Y0085032D01*
X0334076Y0084964D01*
X0334258Y0084891D01*
X0334439Y0084814D01*
X0334617Y0084732D01*
X0334794Y0084646D01*
X0334968Y0084555D01*
X0335140Y0084461D01*
X0335310Y0084362D01*
X0335477Y0084259D01*
X0335642Y0084152D01*
X0335803Y0084041D01*
X0335963Y0083926D01*
X0336119Y0083807D01*
X0336272Y0083684D01*
X0336422Y0083558D01*
X0336569Y0083428D01*
X0336713Y0083294D01*
X0336854Y0083157D01*
X0336991Y0083016D01*
X0337125Y0082872D01*
X0337255Y0082725D01*
X0337381Y0082575D01*
X0337504Y0082422D01*
X0337623Y0082266D01*
X0337738Y0082106D01*
X0337849Y0081945D01*
X0337956Y0081780D01*
X0338059Y0081613D01*
X0338158Y0081443D01*
X0338252Y0081271D01*
X0338343Y0081097D01*
X0338429Y0080920D01*
X0338511Y0080742D01*
X0338588Y0080561D01*
X0338661Y0080379D01*
X0338729Y0080195D01*
X0338793Y0080009D01*
X0338853Y0079822D01*
X0338907Y0079634D01*
X0338957Y0079444D01*
X0339003Y0079253D01*
X0339043Y0079061D01*
X0339079Y0078868D01*
X0339110Y0078674D01*
X0339137Y0078479D01*
X0339158Y0078284D01*
X0339175Y0078089D01*
X0339187Y0077893D01*
X0339195Y0077696D01*
X0339197Y0077500D01*
X0339195Y0077304D01*
X0339187Y0077107D01*
X0339175Y0076911D01*
X0339158Y0076716D01*
X0339137Y0076521D01*
X0339110Y0076326D01*
X0339079Y0076132D01*
X0339043Y0075939D01*
X0339003Y0075747D01*
X0338957Y0075556D01*
X0338907Y0075366D01*
X0338853Y0075178D01*
X0338793Y0074991D01*
X0338729Y0074805D01*
X0338661Y0074621D01*
X0338588Y0074439D01*
X0338511Y0074258D01*
X0338429Y0074080D01*
X0338343Y0073903D01*
X0338252Y0073729D01*
X0338158Y0073557D01*
X0338059Y0073387D01*
X0337956Y0073220D01*
X0337849Y0073055D01*
X0337738Y0072894D01*
X0337623Y0072734D01*
X0337504Y0072578D01*
X0337381Y0072425D01*
X0337255Y0072275D01*
X0337125Y0072128D01*
X0336991Y0071984D01*
X0336854Y0071843D01*
X0336713Y0071706D01*
X0336569Y0071572D01*
X0336422Y0071442D01*
X0336272Y0071316D01*
X0336119Y0071193D01*
X0335963Y0071074D01*
X0335803Y0070959D01*
X0335642Y0070848D01*
X0335477Y0070741D01*
X0335310Y0070638D01*
X0335140Y0070539D01*
X0334968Y0070445D01*
X0334794Y0070354D01*
X0334617Y0070268D01*
X0334439Y0070186D01*
X0334258Y0070109D01*
X0334076Y0070036D01*
X0333892Y0069968D01*
X0333706Y0069904D01*
X0333519Y0069844D01*
X0333331Y0069790D01*
X0333141Y0069740D01*
X0332950Y0069694D01*
X0332758Y0069654D01*
X0332565Y0069618D01*
X0332371Y0069587D01*
X0332176Y0069560D01*
X0331981Y0069539D01*
X0331786Y0069522D01*
X0331590Y0069510D01*
X0331393Y0069502D01*
X0331197Y0069500D01*
X0331001Y0069502D01*
X0330804Y0069510D01*
X0330608Y0069522D01*
X0330413Y0069539D01*
X0330218Y0069560D01*
X0330023Y0069587D01*
X0329829Y0069618D01*
X0329636Y0069654D01*
X0329444Y0069694D01*
X0329253Y0069740D01*
X0329063Y0069790D01*
X0328875Y0069844D01*
X0328688Y0069904D01*
X0328502Y0069968D01*
X0328318Y0070036D01*
X0328136Y0070109D01*
X0327955Y0070186D01*
X0327777Y0070268D01*
X0327600Y0070354D01*
X0327426Y0070445D01*
X0327254Y0070539D01*
X0327084Y0070638D01*
X0326917Y0070741D01*
X0326752Y0070848D01*
X0326591Y0070959D01*
X0326431Y0071074D01*
X0326275Y0071193D01*
X0326122Y0071316D01*
X0325972Y0071442D01*
X0325825Y0071572D01*
X0325681Y0071706D01*
X0325540Y0071843D01*
X0325403Y0071984D01*
X0325269Y0072128D01*
X0325139Y0072275D01*
X0325013Y0072425D01*
X0324890Y0072578D01*
X0324771Y0072734D01*
X0324656Y0072894D01*
X0324545Y0073055D01*
X0324438Y0073220D01*
X0324335Y0073387D01*
X0324236Y0073557D01*
X0324142Y0073729D01*
X0324051Y0073903D01*
X0323965Y0074080D01*
X0323883Y0074258D01*
X0323806Y0074439D01*
X0323733Y0074621D01*
X0323665Y0074805D01*
X0323601Y0074991D01*
X0323541Y0075178D01*
X0323487Y0075366D01*
X0323437Y0075556D01*
X0323391Y0075747D01*
X0323351Y0075939D01*
X0323315Y0076132D01*
X0323284Y0076326D01*
X0323257Y0076521D01*
X0323236Y0076716D01*
X0323219Y0076911D01*
X0323207Y0077107D01*
X0323199Y0077304D01*
X0323197Y0077500D01*
X0356854Y0139949D02*
X0356858Y0140268D01*
X0356870Y0140587D01*
X0356889Y0140905D01*
X0356917Y0141223D01*
X0356952Y0141540D01*
X0356995Y0141856D01*
X0357045Y0142172D01*
X0357104Y0142485D01*
X0357170Y0142797D01*
X0357244Y0143108D01*
X0357325Y0143416D01*
X0357414Y0143723D01*
X0357510Y0144027D01*
X0357614Y0144329D01*
X0357725Y0144628D01*
X0357844Y0144924D01*
X0357969Y0145217D01*
X0358102Y0145507D01*
X0358242Y0145794D01*
X0358389Y0146077D01*
X0358543Y0146357D01*
X0358704Y0146632D01*
X0358871Y0146904D01*
X0359045Y0147171D01*
X0359225Y0147435D01*
X0359412Y0147693D01*
X0359605Y0147947D01*
X0359805Y0148196D01*
X0360010Y0148440D01*
X0360222Y0148679D01*
X0360439Y0148913D01*
X0360662Y0149141D01*
X0360890Y0149364D01*
X0361124Y0149581D01*
X0361363Y0149793D01*
X0361607Y0149998D01*
X0361856Y0150198D01*
X0362110Y0150391D01*
X0362368Y0150578D01*
X0362632Y0150758D01*
X0362899Y0150932D01*
X0363171Y0151099D01*
X0363446Y0151260D01*
X0363726Y0151414D01*
X0364009Y0151561D01*
X0364296Y0151701D01*
X0364586Y0151834D01*
X0364879Y0151959D01*
X0365175Y0152078D01*
X0365474Y0152189D01*
X0365776Y0152293D01*
X0366080Y0152389D01*
X0366387Y0152478D01*
X0366695Y0152559D01*
X0367006Y0152633D01*
X0367318Y0152699D01*
X0367631Y0152758D01*
X0367947Y0152808D01*
X0368263Y0152851D01*
X0368580Y0152886D01*
X0368898Y0152914D01*
X0369216Y0152933D01*
X0369535Y0152945D01*
X0369854Y0152949D01*
X0370173Y0152945D01*
X0370492Y0152933D01*
X0370810Y0152914D01*
X0371128Y0152886D01*
X0371445Y0152851D01*
X0371761Y0152808D01*
X0372077Y0152758D01*
X0372390Y0152699D01*
X0372702Y0152633D01*
X0373013Y0152559D01*
X0373321Y0152478D01*
X0373628Y0152389D01*
X0373932Y0152293D01*
X0374234Y0152189D01*
X0374533Y0152078D01*
X0374829Y0151959D01*
X0375122Y0151834D01*
X0375412Y0151701D01*
X0375699Y0151561D01*
X0375982Y0151414D01*
X0376262Y0151260D01*
X0376537Y0151099D01*
X0376809Y0150932D01*
X0377076Y0150758D01*
X0377340Y0150578D01*
X0377598Y0150391D01*
X0377852Y0150198D01*
X0378101Y0149998D01*
X0378345Y0149793D01*
X0378584Y0149581D01*
X0378818Y0149364D01*
X0379046Y0149141D01*
X0379269Y0148913D01*
X0379486Y0148679D01*
X0379698Y0148440D01*
X0379903Y0148196D01*
X0380103Y0147947D01*
X0380296Y0147693D01*
X0380483Y0147435D01*
X0380663Y0147171D01*
X0380837Y0146904D01*
X0381004Y0146632D01*
X0381165Y0146357D01*
X0381319Y0146077D01*
X0381466Y0145794D01*
X0381606Y0145507D01*
X0381739Y0145217D01*
X0381864Y0144924D01*
X0381983Y0144628D01*
X0382094Y0144329D01*
X0382198Y0144027D01*
X0382294Y0143723D01*
X0382383Y0143416D01*
X0382464Y0143108D01*
X0382538Y0142797D01*
X0382604Y0142485D01*
X0382663Y0142172D01*
X0382713Y0141856D01*
X0382756Y0141540D01*
X0382791Y0141223D01*
X0382819Y0140905D01*
X0382838Y0140587D01*
X0382850Y0140268D01*
X0382854Y0139949D01*
X0382850Y0139630D01*
X0382838Y0139311D01*
X0382819Y0138993D01*
X0382791Y0138675D01*
X0382756Y0138358D01*
X0382713Y0138042D01*
X0382663Y0137726D01*
X0382604Y0137413D01*
X0382538Y0137101D01*
X0382464Y0136790D01*
X0382383Y0136482D01*
X0382294Y0136175D01*
X0382198Y0135871D01*
X0382094Y0135569D01*
X0381983Y0135270D01*
X0381864Y0134974D01*
X0381739Y0134681D01*
X0381606Y0134391D01*
X0381466Y0134104D01*
X0381319Y0133821D01*
X0381165Y0133541D01*
X0381004Y0133266D01*
X0380837Y0132994D01*
X0380663Y0132727D01*
X0380483Y0132463D01*
X0380296Y0132205D01*
X0380103Y0131951D01*
X0379903Y0131702D01*
X0379698Y0131458D01*
X0379486Y0131219D01*
X0379269Y0130985D01*
X0379046Y0130757D01*
X0378818Y0130534D01*
X0378584Y0130317D01*
X0378345Y0130105D01*
X0378101Y0129900D01*
X0377852Y0129700D01*
X0377598Y0129507D01*
X0377340Y0129320D01*
X0377076Y0129140D01*
X0376809Y0128966D01*
X0376537Y0128799D01*
X0376262Y0128638D01*
X0375982Y0128484D01*
X0375699Y0128337D01*
X0375412Y0128197D01*
X0375122Y0128064D01*
X0374829Y0127939D01*
X0374533Y0127820D01*
X0374234Y0127709D01*
X0373932Y0127605D01*
X0373628Y0127509D01*
X0373321Y0127420D01*
X0373013Y0127339D01*
X0372702Y0127265D01*
X0372390Y0127199D01*
X0372077Y0127140D01*
X0371761Y0127090D01*
X0371445Y0127047D01*
X0371128Y0127012D01*
X0370810Y0126984D01*
X0370492Y0126965D01*
X0370173Y0126953D01*
X0369854Y0126949D01*
X0369535Y0126953D01*
X0369216Y0126965D01*
X0368898Y0126984D01*
X0368580Y0127012D01*
X0368263Y0127047D01*
X0367947Y0127090D01*
X0367631Y0127140D01*
X0367318Y0127199D01*
X0367006Y0127265D01*
X0366695Y0127339D01*
X0366387Y0127420D01*
X0366080Y0127509D01*
X0365776Y0127605D01*
X0365474Y0127709D01*
X0365175Y0127820D01*
X0364879Y0127939D01*
X0364586Y0128064D01*
X0364296Y0128197D01*
X0364009Y0128337D01*
X0363726Y0128484D01*
X0363446Y0128638D01*
X0363171Y0128799D01*
X0362899Y0128966D01*
X0362632Y0129140D01*
X0362368Y0129320D01*
X0362110Y0129507D01*
X0361856Y0129700D01*
X0361607Y0129900D01*
X0361363Y0130105D01*
X0361124Y0130317D01*
X0360890Y0130534D01*
X0360662Y0130757D01*
X0360439Y0130985D01*
X0360222Y0131219D01*
X0360010Y0131458D01*
X0359805Y0131702D01*
X0359605Y0131951D01*
X0359412Y0132205D01*
X0359225Y0132463D01*
X0359045Y0132727D01*
X0358871Y0132994D01*
X0358704Y0133266D01*
X0358543Y0133541D01*
X0358389Y0133821D01*
X0358242Y0134104D01*
X0358102Y0134391D01*
X0357969Y0134681D01*
X0357844Y0134974D01*
X0357725Y0135270D01*
X0357614Y0135569D01*
X0357510Y0135871D01*
X0357414Y0136175D01*
X0357325Y0136482D01*
X0357244Y0136790D01*
X0357170Y0137101D01*
X0357104Y0137413D01*
X0357045Y0137726D01*
X0356995Y0138042D01*
X0356952Y0138358D01*
X0356917Y0138675D01*
X0356889Y0138993D01*
X0356870Y0139311D01*
X0356858Y0139630D01*
X0356854Y0139949D01*
D395*
X0237645Y0103072D02*
X0237645Y0088072D01*
X0235145Y0085572D01*
X0230145Y0085572D01*
X0227645Y0088072D01*
X0225145Y0085572D01*
X0220145Y0085572D01*
X0217645Y0088072D01*
X0215145Y0085572D01*
X0210145Y0085572D01*
X0207645Y0088072D01*
X0205145Y0085572D01*
X0200145Y0085572D01*
X0197645Y0088072D01*
X0195145Y0085572D01*
X0190145Y0085572D01*
X0187645Y0088072D01*
X0187645Y0103072D01*
X0190145Y0105572D01*
X0195145Y0105572D01*
X0197645Y0103072D01*
X0200145Y0105572D01*
X0205145Y0105572D01*
X0207645Y0103072D01*
X0210145Y0105572D01*
X0215145Y0105572D01*
X0217645Y0103072D01*
X0220145Y0105572D01*
X0225145Y0105572D01*
X0227645Y0103072D01*
X0230145Y0105572D01*
X0235145Y0105572D01*
X0237645Y0103072D01*
X0247608Y0262800D02*
X0246540Y0263868D01*
X0247608Y0262800D02*
X0249743Y0262800D01*
X0250811Y0263868D01*
X0250811Y0264935D01*
X0249743Y0266003D01*
X0247608Y0266003D01*
X0246540Y0267070D01*
X0246540Y0268138D01*
X0247608Y0269205D01*
X0249743Y0269205D01*
X0250811Y0268138D01*
X0252986Y0267070D02*
X0255121Y0269205D01*
X0255121Y0262800D01*
X0252986Y0262800D02*
X0257256Y0262800D01*
X0306540Y0263868D02*
X0307608Y0262800D01*
X0309743Y0262800D01*
X0310811Y0263868D01*
X0310811Y0264935D01*
X0309743Y0266003D01*
X0307608Y0266003D01*
X0306540Y0267070D01*
X0306540Y0268138D01*
X0307608Y0269205D01*
X0309743Y0269205D01*
X0310811Y0268138D01*
X0312986Y0268138D02*
X0314053Y0269205D01*
X0316188Y0269205D01*
X0317256Y0268138D01*
X0317256Y0267070D01*
X0312986Y0262800D01*
X0317256Y0262800D01*
D396*
X0234792Y0083826D02*
X0234792Y0079322D01*
X0233291Y0079322D02*
X0236293Y0079322D01*
X0233291Y0082325D02*
X0234792Y0083826D01*
X0231689Y0083826D02*
X0228687Y0083826D01*
X0230188Y0083826D02*
X0230188Y0079322D01*
X0226335Y0080073D02*
X0226335Y0083826D01*
X0227085Y0083826D02*
X0225584Y0083826D01*
X0226335Y0080073D02*
X0225584Y0079322D01*
X0224833Y0079322D01*
X0224083Y0080073D01*
D397*
X0100240Y0127000D03*
M02*
